<svg width="71" height="172" viewBox="0 0 71 172" fill="none" xmlns="http://www.w3.org/2000/svg">
<path d="M15.3153 18C14.9153 3.2 29.1485 0 36.8152 0C53.8152 0 57.8152 20.7857 55.3152 24C51.8152 28.5 54.3152 34.5 57.8152 37.5C61.3152 40.5 67.2327 41.5162 67.8152 52C68.3152 61 60.4819 63.1667 58.8152 65.5C57.1485 67.8333 57.3152 72.4 65.3152 74C70.8152 75.1 75.3152 96.5 61.3152 99.5C47.3152 102.5 46.8152 91.5 19.8152 98.5C-7.1848 105.5 -0.684801 76 5.3152 75.5C11.3152 75 12.3152 65.5 8.81523 62C5.31523 58.5 -0.184767 49.5 12.3152 40C24.8152 30.5 15.8153 36.5 15.3153 18Z" fill="url(#paint0_linear_13_1352)"/>
<path d="M15.3153 18C14.9153 3.2 29.1485 0 36.8152 0C38.8152 0 42.2152 1.2 39.8152 6C37.4152 10.8 19.1069 15.7918 28.8152 25.5C37.8152 34.5 42.8152 43.5 33.8152 49C24.2752 54.83 16.8152 60.5 22.8152 70C28.8152 79.5 58.8152 74 58.8152 85.5C58.8152 97 27.3152 92.5 19.8152 98.5C-7.1848 105.5 -0.684801 76 5.3152 75.5C11.3152 75 12.3152 65.5 8.81523 62C5.31523 58.5 -0.184767 49.5 12.3152 40C24.8152 30.5 15.8153 36.5 15.3153 18Z" fill="url(#paint1_linear_13_1352)"/>
<path d="M37.8152 64.5L30.8152 28L38.8152 57.5L43.3152 45L39.8152 67.5L43.3152 171.5H32.3152L37.8152 64.5Z" fill="#96623B"/>
<defs>
<linearGradient id="paint0_linear_13_1352" x1="35.3144" y1="0" x2="35.3144" y2="100.031" gradientUnits="userSpaceOnUse">
<stop stop-color="#9FD05A"/>
<stop offset="1" stop-color="#5DAA80"/>
</linearGradient>
<linearGradient id="paint1_linear_13_1352" x1="29.4076" y1="0" x2="29.4076" y2="99.5737" gradientUnits="userSpaceOnUse">
<stop stop-color="#5DAA80"/>
<stop offset="1" stop-color="#9FD05A"/>
</linearGradient>
</defs>
</svg>
