<svg width="495" height="266" viewBox="0 0 495 266" fill="none" xmlns="http://www.w3.org/2000/svg">
<path d="M122.141 36.781C122.438 36.9791 123.151 37.5532 123.627 38.2664C124.102 38.9795 123.825 39.5545 123.627 39.7527C123.726 40.0502 124.043 41.4174 124.519 44.5076C124.994 47.5978 124.32 46.9841 123.924 46.2908L121.249 46.8845C119.466 46.2901 115.603 45.2206 114.414 45.696C112.928 46.2903 110.254 47.7762 109.362 48.6677C108.471 49.5592 108.471 49.2624 107.579 50.4509C106.688 51.6396 106.688 52.5315 106.391 54.9089C106.094 57.2863 107.877 57.5834 108.174 57.8806C108.472 58.1784 110.848 59.6633 111.442 60.2576C111.918 60.7331 114.81 61.0501 116.197 61.1492C116.594 61.2482 117.505 61.5062 117.98 61.7439C118.575 62.041 119.763 62.3384 120.357 62.6355C120.952 62.9326 122.735 63.5267 123.032 63.824C123.27 64.0617 123.726 64.3196 123.924 64.4187C124.023 65.1122 124.221 66.6181 124.221 67.0935C124.221 67.688 124.815 69.4692 125.112 69.7673C125.35 70.0051 125.41 70.263 125.41 70.3621L127.787 69.1736C127.49 68.5792 126.836 67.212 126.599 66.4988C126.301 65.6072 127.49 65.3096 127.787 65.0125C128.025 64.7742 129.075 63.3288 129.57 62.6355C130.066 62.1403 131.056 61.031 131.057 60.5554C131.057 59.9611 132.245 60.2576 129.273 55.5027C126.896 51.6989 128.877 49.7577 130.165 49.2625C131.651 49.3615 134.741 49.6195 135.217 49.8572C135.693 50.0949 137.396 50.5497 138.188 50.7478C138.387 51.3422 139.615 53.1253 142.943 55.5027C147.104 58.4745 146.213 52.2345 147.401 52.8289C148.59 53.4232 148.887 54.3144 149.481 55.2058C150.076 56.0974 151.562 57.2863 152.453 57.8806C153.345 58.4749 153.642 59.6632 154.236 60.2576C154.831 60.8519 156.91 62.933 157.505 63.2302C157.98 63.4678 158.099 63.7248 158.1 63.824C158.595 64.3193 159.704 65.5478 160.18 66.4988C160.774 67.6875 162.854 67.6873 160.18 68.5789C157.505 69.4704 157.208 70.3621 155.425 70.3621H153.345C153.048 70.3621 150.373 70.6593 148.887 71.2537C147.401 71.8479 147.996 71.5511 147.401 72.1453C146.807 72.7396 145.618 75.4142 145.618 76.0085C145.618 76.603 145.618 78.3859 145.023 78.9802C144.429 79.5746 150.076 80.4666 154.236 81.3582C158.396 82.2497 154.236 82.5467 153.345 83.4382C152.631 84.1514 150.868 83.7354 150.075 83.4382C148.886 83.4383 145.796 83.7351 142.943 84.9236C139.377 86.4095 142.646 85.8159 142.052 86.113C141.457 86.4106 139.971 88.4908 136.108 92.948C132.245 97.4056 132.542 96.8113 132.542 97.7029C132.542 98.4162 130.958 100.179 130.165 100.971C129.472 102.754 127.787 106.38 126.599 106.618C125.113 106.915 125.113 107.51 124.519 108.104C123.924 108.699 124.221 110.481 124.221 111.67C124.221 112.858 125.41 114.345 126.004 115.831C126.598 117.317 127.192 118.208 127.192 118.506C127.193 118.744 127.589 119.992 127.787 120.586C127.49 120.883 126.777 121.477 126.302 121.477C125.707 121.477 124.816 121.18 124.519 120.883C124.221 120.585 123.924 119.397 123.627 119.099C123.33 118.802 123.032 118.208 122.735 117.614C122.438 117.02 121.547 115.83 121.547 115.533C121.545 115.235 120.061 114.345 119.764 114.048C119.466 113.75 117.98 113.453 116.494 112.859C116.175 112.731 115.963 112.644 115.829 112.586L115.009 112.859C114.118 113.156 112.277 113.75 112.037 113.751H110.848C110.848 113.255 109.837 112.68 105.796 114.344C100.744 116.425 102.527 118.802 102.527 121.179C102.527 123.557 101.933 124.151 101.933 125.043C101.933 125.934 101.636 127.421 101.636 128.312C101.636 129.204 102.527 130.69 103.121 130.987C103.715 131.284 105.499 135.742 105.796 135.742H106.093C106.984 135.346 108.887 134.434 109.362 133.959L109.659 133.661C110.154 133.265 111.204 132.354 111.442 131.879C111.74 131.284 111.739 131.581 112.631 130.392C113.522 129.204 113.82 129.501 114.117 129.501H116.494C117.207 129.501 117.188 129.698 117.089 129.798C117.089 130.095 117.03 130.749 116.792 130.987C116.495 131.284 116.494 132.77 116.494 133.364C116.494 133.958 116.198 134.553 115.9 134.85C115.603 135.148 115.306 136.039 115.009 136.634C114.712 137.228 114.116 138.119 113.819 138.416C113.522 138.713 114.117 139.605 114.414 139.902C114.652 140.14 115.702 139.803 116.197 139.605H119.764C120.358 139.605 120.061 139.902 122.141 141.982C123.805 143.646 122.438 147.431 121.547 149.115L123.924 151.789L125.41 151.492H128.976C129.57 151.492 129.273 151.492 130.759 152.978C131.947 154.167 133.434 150.105 134.028 147.926C134.821 147.43 136.941 146.321 139.08 145.845C141.219 145.37 141.755 146.44 141.755 147.034L142.349 147.926H147.698C148.986 148.916 151.799 151.314 152.75 152.978C153.225 153.929 153.741 154.365 153.939 154.464L158.396 156.247C159.189 156.445 160.953 156.901 161.666 157.138C162.557 157.436 163.745 158.327 164.34 158.922C164.934 159.516 166.124 160.705 166.421 164.568C166.718 168.431 166.717 165.757 167.015 166.351C167.253 166.827 170.68 167.936 172.364 168.431C173.058 168.332 174.682 168.194 175.633 168.431C176.584 168.669 176.822 169.125 176.822 169.323C177.912 169.819 180.685 171.404 183.062 173.781C184.251 175.267 184.549 174.375 186.629 174.375C188.709 174.375 189.006 174.969 189.006 175.266V181.508C189.005 181.983 188.214 183.488 187.817 184.181L186.629 187.451C185.737 188.937 183.538 192.443 181.874 194.583C180.21 196.722 181.973 199.833 183.062 201.121L181.874 204.39C180.883 205.084 178.248 206.767 175.633 207.956C172.364 209.442 174.444 208.55 172.958 209.739C171.473 210.928 172.958 212.414 172.958 213.602C172.958 214.791 172.364 215.386 171.77 216.277C171.175 217.169 169.392 218.655 168.203 219.844C167.014 221.033 164.043 224.896 160.18 229.353C156.317 233.811 161.963 233.217 157.803 235C153.642 236.783 155.127 235.891 154.83 235.891C154.533 235.891 154.235 235.891 152.75 236.188C151.265 236.485 151.858 236.188 151.562 236.485C151.264 236.782 150.373 237.971 150.373 238.863C150.373 239.755 148.59 242.132 148.293 242.429C147.996 242.727 147.104 244.509 147.104 244.806C147.104 245.104 147.104 247.184 143.538 251.939C139.972 256.694 140.864 258.774 149.185 261.449C155.841 263.589 154.929 264.123 153.642 264.123C151.165 264.915 144.786 266.203 139.08 265.014C137.594 264.42 139.08 262.34 136.405 260.854C133.731 259.368 135.217 258.179 134.028 253.721C132.84 249.264 134.326 249.858 134.028 246.886C133.731 243.915 136.405 241.834 136.405 239.16V224.004C136.901 222.319 138.129 217.882 139.08 213.602C140.269 208.253 142.052 203.498 139.08 199.932C136.108 196.366 137.594 198.743 135.217 197.258C132.839 195.772 133.433 195.771 131.947 194.583C130.462 193.394 130.462 193.394 129.57 191.909C128.679 190.423 128.679 189.234 127.787 187.451C126.896 185.668 126.005 181.805 125.41 179.724C124.816 177.644 124.518 176.752 124.221 174.375C123.924 171.997 127.786 167.243 127.787 166.351C127.787 165.46 128.976 164.865 129.57 163.677C130.165 162.488 130.462 161.893 130.462 161.299C130.462 160.704 130.759 158.921 130.462 158.327C130.165 157.733 130.759 157.138 129.867 154.464C129.075 154.265 127.192 153.87 126.004 153.87C124.815 153.87 120.952 151.096 119.169 149.709C117.881 148.619 115.247 146.321 115.009 145.845C114.712 145.251 113.225 144.063 110.254 141.685C109.065 140.794 105.499 139.902 101.933 138.119C100.15 137.029 96.3455 134.731 95.3945 134.256C94.2058 133.661 91.5312 132.175 90.6396 131.581C89.7481 130.986 88.2619 129.798 85.8848 128.015C83.5075 126.232 83.8044 124.152 82.9131 123.26C82.1999 122.547 81.0315 118.605 80.5361 116.722C80.0408 116.029 78.6339 114.166 76.9697 112.264C75.3055 110.362 70.1343 102.557 67.7568 98.8914C67.3606 98.3961 66.39 97.1083 65.6768 95.9197C64.7853 94.434 65.0819 93.5424 65.082 92.948C65.082 92.3907 65.6047 87.6535 65.6699 85.8396L65.6826 85.2429C65.7436 83.8814 66.1965 82.732 65.082 81.0603C63.8935 79.2776 63.5962 79.8713 62.1104 78.3855C60.6246 76.8997 59.7331 75.1164 57.9502 73.6306C56.1672 72.1447 55.87 69.7676 54.9785 68.5789C54.087 67.3902 54.0865 65.9046 53.4922 64.4187C53.0167 63.23 50.1241 61.3479 48.7373 60.5554C47.9449 60.1592 45.7659 59.1886 43.3887 58.4753C41.0112 57.7621 36.4539 56.5927 34.4727 56.0974L23.7744 57.5837H17.2363C15.057 57.0884 10.3415 56.0974 8.91504 56.0974C7.48874 56.0972 6.33957 54.7107 5.94336 54.0173C4.75462 52.8286 2.31783 50.035 2.08008 48.3708C1.84235 46.7067 0.594404 46.6864 0 46.8845L13.6699 37.9695C15.453 37.5732 19.1979 36.781 19.9111 36.781C20.8029 36.7811 25.2604 37.9696 28.5293 38.8611C31.7982 39.7526 35.6614 39.7527 36.2559 39.7527C36.7313 39.7527 37.445 39.9505 37.7422 40.0496L43.9824 41.8328L50.2236 40.0496L54.9785 37.9695L62.1104 37.0779C69.637 38.4644 84.748 41.2366 84.9932 41.238C85.2308 41.238 85.6865 41.8323 85.8848 42.1296C86.2811 41.5352 87.0732 40.2873 87.0732 40.0496C87.0736 39.8121 87.6677 39.7527 87.9648 39.7527L90.6396 40.0496H95.6914C96.8801 40.0496 99.5555 40.9409 100.744 41.238C101.933 41.535 104.013 39.4554 104.607 38.8611C105.202 38.2668 104.904 37.6722 105.201 37.0779C105.439 36.6024 108.867 36.0875 110.551 35.8894C111.838 36.1865 114.413 36.84 114.414 37.0779C114.414 37.375 117.088 38.8605 117.386 38.8611C117.623 38.8611 120.259 36.88 121.547 35.8894L122.141 36.781ZM439.528 187.154C440.42 186.857 441.906 191.908 444.283 198.149C446.661 204.39 453.496 209.739 454.388 212.711C455.279 215.682 454.685 221.924 454.388 222.815C454.091 223.707 451.119 233.513 449.336 235.297C447.909 236.723 446.562 236.683 446.066 236.485C444.977 236.089 441.786 235.059 437.745 234.108C432.693 232.919 433.882 227.867 432.99 226.382C432.099 224.896 430.613 228.461 428.83 227.867C427.047 227.272 427.938 224.599 422.887 223.41C417.835 222.221 418.726 228.758 413.972 227.867C409.217 226.975 408.028 229.353 405.65 229.947C403.273 230.541 403.57 229.056 401.489 227.867C399.826 226.916 401.39 226.481 402.381 226.382C401.489 221.825 399.529 212.116 398.815 209.739C397.924 206.767 405.947 204.093 408.027 203.796C410.107 203.498 411.296 200.23 411.594 198.744C411.891 197.258 413.971 195.475 416.052 193.989C418.132 192.503 419.023 193.989 421.104 193.989C422.768 193.989 423.58 190.62 423.778 188.936C425.562 188.045 430.316 188.936 431.802 189.828C433.288 190.719 430.316 192.8 429.425 193.989C428.533 195.178 435.961 198.743 437.745 198.744C439.528 198.744 438.637 187.454 439.528 187.154ZM450.228 23.7048C450.246 23.723 451.423 24.8983 452.308 25.488C453.2 26.082 460.867 24.2996 461.817 24.2996C463.006 24.3001 465.978 27.2712 466.869 27.2712C467.761 27.2712 468.652 26.3797 472.516 27.2712C475.606 27.9844 477.171 27.964 477.567 27.865C478.162 27.3697 479.588 26.2012 480.539 25.488C481.728 24.5965 490.347 27.2712 492.13 27.2712C493.912 27.2726 494.507 34.9968 492.13 34.9978C490.228 34.9978 490.149 35.5922 490.347 35.8894C491.436 37.3753 493.139 40.2276 491.238 39.7527C488.861 39.1583 483.511 42.13 476.974 43.616C470.436 45.1018 471.327 44.2103 469.544 45.696C467.761 47.1819 469.246 47.4793 469.841 49.2625C470.435 51.0454 469.544 51.9369 468.652 53.4226C467.761 54.9084 467.464 54.0174 464.492 57.2859C461.52 60.5549 463.303 59.9612 460.926 62.3386C458.549 64.7156 458.845 54.3152 458.548 51.9373C458.251 49.5598 465.086 46.5872 468.058 45.1013C471.029 43.6155 471.327 38.8612 470.732 39.158C470.138 39.4551 467.761 41.238 466.869 42.1296C465.978 43.0211 465.68 42.7245 465.086 41.5359C464.492 40.3472 463.005 41.2387 461.52 41.5359C460.034 41.8334 457.657 44.21 457.954 45.9929C458.251 47.776 454.982 47.7764 451.416 47.4792C447.85 47.1821 441.906 48.0734 440.123 48.6677C438.34 49.2621 434.476 53.7203 432.099 56.6921C429.722 59.6633 431.505 58.7723 432.693 58.7722H432.694C433.883 58.7722 434.774 58.7724 435.963 58.4753C437.151 58.1789 438.042 61.7436 437.448 64.1208C436.854 66.4983 437.448 69.1733 437.448 70.3621C437.448 71.5508 431.208 80.4661 428.83 82.8435C426.453 85.2209 427.938 81.952 424.372 83.7351C420.806 85.518 423.481 84.6269 422.887 86.4099C422.292 88.1929 422.292 87.5988 420.509 89.0847C418.726 90.5701 418.429 89.9761 418.429 90.5701C418.429 91.1644 421.104 94.1362 421.995 95.325C422.887 96.5137 421.995 96.8115 421.4 99.4861C420.925 101.625 418.429 100.773 417.24 100.08L416.349 94.1365L411.594 91.4617L410.999 89.0847L405.65 95.325H409.217L411.594 97.1082L408.027 100.08V103.052L410.999 107.213V112.859L407.136 120.883L405.056 122.666L403.57 126.232L397.924 128.312L394.654 130.689L394.061 128.906L390.197 130.689L388.711 134.85L390.197 137.227L394.061 141.091V147.629C392.377 149.015 388.949 151.789 388.711 151.789C388.473 151.789 387.423 152.185 386.928 152.384L386.036 149.709L383.956 145.549H380.39L379.796 151.195L381.876 155.95L385.442 161.299L386.036 163.973H384.551L381.876 161.299L379.796 155.95L376.824 152.384L378.31 146.143L376.229 138.714L371.771 139.605V132.769L368.205 128.906L362.262 130.689L355.13 138.714L351.86 141.091L352.752 144.657L350.969 146.737L351.563 151.789L347.7 153.572L343.54 141.388L342.054 130.095L339.974 132.176L332.544 123.557H327.492C327.254 123.557 323.232 122.963 321.251 122.666L318.576 120.586H315.604L312.633 118.802L310.553 115.533L307.581 116.128L305.798 118.208L309.661 120.883L311.741 122.666L312.633 125.934L315.308 125.043L318.576 122.666L319.766 125.637L323.331 128.906L320.657 135.444L306.393 143.171L301.043 144.954L297.477 134.85L294.208 128.312L288.265 118.208L285.292 117.614L293.02 136.336L299.26 144.657L300.448 149.412L311.444 146.737L312.336 149.412L305.203 161.596L298.665 168.135L293.91 177.941L296.585 186.559L295.991 194.583L288.265 200.824L290.345 208.847C289.156 210.036 286.6 212.473 285.887 212.711C285.173 212.948 285.59 215.782 285.887 217.169L279.646 224.895L276.377 227.867L272.811 228.462L265.084 227.867L264.49 223.707L260.032 213.9L258.844 204.984L255.277 196.961L257.357 180.616L256.169 179.427V176.455L252.899 173.186C252.879 173.169 251.408 171.928 251.414 169.323C251.42 166.699 253.361 166.736 253.791 166.053C254.22 165.371 253.791 161.596 252.899 160.705C252.008 159.813 249.036 160.11 249.036 160.11L246.362 158.922C246.362 158.922 246.362 157.138 243.984 157.138C241.614 157.139 234.223 160.092 234.178 160.11H228.234L224.073 157.138C224.046 157.13 221.441 156.304 220.21 154.167C218.973 152.018 220.796 151.105 220.21 149.412C219.624 147.719 218.13 149.115 218.13 149.115L215.752 147.034C215.738 146.993 214.935 144.628 214.935 141.335C214.935 138.041 215.738 135.78 215.752 135.742C215.752 135.742 213.632 132.868 213.632 130.914C213.632 128.971 216.608 125.383 216.644 125.341L221.398 115.831L230.017 104.835C230.017 104.835 232.095 103.052 234.474 103.052H237.744C242.597 102.061 252.419 100.022 252.899 99.783C255.574 99.1352 254.98 105.726 255.277 107.51C255.575 109.293 264.49 111.67 266.273 113.156C268.056 114.641 267.165 112.264 267.759 110.184C268.353 108.105 274.589 111.37 274.594 111.67C274.594 111.967 282.915 112.562 287.075 112.264C291.236 111.967 290.344 103.051 290.642 102.16C290.936 101.269 279.647 103.052 277.863 103.943C276.08 104.835 276.377 98.2973 276.377 95.9197C276.377 93.5422 271.919 91.7592 273.702 96.8113C275.485 101.863 276.377 100.08 274.594 101.863C272.811 103.646 271.919 99.1892 270.137 98.8914C268.354 98.5942 266.867 96.2171 267.164 94.7312C267.402 93.5425 266.67 92.2538 266.273 91.7585C264.193 89.6783 259.735 85.3399 258.546 84.6267C257.06 83.7356 257.358 84.9239 256.764 85.5183C256.288 85.9938 256.763 86.5087 257.061 86.7068C259.735 89.0842 265.144 94.136 265.382 95.325C265.679 96.8108 260.924 101.268 260.032 101.268C259.141 101.268 256.764 99.4861 256.764 98.5945C256.764 97.7029 260.033 99.7825 261.519 98.2966C262.707 97.1082 262.014 95.8203 261.519 95.325C258.745 92.4522 253.019 86.5284 252.306 85.8152C251.414 84.9237 250.82 86.4097 249.631 87.5984C248.442 88.7871 247.551 88.787 245.471 87.5984C243.807 86.6475 243.786 87.2022 243.984 87.5984C244.083 88.2917 244.163 89.8567 243.688 90.5701C243.093 91.4616 241.013 92.0565 239.824 92.948C238.635 93.8395 239.527 95.6226 238.933 96.8113C238.338 98 236.555 100.08 233.583 100.675C230.612 101.269 230.611 99.7831 229.423 98.5945C228.234 97.4058 227.045 98.891 225.856 98.2966C224.668 97.7018 225.856 92.6507 225.856 89.0847C225.856 86.2319 227.045 86.3106 227.64 86.7068C230.314 86.8058 235.902 86.9445 236.853 86.7068C238.041 86.4089 237.744 82.5473 237.744 81.3582C237.744 80.1694 232.098 78.0886 232.098 77.197C232.098 76.3058 235.366 76.6025 235.663 76.3054C235.96 76.0082 236.258 74.8198 237.149 75.1169C238.041 75.4141 241.013 75.1169 241.013 74.2253C241.013 73.3339 241.904 73.0371 244.281 72.74C246.659 72.4428 245.174 70.9564 245.471 69.4705C245.768 67.9847 250.225 68.2819 251.414 67.3904C252.603 66.499 250.523 63.2308 250.226 62.3386C249.928 61.4471 252.9 60.8523 254.386 60.8523C255.872 60.8523 253.494 64.4181 252.899 65.9041C252.305 67.3898 256.763 67.6873 258.546 68.8757C260.329 70.0644 264.49 68.5792 266.867 68.282C269.245 67.9848 268.947 67.0931 269.839 64.4187C270.73 61.7443 271.325 63.2298 272.811 63.5271C274.296 63.8243 272.514 62.041 272.514 60.8523C272.514 59.6637 279.349 60.258 279.943 58.7722C280.538 57.2863 271.622 58.1779 269.839 59.6638C268.056 61.149 269.839 55.5032 268.947 54.0173C268.056 52.5314 273.108 49.5592 275.188 47.7761C276.852 46.3499 272.91 46.7862 270.73 47.1824C268.848 48.7674 264.787 52.5316 263.599 54.9089C262.113 57.8807 265.678 58.1779 265.084 59.6638C264.489 61.1499 261.518 65.3101 259.141 66.4988C256.764 67.6872 257.654 63.8258 256.764 63.2302C255.872 62.6359 255.278 59.664 254.98 57.5837C254.683 55.5035 253.494 58.1779 251.414 59.6638C249.334 61.1496 249.928 58.772 247.254 58.1775C244.579 57.5832 247.254 53.7205 247.254 51.9373C247.254 50.1542 249.037 51.3428 251.414 50.1541C253.791 48.9654 257.654 45.6964 260.329 42.4275C263.004 39.1586 265.381 40.9414 268.947 39.4558C272.513 37.97 276.674 38.5639 278.457 38.8611C280.24 39.1583 295.991 44.8049 296.288 47.1824C296.585 49.5594 294.505 48.3709 290.345 48.3708C286.184 48.3708 288.858 51.0458 290.938 52.8289C293.019 54.6118 298.07 53.1259 295.991 51.9373C294.327 50.9863 295.298 50.3522 295.991 50.1541C297.873 50.7484 301.459 51.2827 300.746 48.6677C300.033 46.0527 301.043 45.597 301.638 45.696L305.798 48.3708C311.741 47.5784 324.402 45.9338 327.492 45.696C331.355 45.3989 329.275 45.9934 332.247 47.4792C335.219 48.965 336.408 48.0736 337.002 47.4792C337.596 46.885 335.219 46.5872 334.03 45.9929C332.842 45.3986 334.03 43.6156 333.732 43.0212C333.437 42.4264 336.705 40.3467 340.271 40.0496C343.837 39.7524 341.162 40.347 341.459 42.7244C341.756 45.1014 342.35 47.1813 342.351 47.7761C342.351 48.3705 341.756 49.5598 340.271 51.0457C338.785 52.5313 341.162 51.3428 342.945 51.0457C344.728 50.7485 344.431 47.7771 344.729 47.1824C345.026 46.588 343.837 43.6159 342.945 42.7244C342.232 42.0111 345.818 40.8427 347.7 40.3474C349.582 40.4465 353.584 40.8819 354.535 41.8328C355.724 43.0214 356.615 42.4271 357.507 41.8328C358.398 41.2384 355.427 40.0495 353.347 39.158C351.267 38.2665 356.912 37.9698 358.695 37.6726C360.122 37.4349 362.459 35.5926 363.45 34.7009C365.53 34.1066 370.048 32.9177 371.475 32.9177C373.258 32.9177 379.796 30.8368 382.768 28.7566C385.145 27.0926 386.334 26.6765 386.631 26.6765C390.197 26.7756 397.686 27.0926 399.112 27.5681C400.895 28.1625 399.112 29.0546 398.518 30.8376C397.925 32.6198 406.245 30.5404 410.999 29.946C415.754 29.3517 413.674 28.4597 414.269 27.5681C414.863 26.6768 419.024 26.9738 420.807 27.5681C422.589 28.1625 418.132 29.0539 420.807 29.6482C423.481 30.2426 424.372 31.134 425.264 29.6482C425.977 28.4595 426.948 28.3607 427.345 28.4597C429.722 27.9644 434.774 26.9142 435.963 26.6765C437.448 26.3792 436.557 25.1908 437.745 24.5964C438.696 24.1209 446.463 23.8039 450.228 23.7048ZM308.473 189.234C309.958 187.451 309.958 193.393 309.364 194.583C308.77 195.771 309.364 196.366 308.473 202.012C307.581 207.658 306.987 209.442 306.393 210.631C305.798 211.819 303.42 212.711 301.935 212.414C300.449 212.117 300.151 207.363 300.151 206.174C300.151 204.985 301.043 205.282 301.638 204.39C302.232 203.499 301.935 199.041 301.638 197.258C301.341 195.475 303.42 196.663 305.798 194.583C307.7 192.919 308.374 190.324 308.473 189.234ZM428.235 169.323L428.533 170.215L429.127 171.403L429.722 171.998C430.217 171.899 431.326 171.582 431.802 171.106C432.277 170.631 432.594 170.115 432.693 169.917L436.26 171.106L438.043 173.186C438.935 173.285 441.252 173.721 443.392 174.672C445.531 175.622 444.482 175.861 443.689 175.861C444.284 176.158 445.532 176.753 445.77 176.753C446.007 176.753 446.264 177.545 446.363 177.941L446.661 179.427L449.336 182.993C449.93 183.29 451.297 184.063 452.01 184.776C452.901 185.668 452.605 186.262 449.336 186.262H448.444C447.553 185.767 445.591 184.598 444.878 183.885C443.986 182.993 444.878 182.993 444.283 181.804C443.689 180.616 443.392 182.398 442.798 182.993C442.322 183.468 441.807 184.38 441.608 184.776H438.637C436.855 184.776 437.151 183.885 437.151 183.291C437.151 182.696 435.962 182.993 434.477 182.993H431.802C432.297 182.795 433.406 182.28 433.882 181.804C434.476 181.21 433.882 179.724 433.882 179.427C433.881 179.189 433.486 178.932 433.288 178.833C432.991 178.437 432.277 177.644 431.802 177.644C431.208 177.644 430.91 176.753 430.316 176.753C429.722 176.753 429.425 175.861 426.453 175.861C425.859 176.158 426.453 174.969 426.453 173.483V172.592C425.76 172.096 424.313 170.749 424.075 169.323L424.967 168.728H426.453L428.235 169.323ZM408.622 182.399H410.999C411.395 182.399 412.248 182.339 412.485 182.101C412.783 181.804 414.269 182.101 415.16 182.101H417.24C417.835 182.101 418.132 182.399 418.429 182.696C418.666 182.934 418.528 182.993 418.429 182.993C417.933 183.488 416.883 184.479 416.646 184.479C416.347 184.48 414.268 185.371 413.08 185.668C412.13 185.905 411.891 185.569 411.891 185.371C412.485 184.776 413.734 183.468 413.972 182.993C414.209 182.518 414.071 182.597 413.972 182.696C413.18 182.696 411.536 182.755 411.297 182.993C411 183.29 409.513 183.29 408.919 183.588C408.325 183.885 408.028 183.588 407.434 183.588C406.958 183.588 407.83 182.399 408.325 181.804L408.622 182.399ZM406.244 182.101C406.957 181.864 406.938 182.597 406.839 182.993L406.244 183.291C405.749 183.489 404.639 183.885 404.164 183.885C403.689 183.884 402.777 183.29 402.381 182.993L402.976 182.101C403.471 182.2 404.818 182.339 406.244 182.101ZM389.899 178.536L391.386 179.13L393.169 179.724L395.249 180.318C396.042 180.417 397.865 180.616 398.815 180.616C399.766 180.616 400.202 181.408 400.301 181.804L400.896 182.993V183.291H398.815C398.32 183.192 397.21 182.993 396.734 182.993C396.139 182.993 394.06 182.399 393.763 182.399C393.465 182.399 391.682 182.102 391.088 181.804C390.494 181.507 389.899 181.209 388.711 180.318C387.522 179.427 388.117 179.427 387.819 179.13C387.582 178.892 388.513 178.436 389.008 178.238H389.306L389.899 178.536ZM415.754 165.162C416.051 165.162 416.646 166.054 414.565 166.945C412.486 167.836 413.674 167.243 413.08 167.54C412.486 167.837 411.891 167.242 410.107 167.837C408.325 168.431 409.216 169.322 409.514 169.917C409.811 170.511 410.405 169.62 411.297 169.026C412.188 168.432 412.188 169.026 412.485 169.026C412.723 169.026 412.981 169.62 413.08 169.917C412.981 170.016 412.664 170.214 412.188 170.215C411.594 170.215 411.891 170.512 410.999 171.106L410.405 171.7C410.108 171.997 411 172.295 411.297 172.889C411.594 173.484 411.891 174.078 412.188 174.375C412.486 174.672 412.782 175.861 412.782 177.644C412.782 179.426 410.405 175.564 410.107 174.969C409.81 174.375 410.108 174.375 409.514 172.592C408.919 170.809 409.217 173.483 409.217 174.375V178.238C409.217 179.13 407.136 177.941 407.136 177.346C407.136 176.752 407.434 176.455 407.434 175.563C407.433 174.672 406.839 173.484 406.839 173.186C406.839 172.949 406.442 172.096 406.244 171.7C406.839 170.907 408.087 169.264 408.325 169.026C408.563 168.788 408.622 166.945 408.622 166.053H410.999L411.891 166.351C412.188 166.252 412.901 166.053 413.377 166.053C413.971 166.053 415.456 165.163 415.754 165.162ZM374.149 158.03C373.912 156.604 375.04 157.633 375.635 158.327C376.13 158.822 377.418 160.17 378.606 161.596C380.092 163.379 379.796 162.785 380.39 163.082C380.984 163.379 381.282 164.271 381.876 164.568C382.351 164.806 382.669 165.459 382.768 165.757C383.065 166.153 383.718 167.064 383.956 167.54C384.253 168.134 385.145 169.026 385.442 169.62C385.74 170.214 386.63 171.106 386.928 171.403C387.165 171.641 387.819 172.691 388.116 173.186C388.314 173.582 388.71 174.433 388.711 174.672V176.158L388.116 177.05L386.928 177.941H386.036L381.281 169.917L376.526 163.677C375.833 161.993 374.387 158.506 374.149 158.03ZM403.57 155.355C404.165 154.167 405.65 155.95 406.244 156.842C406.72 157.555 406.442 158.525 406.244 158.922C405.947 159.12 405.234 159.813 404.759 161.002C404.283 162.19 404.956 163.478 405.353 163.973V166.351C405.352 167.243 404.462 167.837 403.57 170.215C402.679 172.592 403.273 172.295 402.976 173.186C402.678 174.078 402.678 174.375 401.489 175.266C400.301 176.158 400.003 174.969 398.518 174.375C397.032 173.781 396.735 174.077 394.061 172.592C391.386 171.106 393.466 170.511 392.574 168.728C391.683 166.946 392.277 167.837 395.843 164.271L398.518 161.596L403.57 155.355ZM419.32 169.026C419.32 169.264 418.924 169.719 418.726 169.917L420.509 171.7C421.103 172.294 421.401 173.186 421.104 173.186C420.866 173.186 419.816 173.384 419.32 173.483L418.726 172.889L418.132 171.7L417.537 169.026L418.726 167.54H419.32V169.026ZM408.325 134.256C408.226 133.958 408.325 133.542 409.514 134.256C410.999 135.147 409.514 135.147 409.514 136.039C409.514 136.93 409.513 137.822 409.811 138.714C410.108 139.605 410.999 140.2 410.999 140.497C411 140.794 411.891 141.686 412.485 142.874C413.08 144.062 412.782 143.766 412.782 144.36V147.332C412.782 148.223 414.269 148.223 415.16 148.52C415.873 148.758 415.853 149.214 415.754 149.412C416.249 150.402 417.299 152.681 417.537 153.87C417.834 155.355 417.537 155.653 417.537 156.247C417.537 156.841 417.24 156.841 415.16 156.247C413.08 155.653 415.457 155.652 414.269 155.355C413.08 155.652 411.296 155.355 410.999 154.464C410.762 153.751 411.494 153.771 411.891 153.87C411.99 153.176 412.128 151.73 411.891 151.492C411.594 151.195 411.296 150.898 409.811 149.115C408.325 147.332 410.108 147.034 409.811 144.36C409.513 141.686 409.514 142.576 408.325 141.091C407.374 139.902 407.929 136.039 408.325 134.256ZM311.881 87.3347C311.285 86.7016 310.313 86.5385 309.585 86.6541C308.71 86.757 307.421 87.0215 306.45 87.5056C305.972 87.744 305.484 88.0777 305.203 88.5505C304.887 89.0825 304.889 89.6968 305.232 90.2986L305.323 90.4675C305.756 91.3056 305.823 92.0942 305.93 93.0916C306.044 94.1554 306.204 95.3759 307.012 96.8298L307.12 97.0398C307.342 97.4989 307.349 97.7576 307.327 97.8982C307.298 98.0796 307.215 98.1918 307.039 98.4558C306.881 98.6926 306.598 99.1347 306.796 99.7283C306.957 100.21 307.403 100.667 308.072 101.188L309.154 102.031C310.318 102.932 311.681 103.951 312.839 104.588C313.23 104.802 313.616 104.985 313.979 105.105C314.331 105.222 314.718 105.3 315.086 105.247C315.493 105.187 315.856 104.967 316.069 104.56C316.237 104.242 316.285 103.862 316.266 103.463L316.253 103.29C316.105 101.661 316.027 101.151 315.855 100.594C315.716 100.143 315.539 99.722 315.202 98.4441L315.048 97.8416C314.847 97.039 314.944 96.6581 315.037 96.4763C315.135 96.2855 315.288 96.1815 315.537 96.0281C315.63 95.9708 315.831 95.8536 315.975 95.6912C316.059 95.5958 316.145 95.4627 316.187 95.2898C316.228 95.1142 316.212 94.9453 316.166 94.7966C316.083 94.5314 315.893 94.2999 315.699 94.1003C315.595 93.9931 315.471 93.8763 315.325 93.7488L314.822 93.3308C314.043 92.7073 313.342 92.2781 312.758 91.9548C312.134 91.6097 311.759 91.4397 311.464 91.2488C311.341 91.169 311.288 91.1183 311.267 91.0935C311.268 91.0864 311.269 91.0768 311.272 91.0652C311.281 91.0319 311.298 90.9831 311.329 90.9167C311.393 90.7805 311.502 90.5989 311.677 90.3542L311.823 90.1384C312.146 89.6369 312.329 89.1539 312.358 88.6931C312.393 88.1451 312.206 87.6803 311.881 87.3347ZM284.515 84.3757C284.111 84.2301 283.642 84.1914 283.104 84.281L283.055 84.2898L283.006 84.3054C282.06 84.6208 280.69 85.2687 279.665 86.2126C278.636 87.1603 277.836 88.537 278.439 90.198L278.653 90.781C279.153 92.1116 279.675 93.2319 280.747 93.907C281.959 94.6702 283.731 94.7836 286.549 94.4871L287.512 94.3923C289.533 94.2126 290.054 94.3007 290.447 94.4236C290.645 94.4853 291.034 94.6458 291.505 94.7634C292.018 94.8918 292.728 95.0068 293.867 95.0828L294.282 95.1062C295.218 95.1451 295.932 95.0874 296.469 94.9412C297.092 94.7713 297.561 94.4539 297.778 93.947C297.981 93.4747 297.892 92.9936 297.796 92.6638C297.745 92.4901 297.682 92.3255 297.629 92.1892L297.5 91.8503C297.378 91.4849 297.052 91.0453 296.657 90.6316C296.241 90.1953 295.681 89.7163 295.007 89.28C293.746 88.4642 292.042 87.7697 290.093 87.8201L289.7 87.8406C287.882 87.9804 287.133 87.5515 286.793 87.2117C286.612 87.0306 286.503 86.8323 286.418 86.6394C286.362 86.5114 286.352 86.4753 286.295 86.3416C286.265 86.2721 286.19 86.0889 286.05 85.949L286.067 85.9675C286.065 85.9641 286.055 85.9501 286.037 85.9197C286.002 85.8598 285.971 85.7992 285.913 85.6951C285.81 85.509 285.661 85.2505 285.442 85.0076C285.219 84.7593 284.919 84.5214 284.515 84.3757ZM203.271 2.60522C204.162 2.60522 205.351 2.90259 204.757 5.28003C202.855 5.99326 203.37 6.36945 203.865 6.46851L205.352 7.65698L207.729 7.06323C209.413 6.66699 212.9 5.81465 213.375 5.5769C213.969 5.27981 213.97 5.87456 219.913 7.06323C224.668 8.01421 220.903 9.44057 218.427 10.0349H215.455C214.663 11.1247 212.959 13.6012 212.483 14.7898C211.889 16.2756 210.403 17.7616 209.809 18.6531C209.214 19.5446 208.026 20.7333 204.46 22.8132L205.352 27.5681L205.945 29.0544L204.46 31.1345C202.875 31.927 199.051 33.8091 196.436 34.9978C193.167 36.4837 194.652 37.3748 192.869 37.3748H191.087C189.502 38.0682 186.034 39.4558 184.846 39.4558C183.657 39.4558 182.369 44.6068 181.874 47.1824V51.9373H174.147L169.986 50.1541L166.421 45.3992L164.935 39.4558L167.906 37.3748V34.9978L163.449 31.1345L161.071 26.3796C159.684 25.29 156.673 23.051 155.722 22.8132C154.532 22.5164 147.995 23.7045 140.863 20.7332C135.158 18.3558 143.24 14.7894 147.995 13.3035H151.265L153.939 12.115C155.029 11.9168 157.445 11.4611 158.396 11.2234C159.585 10.9262 161.072 10.629 163.449 10.3318C165.827 10.0348 169.095 11.223 167.906 10.6287C166.718 10.0344 167.015 9.44046 167.609 9.14331C168.085 8.90557 169.789 9.04425 170.581 9.14331C173.058 9.24237 177.476 9.08344 175.336 7.65698C172.661 5.87402 174.444 7.06248 179.199 5.87378C183.954 4.68512 184.846 4.09142 186.926 3.19995C188.59 2.48677 191.581 2.90278 192.869 3.19995L197.03 2.60522H203.271ZM140.566 9.73706C142.251 9.9352 145.797 10.3318 146.51 10.3318C147.223 10.3319 147.797 10.9262 147.995 11.2234L141.755 14.1951L135.217 16.573L133.434 17.4646L132.542 18.0583L129.57 19.5447C129.174 19.9409 128.203 20.733 127.49 20.7332C126.777 20.7332 126.599 21.3276 126.599 21.6248H125.707C125.113 22.021 123.924 23.1108 123.924 24.2996C123.924 25.4881 123.329 26.1815 123.032 26.3796C123.924 26.7759 126.064 27.6874 127.49 28.1628C129.273 28.7572 132.542 29.9459 134.028 31.1345C135.217 32.0853 135.91 32.5208 136.108 32.6199L140.566 33.8093C141.557 34.1066 143.776 34.7009 144.727 34.7009C145.677 34.701 145.717 35.4932 145.618 35.8894L147.401 36.781L147.995 37.9695H150.373C151.066 38.5638 152.453 40.0495 152.453 41.238C151.502 41.9512 150.076 42.3284 149.481 42.4275C148.986 42.4275 147.877 42.3082 147.401 41.8328C146.926 41.3576 146.609 41.2382 146.51 41.238L145.618 42.4275L147.995 46.8845V48.3708L146.51 49.2625L142.646 50.4509L140.566 48.3708L136.108 46.8845L132.542 44.5076C133.037 43.7151 134.266 41.6546 135.217 39.7527C136.405 37.3754 135.217 37.9694 134.028 36.781C132.344 36.4838 127.965 35.4735 123.924 33.8093C119.882 32.1451 118.673 31.3326 118.574 31.1345C117.881 31.1344 116.316 30.8967 115.603 29.946C114.889 28.9951 113.721 30.3421 113.226 31.1345C110.848 32.1251 105.439 34.2254 102.824 34.7009C100.209 35.1764 100.942 35.6913 101.636 35.8894H96.8809C95.9893 35.8894 87.6676 37.6723 87.0732 37.9695C86.5971 38.2067 84.1016 37.2762 82.9131 36.781H76.6719C75.0077 36.7809 71.6207 36.1866 70.1348 35.8894C68.2526 34.9979 64.4282 33.0954 64.1904 32.6199C63.9569 32.1423 69.8377 28.2612 72.8086 26.3796L91.5312 24.2996L99.5547 21.6248C100.268 21.387 104.211 19.148 106.093 18.0583L107.876 15.3835L110.848 13.3035H116.494L125.707 12.115L134.028 10.6287L140.566 9.73706Z" fill="#131451"/>
<path d="M123.443 34.1758C123.74 34.3739 124.454 34.948 124.93 35.6611C125.405 36.3743 125.128 36.9493 124.93 37.1475C125.029 37.445 125.346 38.8123 125.821 41.9023C126.297 44.9926 125.623 44.3789 125.226 43.6855L122.552 44.2793C120.768 43.6849 116.905 42.6154 115.717 43.0908C114.231 43.6851 111.557 45.1709 110.665 46.0625C109.773 46.954 109.773 46.6571 108.882 47.8457C107.99 49.0344 107.99 49.9263 107.693 52.3037C107.396 54.681 109.179 54.9782 109.476 55.2754C109.775 55.5732 112.151 57.0581 112.745 57.6523C113.22 58.1278 116.113 58.4449 117.5 58.5439C117.896 58.643 118.808 58.9009 119.283 59.1387C119.877 59.4358 121.066 59.7332 121.66 60.0303C122.254 60.3274 124.037 60.9215 124.335 61.2188C124.573 61.4565 125.028 61.7144 125.226 61.8135C125.326 62.507 125.523 64.0128 125.523 64.4883C125.524 65.0828 126.118 66.864 126.415 67.1621C126.653 67.3998 126.713 67.6578 126.713 67.7568L129.09 66.5684C128.793 65.974 128.139 64.6068 127.901 63.8936C127.604 63.002 128.793 62.7044 129.09 62.4072C129.328 62.169 130.378 60.7236 130.873 60.0303C131.368 59.5351 132.359 58.4258 132.359 57.9502C132.359 57.3558 133.548 57.6523 130.576 52.8975C128.199 49.0937 130.18 47.1525 131.468 46.6572C132.954 46.7563 136.044 47.0133 136.519 47.251C136.995 47.4887 138.699 47.9444 139.491 48.1426C139.689 48.7369 140.918 50.5201 144.246 52.8975C148.406 55.8693 147.515 49.6293 148.704 50.2236C149.892 50.818 150.19 51.7092 150.784 52.6006C151.378 53.4921 152.864 54.681 153.756 55.2754C154.647 55.8697 154.945 57.058 155.539 57.6523C156.133 58.2467 158.213 60.3278 158.807 60.625C159.283 60.8626 159.402 61.1196 159.402 61.2188C159.898 61.714 161.007 62.9426 161.482 63.8936C162.077 65.0823 164.157 65.0821 161.482 65.9736C158.808 66.8652 158.51 67.7568 156.727 67.7568H154.647C154.35 67.7568 151.675 68.0541 150.189 68.6484C148.704 69.2426 149.298 68.9458 148.704 69.54C148.11 70.1344 146.921 72.809 146.921 73.4033C146.921 73.9977 146.92 75.7807 146.326 76.375C145.732 76.9694 151.379 77.8614 155.539 78.7529C159.699 79.6444 155.539 79.9415 154.647 80.833C153.934 81.5461 152.17 81.1302 151.378 80.833C150.189 80.8331 147.099 81.1298 144.246 82.3184C140.68 83.8043 143.949 83.2106 143.354 83.5078C142.76 83.8054 141.274 85.8856 137.411 90.3428C133.548 94.8004 133.845 94.2061 133.845 95.0977C133.844 95.811 132.26 97.5737 131.468 98.3662C130.774 100.149 129.09 103.775 127.901 104.013C126.415 104.31 126.416 104.905 125.821 105.499C125.227 106.093 125.523 107.876 125.523 109.064C125.523 110.253 126.712 111.74 127.307 113.226C127.901 114.711 128.495 115.603 128.495 115.9C128.495 116.139 128.892 117.386 129.09 117.98C128.793 118.278 128.08 118.872 127.604 118.872C127.01 118.872 126.118 118.574 125.821 118.277C125.524 117.98 125.227 116.791 124.93 116.494C124.632 116.197 124.335 115.603 124.038 115.009C123.741 114.414 122.849 113.225 122.849 112.928C122.848 112.63 121.364 111.74 121.066 111.442C120.769 111.145 119.283 110.848 117.797 110.254C117.477 110.126 117.265 110.038 117.132 109.979L116.311 110.254C115.42 110.551 113.579 111.145 113.34 111.146H112.15C112.15 110.65 111.14 110.075 107.099 111.739C102.047 113.819 103.83 116.197 103.83 118.574C103.83 120.951 103.235 121.546 103.235 122.438C103.235 123.329 102.938 124.815 102.938 125.707C102.938 126.599 103.829 128.085 104.424 128.382C105.018 128.679 106.801 133.137 107.099 133.137H107.395C108.287 132.74 110.189 131.829 110.665 131.354L110.962 131.056C111.457 130.659 112.507 129.749 112.745 129.273C113.042 128.679 113.042 128.976 113.933 127.787C114.825 126.598 115.123 126.896 115.42 126.896H117.797C118.509 126.896 118.49 127.093 118.391 127.192C118.391 127.49 118.332 128.144 118.095 128.382C117.797 128.679 117.797 130.164 117.797 130.759C117.797 131.353 117.5 131.948 117.203 132.245C116.906 132.542 116.609 133.434 116.311 134.028C116.014 134.623 115.419 135.513 115.122 135.811C114.825 136.108 115.419 137 115.717 137.297C115.954 137.535 117.005 137.198 117.5 137H121.066C121.66 137 121.364 137.297 123.443 139.377C125.107 141.041 123.741 144.826 122.849 146.51L125.226 149.184L126.713 148.887H130.278C130.873 148.887 130.576 148.887 132.061 150.373C133.25 151.562 134.737 147.5 135.331 145.32C136.124 144.825 138.243 143.716 140.383 143.24C142.522 142.765 143.057 143.834 143.057 144.429L143.651 145.32H149.001C150.289 146.311 153.102 148.709 154.053 150.373C154.528 151.324 155.044 151.759 155.242 151.858L159.699 153.642C160.492 153.84 162.255 154.295 162.969 154.533C163.86 154.83 165.048 155.722 165.642 156.316C166.237 156.911 167.426 158.1 167.724 161.963C168.021 165.826 168.02 163.152 168.317 163.746C168.555 164.222 171.983 165.331 173.667 165.826C174.36 165.727 175.984 165.589 176.935 165.826C177.886 166.064 178.125 166.52 178.125 166.718C179.215 167.213 181.988 168.799 184.365 171.176C185.554 172.661 185.851 171.77 187.932 171.77C190.011 171.77 190.308 172.364 190.308 172.661V178.902C190.308 179.378 189.516 180.883 189.12 181.576L187.932 184.846C187.04 186.332 184.841 189.838 183.177 191.978C181.513 194.117 183.275 197.228 184.365 198.516L183.177 201.785C182.186 202.479 179.551 204.162 176.935 205.351C173.667 206.836 175.747 205.945 174.261 207.134C172.775 208.322 174.26 209.808 174.261 210.997C174.261 212.186 173.667 212.78 173.072 213.672C172.478 214.563 170.694 216.05 169.506 217.238C168.317 218.427 165.345 222.291 161.482 226.748C157.619 231.206 163.265 230.612 159.105 232.395C154.945 234.178 156.43 233.286 156.133 233.286C155.836 233.286 155.538 233.286 154.053 233.583C152.567 233.88 153.161 233.583 152.864 233.88C152.567 234.177 151.676 235.366 151.676 236.258C151.675 237.149 149.893 239.527 149.596 239.824C149.298 240.121 148.406 241.904 148.406 242.201C148.406 242.498 148.407 244.579 144.841 249.334C141.275 254.089 142.166 256.169 150.487 258.844C157.143 260.983 156.232 261.518 154.944 261.518C152.468 262.31 146.088 263.598 140.383 262.409C138.897 261.815 140.382 259.735 137.708 258.249C135.033 256.763 136.52 255.574 135.331 251.116C134.142 246.659 135.628 247.253 135.331 244.281C135.034 241.31 137.708 239.229 137.708 236.555V221.398C138.203 219.714 139.432 215.276 140.383 210.997C141.571 205.648 143.354 200.893 140.383 197.327C137.411 193.761 138.897 196.138 136.519 194.652C134.142 193.166 134.736 193.166 133.25 191.978C131.765 190.789 131.764 190.789 130.873 189.304C129.981 187.818 129.981 186.629 129.09 184.846C128.198 183.063 127.307 179.199 126.713 177.119C126.118 175.039 125.82 174.147 125.523 171.77C125.226 169.392 129.089 164.638 129.09 163.746C129.09 162.855 130.279 162.26 130.873 161.071C131.467 159.883 131.765 159.288 131.765 158.693C131.765 158.099 132.062 156.316 131.765 155.722C131.468 155.127 132.061 154.533 131.17 151.858C130.377 151.66 128.495 151.265 127.307 151.265C126.118 151.264 122.255 148.49 120.472 147.104C119.184 146.014 116.549 143.716 116.311 143.24C116.014 142.646 114.528 141.457 111.557 139.08C110.368 138.189 106.801 137.297 103.235 135.514C101.452 134.424 97.6481 132.126 96.6971 131.65C95.5084 131.056 92.8338 129.57 91.9423 128.976C91.0507 128.381 89.5646 127.193 87.1874 125.41C84.8101 123.627 85.107 121.547 84.2157 120.655C83.5025 119.942 82.3341 115.999 81.8387 114.117C81.3435 113.424 79.9365 111.561 78.2723 109.659C76.6081 107.757 71.4369 99.9513 69.0594 96.2861C68.6632 95.7908 67.6926 94.5031 66.9794 93.3145C66.088 91.8288 66.3846 90.9371 66.3846 90.3428C66.3846 89.7855 66.9073 85.0483 66.9725 83.2344L66.9852 82.6377C67.0462 81.2762 67.4991 80.1267 66.3846 78.4551C65.1961 76.6724 64.8988 77.2661 63.413 75.7803C61.9272 74.2944 61.0358 72.5112 59.2528 71.0254C57.4699 69.5395 57.1726 67.1623 56.2811 65.9736C55.3896 64.785 55.3891 63.2993 54.7948 61.8135C54.3193 60.6248 51.4268 58.7427 50.0399 57.9502C49.2475 57.554 47.0685 56.5833 44.6913 55.8701C42.3139 55.1569 37.7565 53.9875 35.7753 53.4922L25.077 54.9785H18.5389C16.3596 54.4832 11.6441 53.4922 10.2177 53.4922C8.79136 53.492 7.64218 52.1055 7.24597 51.4121C6.05724 50.2234 3.62046 47.4298 3.38269 45.7656C3.14496 44.1015 1.89701 44.0812 1.30261 44.2793L14.9725 35.3643C16.7556 34.968 20.5005 34.1758 21.2137 34.1758C22.1055 34.1759 26.563 35.3644 29.8319 36.2559C33.1008 37.1474 36.9639 37.1475 37.5585 37.1475C38.034 37.1475 38.7476 37.3453 39.0448 37.4443L45.285 39.2275L51.5262 37.4443L56.2811 35.3643L63.413 34.4727C70.9395 35.8591 86.0502 38.6313 86.2958 38.6328C86.5334 38.6328 86.9891 39.2271 87.1874 39.5244C87.5837 38.93 88.3759 37.6821 88.3759 37.4443C88.3762 37.2068 88.9703 37.1475 89.2675 37.1475L91.9423 37.4443H96.994C98.1827 37.4443 100.858 38.3356 102.047 38.6328C103.235 38.9298 105.316 36.8502 105.91 36.2559C106.504 35.6616 106.207 35.067 106.504 34.4727C106.742 33.9972 110.169 33.4823 111.853 33.2842C113.141 33.5813 115.716 34.2348 115.717 34.4727C115.717 34.7698 118.39 36.2553 118.688 36.2559C118.926 36.2559 121.562 34.2748 122.849 33.2842L123.443 34.1758ZM440.831 184.549C441.722 184.252 443.208 189.303 445.586 195.544C447.963 201.785 454.798 207.134 455.69 210.105C456.582 213.077 455.987 219.318 455.69 220.21C455.393 221.101 452.422 230.908 450.639 232.691C449.212 234.118 447.864 234.078 447.369 233.88C446.279 233.484 443.089 232.454 439.048 231.503C433.996 230.314 435.184 225.262 434.293 223.776C433.401 222.29 431.916 225.856 430.133 225.262C428.35 224.667 429.241 221.993 424.189 220.805C419.137 219.616 420.029 226.153 415.274 225.262C410.52 224.37 409.33 226.747 406.953 227.342C404.576 227.936 404.872 226.45 402.792 225.262C401.129 224.311 402.693 223.875 403.683 223.776C402.792 219.22 400.831 209.511 400.118 207.134C399.227 204.162 407.249 201.488 409.33 201.19C411.41 200.893 412.599 197.625 412.896 196.139C413.194 194.653 415.274 192.87 417.354 191.384C419.435 189.898 420.326 191.384 422.406 191.384C424.07 191.384 424.883 188.015 425.081 186.331C426.864 185.44 431.618 186.331 433.104 187.223C434.59 188.114 431.619 190.195 430.727 191.384C429.836 192.572 437.264 196.138 439.048 196.139C440.831 196.139 439.94 184.849 440.831 184.549ZM451.53 21.0996C451.549 21.118 452.726 22.2931 453.61 22.8828C454.503 23.4767 462.169 21.6943 463.12 21.6943C464.309 21.6949 467.28 24.666 468.172 24.666C469.063 24.666 469.955 23.7745 473.818 24.666C476.909 25.3792 478.474 25.3588 478.87 25.2598C479.464 24.7645 480.891 23.596 481.842 22.8828C483.03 21.9913 491.649 24.666 493.432 24.666C495.215 24.6674 495.809 32.3916 493.432 32.3926C491.531 32.3926 491.451 32.987 491.649 33.2842C492.739 34.7701 494.442 37.6224 492.541 37.1475C490.163 36.5531 484.814 39.5248 478.276 41.0107C471.738 42.4966 472.629 41.6051 470.847 43.0908C469.063 44.5767 470.549 44.8741 471.143 46.6572C471.738 48.4402 470.846 49.3316 469.955 50.8174C469.063 52.3032 468.766 51.4121 465.795 54.6807C462.823 57.9496 464.606 57.356 462.228 59.7334C459.851 62.1103 460.148 51.71 459.85 49.332C459.553 46.9546 466.388 43.982 469.36 42.4961C472.332 41.0102 472.629 36.2558 472.035 36.5527C471.441 36.8499 469.063 38.6328 468.172 39.5244C467.28 40.4159 466.983 40.1192 466.389 38.9307C465.794 37.7419 464.308 38.6335 462.822 38.9307C461.336 39.2282 458.96 41.6048 459.257 43.3877C459.554 45.1707 456.285 45.1712 452.719 44.874C449.153 44.5769 443.209 45.4681 441.426 46.0625C439.643 46.6569 435.779 51.1151 433.401 54.0869C431.024 57.058 432.807 56.1671 433.996 56.167H433.997C435.185 56.167 436.077 56.1672 437.266 55.8701C438.454 55.5736 439.345 59.1384 438.751 61.5156C438.156 63.8931 438.751 66.5681 438.751 67.7568C438.751 68.9456 432.51 77.8608 430.133 80.2383C427.755 82.6157 429.241 79.3468 425.675 81.1299C422.109 82.9128 424.784 82.0217 424.189 83.8047C423.595 85.5876 423.594 84.9936 421.811 86.4795C420.029 87.9648 419.731 87.3708 419.731 87.9648C419.731 88.5592 422.406 91.531 423.298 92.7197C424.189 93.9084 423.297 94.2062 422.703 96.8809C422.227 99.0199 419.731 98.168 418.543 97.4746L417.651 91.5312L412.896 88.8564L412.302 86.4795L406.953 92.7197H410.519L412.896 94.5029L409.33 97.4746V100.446L412.302 104.607V110.254L408.438 118.277L406.358 120.061L404.873 123.627L399.226 125.707L395.957 128.084L395.363 126.301L391.5 128.084L390.014 132.245L391.5 134.622L395.363 138.485V145.023C393.679 146.41 390.251 149.183 390.014 149.184C389.776 149.184 388.726 149.58 388.23 149.778L387.339 147.104L385.259 142.943H381.692L381.099 148.59L383.179 153.345L386.745 158.693L387.339 161.368H385.853L383.179 158.693L381.099 153.345L378.127 149.778L379.612 143.537L377.532 136.108L373.074 137V130.164L369.508 126.301L363.564 128.084L356.432 136.108L353.163 138.485L354.055 142.052L352.271 144.132L352.866 149.184L349.003 150.967L344.843 138.783L343.356 127.49L341.276 129.57L333.847 120.952H328.795C328.557 120.952 324.535 120.358 322.554 120.061L319.879 117.98H316.907L313.935 116.197L311.855 112.928L308.884 113.522L307.1 115.603L310.964 118.277L313.044 120.061L313.935 123.329L316.61 122.438L319.879 120.061L321.068 123.032L324.634 126.301L321.96 132.839L307.695 140.565L302.346 142.349L298.779 132.245L295.511 125.707L289.567 115.603L286.595 115.009L294.322 133.73L300.562 142.052L301.751 146.807L312.747 144.132L313.639 146.807L306.506 158.991L299.968 165.529L295.213 175.336L297.888 183.954L297.294 191.978L289.567 198.219L291.647 206.242C290.459 207.431 287.903 209.868 287.189 210.105C286.476 210.343 286.892 213.177 287.189 214.563L280.949 222.29L277.68 225.262L274.113 225.856L266.387 225.262L265.793 221.102L261.335 211.295L260.146 202.379L256.58 194.355L258.66 178.011L257.472 176.821V173.85L254.202 170.581C254.182 170.564 252.711 169.323 252.717 166.718C252.723 164.094 254.664 164.13 255.094 163.448C255.523 162.766 255.094 158.991 254.202 158.1C253.31 157.208 250.339 157.505 250.339 157.505L247.665 156.316C247.665 156.316 247.664 154.533 245.287 154.533C242.916 154.533 235.524 157.487 235.48 157.505H229.537L225.376 154.533C225.348 154.525 222.743 153.699 221.513 151.562C220.275 149.413 222.098 148.499 221.513 146.807C220.927 145.114 219.432 146.51 219.432 146.51L217.055 144.429C217.041 144.389 216.237 142.023 216.237 138.729C216.237 135.436 217.041 133.176 217.055 133.137C217.055 133.137 214.935 130.263 214.934 128.309C214.934 126.366 217.91 122.779 217.946 122.735L222.701 113.226L231.319 102.229C231.319 102.229 233.398 100.446 235.776 100.446H239.047C243.899 99.456 253.721 97.4165 254.202 97.1777C256.877 96.53 256.283 103.121 256.58 104.904C256.877 106.687 265.793 109.065 267.576 110.551C269.359 112.036 268.467 109.659 269.061 107.579C269.656 105.5 275.892 108.765 275.896 109.064C275.896 109.362 284.217 109.956 288.378 109.659C292.538 109.362 291.647 100.446 291.944 99.5547C292.239 98.6639 280.95 100.446 279.166 101.338C277.383 102.229 277.68 95.692 277.68 93.3145C277.68 90.937 273.222 89.154 275.005 94.2061C276.788 99.2579 277.679 97.4748 275.896 99.2578C274.113 101.041 273.222 96.584 271.439 96.2861C269.656 95.989 268.17 93.6119 268.467 92.126C268.704 90.9373 267.972 89.6486 267.576 89.1533C265.496 87.0731 261.037 82.7347 259.849 82.0215C258.363 81.1303 258.66 82.3187 258.066 82.9131C257.591 83.3886 258.066 83.9034 258.363 84.1016C261.038 86.4789 266.446 91.5309 266.684 92.7197C266.982 94.2056 262.227 98.6629 261.335 98.6631C260.443 98.6631 258.067 96.8809 258.066 95.9893C258.066 95.0977 261.335 97.1773 262.821 95.6914C264.009 94.5029 263.316 93.2151 262.821 92.7197C260.047 89.847 254.322 83.9232 253.608 83.21C252.717 82.3185 252.122 83.8045 250.933 84.9932C249.745 86.1818 248.853 86.1818 246.773 84.9932C245.109 84.0423 245.089 84.5969 245.287 84.9932C245.386 85.6865 245.465 87.2515 244.99 87.9648C244.396 88.8564 242.316 89.4512 241.127 90.3428C239.938 91.2343 240.83 93.0173 240.235 94.2061C239.641 95.3948 237.857 97.475 234.886 98.0693C231.914 98.6635 231.914 97.1779 230.725 95.9893C229.537 94.8006 228.348 96.2858 227.159 95.6914C225.971 95.0966 227.159 90.0454 227.159 86.4795C227.159 83.6266 228.348 83.7053 228.942 84.1016C231.617 84.2006 237.204 84.3393 238.155 84.1016C239.343 83.8037 239.047 79.9421 239.047 78.7529C239.047 77.5642 233.4 75.4833 233.4 74.5918C233.401 73.7005 236.668 73.9972 236.966 73.7002C237.263 73.403 237.56 72.2145 238.452 72.5117C239.344 72.8089 242.315 72.5116 242.315 71.6201C242.315 70.7287 243.207 70.4309 245.584 70.1338C247.961 69.8366 246.476 68.3511 246.773 66.8652C247.071 65.3795 251.528 65.6767 252.717 64.7852C253.905 63.8938 251.826 60.6256 251.528 59.7334C251.231 58.8419 254.202 58.2471 255.688 58.2471C257.174 58.2471 254.796 61.8129 254.202 63.2988C253.608 64.7846 258.065 65.082 259.849 66.2705C261.632 67.4592 265.792 65.974 268.17 65.6768C270.547 65.3796 270.25 64.4879 271.141 61.8135C272.033 59.139 272.627 60.6246 274.113 60.9219C275.599 61.2191 273.816 59.4358 273.816 58.2471C273.816 57.0584 280.651 57.6528 281.246 56.167C281.84 54.6811 272.925 55.5727 271.141 57.0586C269.359 58.5438 271.141 52.8979 270.25 51.4121C269.358 49.9262 274.411 46.954 276.491 45.1709C278.155 43.7447 274.212 44.1809 272.033 44.5771C270.151 46.1622 266.09 49.9264 264.901 52.3037C263.415 55.2755 266.981 55.5727 266.387 57.0586C265.792 58.5447 262.821 62.7049 260.443 63.8936C258.066 65.082 258.957 61.2206 258.066 60.625C257.175 60.0307 256.58 57.0588 256.283 54.9785C255.986 52.8983 254.797 55.5727 252.717 57.0586C250.637 58.5444 251.231 56.1668 248.557 55.5723C245.882 54.9779 248.556 51.1153 248.557 49.332C248.557 47.549 250.339 48.7375 252.717 47.5488C255.094 46.3601 258.957 43.0911 261.632 39.8223C264.306 36.5534 266.684 38.3362 270.25 36.8506C273.816 35.3648 277.976 35.9587 279.76 36.2559C281.543 36.553 297.294 42.1997 297.591 44.5771C297.888 46.9541 295.807 45.7657 291.647 45.7656C287.487 45.7656 290.161 48.4406 292.241 50.2236C294.321 52.0066 299.373 50.5207 297.294 49.332C295.63 48.3811 296.6 47.7469 297.294 47.5488C299.176 48.1431 302.762 48.6775 302.049 46.0625C301.336 43.4474 302.346 42.9918 302.94 43.0908L307.1 45.7656C313.044 44.9731 325.704 43.3286 328.795 43.0908C332.658 42.7937 330.578 43.3882 333.55 44.874C336.521 46.3598 337.71 45.4684 338.305 44.874C338.898 44.2798 336.522 43.982 335.333 43.3877C334.144 42.7933 335.332 41.0104 335.035 40.416C334.739 39.8212 338.008 37.7415 341.573 37.4443C345.139 37.1472 342.464 37.7417 342.762 40.1191C343.059 42.4962 343.653 44.5761 343.653 45.1709C343.653 45.7653 343.059 46.9545 341.573 48.4404C340.088 49.926 342.465 48.7376 344.248 48.4404C346.031 48.1433 345.734 45.1719 346.031 44.5771C346.328 43.9828 345.139 41.0107 344.248 40.1191C343.535 39.4059 347.121 38.2375 349.003 37.7422C350.885 37.8413 354.887 38.2766 355.838 39.2275C357.026 40.4162 357.918 39.8219 358.809 39.2275C359.701 38.6332 356.73 37.4443 354.649 36.5527C352.569 35.6613 358.214 35.3645 359.998 35.0674C361.424 34.8297 363.762 32.9874 364.753 32.0957C366.833 31.5013 371.351 30.3125 372.777 30.3125C374.56 30.3124 381.098 28.2316 384.07 26.1514C386.447 24.4874 387.636 24.0713 387.933 24.0713C391.5 24.1704 398.988 24.4874 400.415 24.9629C402.198 25.5572 400.415 26.4494 399.82 28.2324C399.228 30.0146 407.547 27.9352 412.302 27.3408C417.057 26.7465 414.977 25.8544 415.571 24.9629C416.166 24.0715 420.326 24.3686 422.109 24.9629C423.892 25.5572 419.435 26.4486 422.109 27.043C424.784 27.6373 425.675 28.5288 426.566 27.043C427.28 25.8543 428.251 25.7554 428.647 25.8545C431.025 25.3592 436.077 24.309 437.266 24.0713C438.751 23.774 437.86 22.5856 439.048 21.9912C439.999 21.5157 447.766 21.1987 451.53 21.0996ZM309.775 186.629C311.261 184.846 311.261 190.788 310.667 191.978C310.073 193.166 310.667 193.761 309.775 199.407C308.884 205.053 308.289 206.837 307.695 208.025C307.101 209.214 304.723 210.106 303.237 209.809C301.751 209.511 301.454 204.758 301.454 203.568C301.454 202.38 302.346 202.677 302.94 201.785C303.535 200.894 303.237 196.435 302.94 194.652C302.643 192.869 304.723 194.058 307.1 191.978C309.002 190.313 309.676 187.719 309.775 186.629ZM429.538 166.718L429.836 167.609L430.43 168.798L431.024 169.393C431.519 169.294 432.629 168.976 433.104 168.501C433.58 168.025 433.897 167.51 433.996 167.312L437.562 168.501L439.346 170.581C440.237 170.68 442.555 171.116 444.694 172.066C446.834 173.017 445.785 173.256 444.992 173.256C445.587 173.553 446.834 174.147 447.072 174.147C447.31 174.148 447.567 174.94 447.666 175.336L447.964 176.821L450.639 180.388C451.233 180.685 452.599 181.458 453.312 182.171C454.204 183.062 453.907 183.657 450.639 183.657H449.747C448.855 183.162 446.894 181.993 446.181 181.279C445.289 180.388 446.18 180.388 445.586 179.199C444.992 178.011 444.695 179.793 444.1 180.388C443.625 180.863 443.109 181.775 442.911 182.171H439.939C438.157 182.171 438.454 181.279 438.454 180.685C438.453 180.091 437.265 180.388 435.779 180.388H433.104C433.6 180.19 434.709 179.675 435.184 179.199C435.779 178.605 435.184 177.118 435.184 176.821C435.184 176.584 434.789 176.327 434.591 176.228C434.294 175.831 433.58 175.039 433.104 175.039C432.51 175.039 432.213 174.148 431.619 174.147C431.025 174.147 430.727 173.256 427.756 173.256C427.161 173.553 427.756 172.364 427.756 170.878V169.986C427.062 169.491 425.616 168.144 425.378 166.718L426.269 166.123H427.756L429.538 166.718ZM409.925 179.794H412.302C412.698 179.794 413.55 179.734 413.788 179.496C414.086 179.199 415.571 179.496 416.463 179.496H418.543C419.137 179.496 419.434 179.794 419.731 180.091C419.969 180.329 419.83 180.388 419.731 180.388C419.236 180.883 418.186 181.874 417.948 181.874C417.65 181.875 415.571 182.765 414.383 183.062C413.432 183.3 413.193 182.964 413.193 182.766C413.788 182.171 415.037 180.863 415.274 180.388C415.512 179.913 415.373 179.992 415.274 180.091C414.482 180.091 412.838 180.15 412.599 180.388C412.302 180.685 410.816 180.685 410.222 180.982C409.627 181.279 409.33 180.983 408.736 180.982C408.261 180.982 409.133 179.794 409.628 179.199L409.925 179.794ZM407.547 179.496C408.26 179.258 408.241 179.991 408.141 180.388L407.547 180.685C407.051 180.883 405.942 181.279 405.467 181.279C404.991 181.279 404.08 180.685 403.683 180.388L404.278 179.496C404.773 179.595 406.12 179.734 407.547 179.496ZM391.202 175.931L392.688 176.524L394.472 177.119L396.552 177.713C397.344 177.812 399.167 178.011 400.118 178.011C401.069 178.011 401.504 178.803 401.603 179.199L402.198 180.388V180.685H400.118C399.623 180.586 398.512 180.388 398.037 180.388C397.442 180.387 395.362 179.794 395.065 179.794C394.767 179.794 392.985 179.496 392.391 179.199C391.796 178.902 391.202 178.604 390.014 177.713C388.825 176.821 389.419 176.822 389.122 176.524C388.885 176.287 389.815 175.831 390.31 175.633H390.608L391.202 175.931ZM417.057 162.557C417.354 162.557 417.948 163.448 415.868 164.34C413.788 165.231 414.976 164.638 414.383 164.935C413.788 165.232 413.193 164.637 411.41 165.231C409.628 165.826 410.519 166.717 410.816 167.312C411.113 167.906 411.708 167.015 412.599 166.421C413.491 165.827 413.491 166.421 413.788 166.421C414.026 166.421 414.284 167.014 414.383 167.312C414.284 167.411 413.966 167.609 413.491 167.609C412.897 167.609 413.193 167.907 412.302 168.501L411.708 169.095C411.411 169.392 412.302 169.69 412.599 170.284C412.897 170.878 413.194 171.472 413.491 171.77C413.788 172.067 414.085 173.256 414.085 175.039C414.084 176.821 411.707 172.959 411.41 172.364C411.113 171.77 411.411 171.769 410.816 169.986C410.222 168.204 410.519 170.878 410.519 171.77V175.633C410.519 176.524 408.438 175.336 408.438 174.741C408.438 174.147 408.736 173.849 408.736 172.958C408.736 172.067 408.142 170.878 408.141 170.581C408.141 170.343 407.745 169.491 407.547 169.095C408.141 168.302 409.39 166.659 409.628 166.421C409.866 166.183 409.925 164.34 409.925 163.448H412.302L413.193 163.746C413.49 163.647 414.204 163.448 414.68 163.448C415.274 163.448 416.759 162.557 417.057 162.557ZM375.452 155.425C375.214 153.999 376.343 155.028 376.937 155.722C377.433 156.217 378.72 157.565 379.909 158.991C381.395 160.774 381.098 160.18 381.692 160.477C382.287 160.774 382.584 161.666 383.179 161.963C383.654 162.201 383.971 162.854 384.07 163.151C384.367 163.548 385.021 164.459 385.259 164.935C385.556 165.529 386.448 166.42 386.745 167.015C387.042 167.609 387.933 168.501 388.23 168.798C388.468 169.036 389.122 170.086 389.419 170.581C389.617 170.977 390.013 171.828 390.014 172.066V173.553L389.419 174.444L388.23 175.336H387.339L382.584 167.312L377.829 161.071C377.136 159.387 375.69 155.901 375.452 155.425ZM404.873 152.75C405.467 151.562 406.952 153.345 407.547 154.236C408.022 154.95 407.745 155.92 407.547 156.316C407.249 156.515 406.537 157.208 406.061 158.396C405.586 159.585 406.259 160.873 406.655 161.368V163.746C406.655 164.637 405.764 165.232 404.873 167.609C403.981 169.987 404.575 169.69 404.278 170.581C403.981 171.473 403.981 171.77 402.792 172.661C401.603 173.552 401.306 172.364 399.82 171.77C398.335 171.175 398.037 171.472 395.363 169.986C392.689 168.5 394.768 167.906 393.877 166.123C392.985 164.34 393.58 165.232 397.145 161.666L399.82 158.991L404.873 152.75ZM420.623 166.421C420.622 166.659 420.226 167.114 420.028 167.312L421.811 169.095C422.406 169.689 422.703 170.581 422.406 170.581C422.168 170.581 421.118 170.779 420.623 170.878L420.028 170.284L419.434 169.095L418.84 166.421L420.028 164.935H420.623V166.421ZM409.628 131.65C409.529 131.353 409.628 130.937 410.816 131.65C412.302 132.542 410.816 132.542 410.816 133.434C410.816 134.325 410.816 135.217 411.113 136.108C411.41 137 412.302 137.594 412.302 137.892C412.302 138.189 413.194 139.08 413.788 140.269C414.382 141.457 414.085 141.161 414.085 141.755V144.727C414.085 145.618 415.571 145.618 416.463 145.915C417.176 146.153 417.156 146.609 417.057 146.807C417.552 147.797 418.602 150.076 418.84 151.265C419.137 152.75 418.84 153.047 418.84 153.642C418.84 154.236 418.543 154.236 416.463 153.642C414.383 153.047 416.76 153.047 415.571 152.75C414.382 153.047 412.599 152.75 412.302 151.858C412.064 151.146 412.797 151.166 413.193 151.265C413.292 150.571 413.431 149.124 413.193 148.887C412.896 148.59 412.599 148.292 411.113 146.51C409.627 144.727 411.41 144.429 411.113 141.755C410.816 139.08 410.816 139.971 409.628 138.485C408.677 137.297 409.232 133.433 409.628 131.65ZM313.183 84.7295C312.587 84.0965 311.616 83.9332 310.888 84.0488C310.013 84.1517 308.724 84.4163 307.753 84.9004C307.275 85.1388 306.787 85.4725 306.506 85.9453C306.19 86.4772 306.191 87.0916 306.535 87.6934L306.626 87.8623C307.059 88.7004 307.125 89.489 307.232 90.4863C307.346 91.5502 307.507 92.7707 308.314 94.2246L308.423 94.4346C308.645 94.8936 308.652 95.1523 308.63 95.293C308.601 95.4743 308.518 95.5866 308.342 95.8506C308.184 96.0873 307.901 96.5295 308.099 97.123C308.259 97.605 308.705 98.0623 309.375 98.583L310.457 99.4258C311.621 100.327 312.984 101.346 314.141 101.982C314.532 102.197 314.919 102.38 315.281 102.5C315.633 102.617 316.02 102.695 316.389 102.642C316.795 102.582 317.158 102.362 317.372 101.955C317.539 101.637 317.587 101.257 317.568 100.857L317.556 100.685C317.408 99.0564 317.329 98.5458 317.158 97.9893C317.019 97.5377 316.842 97.1166 316.505 95.8389L316.35 95.2363C316.15 94.4339 316.247 94.0529 316.34 93.8711C316.438 93.6803 316.59 93.5763 316.84 93.4229C316.933 93.3655 317.134 93.2484 317.277 93.0859C317.361 92.9906 317.448 92.8575 317.489 92.6846C317.531 92.509 317.515 92.34 317.469 92.1914C317.386 91.9262 317.196 91.6947 317.002 91.4951C316.898 91.3879 316.773 91.271 316.628 91.1436L316.125 90.7256C315.346 90.1021 314.644 89.6728 314.06 89.3496C313.437 89.0045 313.062 88.8345 312.766 88.6436C312.643 88.5638 312.59 88.513 312.569 88.4883C312.57 88.4812 312.572 88.4715 312.575 88.46C312.584 88.4267 312.601 88.3778 312.632 88.3115C312.695 88.1753 312.805 87.9937 312.979 87.749L313.126 87.5332C313.448 87.0317 313.632 86.5487 313.661 86.0879C313.696 85.54 313.509 85.0751 313.183 84.7295ZM285.817 81.7705C285.413 81.6249 284.945 81.5861 284.407 81.6758L284.357 81.6846L284.308 81.7002C283.362 82.0156 281.993 82.6635 280.968 83.6074C279.938 84.5551 279.138 85.9318 279.742 87.5928L279.956 88.1758C280.456 89.5063 280.978 90.6267 282.05 91.3018C283.262 92.0649 285.034 92.1784 287.851 91.8818L288.814 91.7871C290.836 91.6074 291.357 91.6955 291.75 91.8184C291.947 91.8801 292.337 92.0405 292.807 92.1582C293.321 92.2866 294.031 92.4016 295.17 92.4775L295.585 92.501C296.521 92.5399 297.235 92.4822 297.771 92.3359C298.394 92.166 298.864 91.8487 299.081 91.3418C299.283 90.8695 299.194 90.3884 299.099 90.0586C299.048 89.8849 298.985 89.7202 298.932 89.584L298.803 89.2451C298.681 88.8797 298.354 88.44 297.96 88.0264C297.544 87.5901 296.984 87.111 296.309 86.6748C295.048 85.859 293.344 85.1645 291.395 85.2148L291.003 85.2354C289.185 85.3751 288.435 84.9462 288.096 84.6064C287.915 84.4255 287.805 84.2271 287.721 84.0342C287.664 83.9063 287.654 83.87 287.598 83.7363C287.568 83.6668 287.492 83.4836 287.352 83.3438L287.37 83.3623C287.368 83.3587 287.357 83.3446 287.34 83.3145C287.305 83.2546 287.273 83.1939 287.216 83.0898C287.113 82.9038 286.964 82.6452 286.745 82.4023C286.522 82.1542 286.221 81.9162 285.817 81.7705ZM204.573 0C205.465 0 206.654 0.297368 206.059 2.6748C204.158 3.38804 204.673 3.76422 205.168 3.86328L206.654 5.05176L209.031 4.45801C210.715 4.06177 214.202 3.20942 214.678 2.97168C215.272 2.67457 215.272 3.26933 221.216 4.45801C225.97 5.40898 222.206 6.83534 219.729 7.42969H216.758C215.965 8.51948 214.261 10.9959 213.786 12.1846C213.192 13.6704 211.706 15.1564 211.111 16.0479C210.517 16.9393 209.328 18.1281 205.763 20.208L206.654 24.9629L207.248 26.4492L205.763 28.5293C204.178 29.3218 200.353 31.2039 197.738 32.3926C194.469 33.8784 195.955 34.7695 194.172 34.7695H192.39C190.805 35.4629 187.337 36.8506 186.148 36.8506C184.96 36.8506 183.672 42.0016 183.177 44.5771V49.332H175.45L171.289 47.5488L167.724 42.7939L166.237 36.8506L169.209 34.7695V32.3926L164.752 28.5293L162.374 23.7744C160.987 22.6848 157.975 20.4458 157.024 20.208C155.834 19.9112 149.297 21.0993 142.166 18.1279C136.46 15.7505 144.543 12.1842 149.298 10.6982H152.567L155.242 9.50977C156.332 9.31163 158.748 8.8559 159.699 8.61816C160.888 8.32098 162.374 8.02374 164.752 7.72656C167.129 7.42958 170.398 8.61776 169.209 8.02344C168.021 7.42914 168.318 6.83524 168.912 6.53809C169.387 6.30034 171.091 6.43903 171.884 6.53809C174.36 6.63715 178.778 6.47822 176.639 5.05176C173.964 3.26879 175.747 4.45725 180.502 3.26855C185.256 2.0799 186.148 1.48619 188.228 0.594727C189.892 -0.118451 192.884 0.297551 194.172 0.594727L198.333 0H204.573ZM141.869 7.13184C143.553 7.32997 147.099 7.72656 147.812 7.72656C148.525 7.72668 149.1 8.32096 149.298 8.61816L143.057 11.5898L136.519 13.9678L134.736 14.8594L133.845 15.4531L130.873 16.9395C130.477 17.3357 129.506 18.1278 128.793 18.1279C128.08 18.1279 127.901 18.7223 127.901 19.0195H127.01C126.415 19.4158 125.226 20.5056 125.226 21.6943C125.226 22.8829 124.632 23.5763 124.335 23.7744C125.226 24.1707 127.366 25.0821 128.793 25.5576C130.576 26.152 133.845 27.3407 135.331 28.5293C136.519 29.4801 137.213 29.9156 137.411 30.0146L141.869 31.2041C142.86 31.5013 145.078 32.0957 146.029 32.0957C146.98 32.0958 147.02 32.888 146.921 33.2842L148.704 34.1758L149.298 35.3643H151.676C152.369 35.9586 153.755 37.4442 153.756 38.6328C152.805 39.346 151.378 39.7232 150.784 39.8223C150.289 39.8223 149.18 39.7029 148.704 39.2275C148.229 38.7524 147.912 38.633 147.812 38.6328L146.921 39.8223L149.298 44.2793V45.7656L147.812 46.6572L143.949 47.8457L141.869 45.7656L137.411 44.2793L133.845 41.9023C134.34 41.1099 135.568 39.0494 136.519 37.1475C137.708 34.7702 136.52 35.3641 135.331 34.1758C133.647 33.8786 129.268 32.8683 125.226 31.2041C121.185 29.5399 119.976 28.7274 119.877 28.5293C119.183 28.5292 117.618 28.2915 116.905 27.3408C116.192 26.3899 115.023 27.7368 114.528 28.5293C112.151 29.5199 106.742 31.6202 104.127 32.0957C101.512 32.5712 102.245 33.0861 102.938 33.2842H98.1835C97.2919 33.2842 88.9702 35.0671 88.3759 35.3643C87.8997 35.6015 85.4042 34.671 84.2157 34.1758H77.9745C76.3103 34.1757 72.9233 33.5814 71.4374 33.2842C69.5552 32.3926 65.7308 30.4901 65.493 30.0146C65.2594 29.5371 71.1403 25.656 74.1112 23.7744L92.8339 21.6943L100.858 19.0195C101.573 18.7811 105.514 16.5426 107.395 15.4531L109.179 12.7783L112.15 10.6982H117.797L127.01 9.50977L135.331 8.02344L141.869 7.13184Z" fill="#4B82CA"/>
<path d="M255.071 115.378L270.238 113.759L275.113 116.458L279.988 120.236L283.238 123.475V126.714L288.655 137.51L292.447 143.988L296.781 148.306L298.947 154.244L296.781 160.182L290.28 166.66V179.615L288.655 183.933L285.947 192.57V200.667L277.28 208.764L271.863 213.083L268.071 210.384L265.904 203.906L261.029 190.951L265.904 179.615L261.029 162.341L257.779 154.244C256.154 151.905 252.687 147.119 251.82 146.687C250.954 146.255 245.681 144.708 243.153 143.988L230.695 148.306L222.569 143.988L220.402 137.51L222.569 125.095L228.528 115.378L235.028 109.44L243.153 107.821L249.112 111.06L255.071 115.378Z" fill="#53AADD"/>
<path d="M292.049 112.7L294.072 107.821L296.781 105.122H298.947L301.656 107.821V109.44V115.378L305.989 118.077L310.864 121.856V128.873L309.239 131.032H305.989L301.656 128.873L298.947 120.236L296.781 118.077L292.049 112.7Z" fill="#53AADD"/>
<path d="M341.741 46.823L343.907 44.6638H349.866H353.116L372.617 45.7434L395.368 46.823L398.076 52.7608V55.9997C398.076 56.5395 399.702 60.3181 399.702 61.3977C399.702 62.2614 403.313 66.4359 405.118 68.4152V70.0346L403.493 75.9724L400.785 78.6714L395.368 82.9899C394.285 83.8896 392.226 86.1208 392.66 87.8481L395.368 98.6442L396.993 101.883L398.076 109.44L387.243 121.856H383.451H379.117L375.867 118.077C374.784 117.537 371.75 116.458 368.283 116.458C364.817 116.458 365.394 115.738 366.117 115.378C365.394 115.378 363.191 115.594 360.158 116.458C357.125 117.321 356.005 117.897 355.825 118.077C355.644 118.797 355.066 120.56 354.199 121.856C353.333 123.151 351.672 121.316 350.949 120.236L349.866 118.077C348.602 116.638 345.641 113.435 343.907 112.139C342.174 110.844 338.129 108.721 336.324 107.821H331.99C330.907 107.821 329.823 106.201 326.573 105.122C323.323 104.042 326.032 99.9202 324.948 98.8406C323.865 97.761 324.407 96.1416 322.24 94.5222C320.073 92.9028 321.156 88.5844 321.156 86.4251C321.156 84.6978 318.99 85.6889 316.823 82.9899C314.656 78.7685 316.823 76.0804 316.823 74.353V65.7161V61.3977C319.712 59.0586 325.707 54.3802 326.573 54.3802L341.741 46.823Z" fill="#53AADD"/>
<path d="M265.363 70.0346C265.363 68.739 272.054 68.468 272.054 68.468L278.82 67.8754L283.695 61.3977L286.596 60.5911L288.655 59.2385H291.364H294.072C295.336 58.5187 298.081 56.8633 298.947 55.9997C299.814 55.136 302.92 53.4806 304.364 52.7608L307.614 51.6812C308.698 51.6812 311.189 51.8971 312.489 52.7608C313.79 53.6245 313.753 54.2003 313.573 54.3802L312.489 59.2385L305.989 65.7161L301.656 70.0346C300.572 71.1142 300.031 72.1938 297.864 73.2734C296.13 74.1371 294.614 75.7925 294.072 76.5122H290.28L283.238 74.353C282.155 74.7129 279.23 75.8645 276.196 77.5918C273.163 79.3192 274.21 80.4708 275.113 80.8307L272.946 84.6093L266.988 85.6889L265.363 82.9899L263.196 80.8307H256.154C251.82 82.2701 243.153 85.2571 243.153 85.6889C243.153 86.2287 240.445 85.1491 240.445 82.9899C240.445 81.2625 246.223 78.6714 249.112 77.5918L251.82 79.2113L257.779 77.5918C260.307 75.6126 265.363 71.3301 265.363 70.0346Z" fill="#53AADD"/>
<path d="M279.362 47.9026V44.124H282.612H283.695L284.779 46.823V47.9026V49.522L283.695 51.1414C283.334 51.1414 282.287 51.3573 280.987 52.221C279.687 53.0847 279.001 52.9408 278.82 52.7608L277.737 52.221L279.362 47.9026Z" fill="#53AADD"/>
<path d="M304.906 72.7336L309.239 70.0346H311.406L312.489 71.654V74.353L311.406 75.9724L309.239 76.5122H306.531H304.906V72.7336Z" fill="#53AADD"/>
<path d="M295.155 96.1416L296.781 94.5222H298.947L300.572 96.1416L304.906 98.3008V104.239L302.197 103.159L298.947 102.619C297.683 101.9 295.155 100.244 295.155 99.3804V96.1416Z" fill="#53AADD"/>
<path d="M313.573 107.281L315.74 106.201L316.823 107.281L320.615 109.44L322.24 111.06V112.139V113.759H318.99L314.656 111.06L313.573 109.44V107.281Z" fill="#53AADD"/>
<path d="M132.107 168.819L138.066 155.863L145.65 153.164H146.733C148.177 154.064 151.175 156.727 151.608 160.182C152.041 163.637 152.872 165.94 153.233 166.66C156.122 168.459 161.9 172.382 161.9 173.677C161.9 174.973 166.309 178.175 170.462 179.615L175.878 183.933L178.045 190.951V194.19C177.503 195.269 175.987 198.076 174.253 200.667C172.52 203.258 169.198 205.346 167.753 206.065L164.503 217.401L151.608 227.96L142.941 224.181V215.004L146.733 200.667L145.65 190.951C142.219 187.172 135.032 179.615 133.732 179.615C132.432 179.615 132.107 172.417 132.107 168.819Z" fill="#53AADD"/>
<path d="M138.066 76.5122L132.107 72.3018L122.899 74.864L121.274 70.3801L115.857 65.2915L111.523 62.0527H105.023V60.131C102.495 59.2313 104.889 58.1585 103.783 55.0064C101.86 49.522 95.2728 53.3006 94.1894 53.3006C93.3227 53.3006 86.6058 54.0204 83.3556 54.3802H79.5637L76.8553 59.2385C77.3969 60.498 78.697 63.341 79.5637 64.6365C80.4304 65.9321 83.175 70.9342 84.4389 73.2734V79.7511C83.175 81.7303 80.5387 86.0128 80.1054 87.3083C79.5637 88.9277 76.8553 92.1666 76.8553 93.2462V97.5646V104.042C76.8553 105.338 77.9386 109.62 78.4803 111.6L81.7304 114.838C82.2721 115.378 92.5642 120.071 93.1059 121.69C93.5393 122.986 94.731 124.749 95.2727 125.469H96.8977C97.7644 125.469 98.6723 122.684 99.9363 120.344L96.8977 114.838C96.8977 112.658 96.356 109.116 98.5228 107.821C101.231 106.201 101.773 106.201 103.398 106.201H109.357H112.607L116.94 101.883C116.94 103.179 119.829 103.143 121.274 102.963L122.899 101.883C126.69 99.0041 130.807 90.8926 132.107 89.5971C133.407 88.3016 137.023 83.8104 136.481 82.5508L138.066 76.5122Z" fill="#53AADD"/>
<path d="M190.61 43.5842V37.6463L192.235 36.5667H194.943L198.193 34.9473H199.818L206.86 33.8677H207.944C210.291 34.5874 215.202 36.1349 216.069 36.5667C216.936 36.9985 216.43 37.4664 216.069 37.6463C216.25 38.7259 216.502 41.1011 216.069 41.9647C215.527 43.0444 214.986 43.5842 213.361 44.6638C211.736 45.7434 210.652 46.2832 209.569 46.2832C208.485 46.2832 205.777 47.3628 203.61 47.9026C201.877 48.3344 199.277 49.8819 198.193 50.6016L190.61 49.522V43.5842Z" fill="#53AADD"/>
</svg>
