<svg width="258" height="258" viewBox="0 0 258 258" fill="none" xmlns="http://www.w3.org/2000/svg">
<mask id="mask0_13_1304" style="mask-type:alpha" maskUnits="userSpaceOnUse" x="0" y="0" width="258" height="258">
<circle cx="129" cy="129" r="129" fill="url(#paint0_linear_13_1304)"/>
</mask>
<g mask="url(#mask0_13_1304)">
<circle cx="129.5" cy="129" r="129" fill="url(#paint1_linear_13_1304)"/>
<g style="mix-blend-mode:soft-light">
<circle cx="108.5" cy="113.5" r="138.5" fill="#51B3D1"/>
</g>
<g style="mix-blend-mode:soft-light">
<circle cx="91.5" cy="91.5" r="143.5" fill="#51B3D1"/>
</g>
<g style="mix-blend-mode:soft-light">
<circle cx="75" cy="65" r="144" fill="#51B3D1"/>
</g>
<g style="mix-blend-mode:soft-light">
<ellipse cx="61.791" cy="76.688" rx="56.5" ry="20" transform="rotate(-51.56 61.791 76.688)" fill="#51B3D1"/>
</g>
<path d="M-181.938 -17.993C-181.533 -17.7235 -180.564 -16.942 -179.918 -15.9725C-179.271 -15.0028 -179.649 -14.2214 -179.918 -13.952C-179.783 -13.5474 -179.352 -11.6888 -178.706 -7.48816C-178.06 -3.28625 -178.975 -4.12063 -179.514 -5.06335L-183.15 -4.25574C-185.575 -5.06385 -190.827 -6.51838 -192.443 -5.87195C-194.464 -5.06384 -198.099 -3.04305 -199.312 -1.83093C-200.524 -0.618809 -200.524 -1.02324 -201.736 0.592896C-202.948 2.20902 -202.949 3.42133 -203.353 6.65344C-203.757 9.8858 -201.332 10.2904 -200.928 10.6945C-200.523 11.0991 -197.291 13.1189 -196.483 13.9269C-195.836 14.5732 -191.904 15.0041 -190.019 15.1388C-189.48 15.2735 -188.241 15.6233 -187.595 15.9464C-186.787 16.3505 -185.17 16.7553 -184.362 17.1593C-183.554 17.5634 -181.13 18.3715 -180.726 18.7755C-180.402 19.0987 -179.783 19.4485 -179.514 19.5831C-179.379 20.5259 -179.109 22.5734 -179.109 23.2198C-179.109 24.0281 -178.302 26.451 -177.897 26.8556C-177.574 27.1788 -177.493 27.5295 -177.493 27.6642L-174.261 26.048C-174.665 25.2399 -175.554 23.381 -175.877 22.4113C-176.281 21.1993 -174.665 20.7957 -174.261 20.3917C-173.938 20.0685 -172.51 18.1022 -171.837 17.1593C-171.163 16.4859 -169.816 14.9767 -169.816 14.3302C-169.816 13.5227 -168.201 13.9256 -172.241 7.46204C-175.474 2.29029 -172.779 -0.349907 -171.028 -1.02332C-169.008 -0.888618 -164.807 -0.53793 -164.16 -0.214722C-163.514 0.108513 -161.197 0.727829 -160.119 0.997192C-159.85 1.80541 -158.18 4.22994 -153.655 7.46204C-147.999 11.5025 -149.21 3.01723 -147.594 3.82532C-145.978 4.6334 -145.574 5.84568 -144.766 7.05774C-143.958 8.26986 -141.938 9.88638 -140.726 10.6945C-139.513 11.5025 -139.109 13.1188 -138.301 13.9269C-137.492 14.7354 -134.664 17.5629 -133.856 17.9669C-133.21 18.2901 -133.049 18.6408 -133.049 18.7755C-132.375 19.4489 -130.867 21.1184 -130.221 22.4113C-129.413 24.0274 -126.584 24.0273 -130.221 25.2394C-133.857 26.4514 -134.261 27.664 -136.685 27.6642H-139.514C-139.919 27.6644 -143.555 28.0683 -145.574 28.8761C-147.594 29.684 -146.786 29.2805 -147.594 30.088C-148.402 30.8961 -150.019 34.5329 -150.019 35.3409C-150.019 36.1489 -150.018 38.5725 -150.826 39.381C-151.634 40.1891 -143.957 41.4013 -138.301 42.6134C-132.645 43.8255 -138.302 44.2304 -139.514 45.4425C-140.484 46.4116 -142.881 45.8465 -143.958 45.4425C-145.574 45.4425 -149.777 45.8459 -153.655 47.462C-158.503 49.4821 -154.059 48.6742 -154.867 49.0782C-155.675 49.4825 -157.696 52.3108 -162.948 58.3712C-168.201 64.4317 -167.797 63.624 -167.797 64.8361C-167.797 65.8056 -169.951 68.2028 -171.028 69.2804C-171.971 71.7045 -174.261 76.6333 -175.877 76.9572C-177.897 77.3612 -177.898 78.1696 -178.706 78.9777C-179.514 79.786 -179.109 82.2103 -179.109 83.8263C-179.109 85.4424 -177.494 87.4624 -176.686 89.4825C-175.877 91.5028 -175.069 92.7152 -175.069 93.1193C-175.069 93.4426 -174.53 95.1393 -174.261 95.9474C-174.665 96.3514 -175.635 97.1592 -176.281 97.1593C-177.089 97.1593 -178.302 96.7557 -178.706 96.3517C-179.11 95.9473 -179.514 94.3309 -179.918 93.9269C-180.322 93.5228 -180.726 92.7151 -181.13 91.9073C-181.534 91.0995 -182.745 89.484 -182.746 89.0792C-182.746 88.6753 -184.765 87.463 -185.17 87.0587C-185.574 86.6547 -187.595 86.2506 -189.615 85.4425C-190.049 85.2688 -190.338 85.1493 -190.52 85.0704L-191.635 85.4425C-192.847 85.8465 -195.353 86.6544 -195.676 86.6544H-197.292C-197.292 85.981 -198.665 85.2005 -204.16 87.463C-211.029 90.2913 -208.604 93.5236 -208.604 96.756C-208.605 99.9878 -209.413 100.796 -209.413 102.008C-209.413 103.22 -209.817 105.24 -209.817 106.452C-209.817 107.664 -208.605 109.685 -207.797 110.089C-206.989 110.493 -204.564 116.554 -204.16 116.554H-203.756C-202.544 116.015 -199.958 114.775 -199.312 114.129L-198.908 113.726C-198.235 113.187 -196.807 111.947 -196.483 111.301C-196.08 110.493 -196.079 110.897 -194.867 109.281C-193.655 107.665 -193.251 108.068 -192.847 108.068H-189.615C-188.646 108.068 -188.672 108.338 -188.807 108.473C-188.807 108.877 -188.888 109.766 -189.211 110.089C-189.615 110.493 -189.615 112.513 -189.615 113.321C-189.615 114.129 -190.019 114.938 -190.423 115.342C-190.827 115.746 -191.231 116.958 -191.635 117.766C-192.039 118.574 -192.847 119.786 -193.251 120.191C-193.655 120.595 -192.847 121.806 -192.443 122.21C-192.12 122.533 -190.692 122.076 -190.019 121.807H-185.17C-184.362 121.807 -184.765 122.21 -181.938 125.038C-179.675 127.301 -181.534 132.446 -182.746 134.735L-179.514 138.372L-177.493 137.968H-172.645C-171.837 137.968 -172.241 137.969 -170.221 139.988C-168.605 141.605 -166.584 136.082 -165.776 133.119C-164.699 132.446 -161.816 130.938 -158.907 130.291C-155.998 129.645 -155.272 131.099 -155.271 131.907L-154.463 133.119H-147.19C-145.44 134.466 -141.614 137.726 -140.321 139.988C-139.675 141.281 -138.974 141.874 -138.705 142.009L-132.645 144.433C-131.567 144.702 -129.17 145.321 -128.2 145.645C-126.988 146.049 -125.372 147.261 -124.563 148.069C-123.755 148.878 -122.139 150.494 -121.735 155.746C-121.331 160.998 -121.332 157.364 -120.928 158.17C-120.604 158.817 -115.944 160.325 -113.654 160.998C-112.711 160.863 -110.503 160.675 -109.21 160.998C-107.917 161.321 -107.594 161.942 -107.594 162.211C-106.112 162.885 -102.342 165.039 -99.1094 168.272C-97.4933 170.292 -97.0887 169.079 -94.2607 169.079C-91.4324 169.079 -91.0283 169.888 -91.0283 170.292V178.776C-91.0283 179.423 -92.1058 181.47 -92.6445 182.413L-94.2607 186.858C-95.473 188.878 -98.463 193.646 -100.726 196.555C-102.988 199.464 -100.591 203.693 -99.1094 205.443L-100.726 209.888C-102.073 210.831 -105.655 213.12 -109.21 214.736C-113.654 216.757 -110.827 215.544 -112.847 217.16C-114.867 218.776 -112.847 220.797 -112.847 222.413C-112.847 224.029 -113.655 224.838 -114.463 226.05C-115.271 227.262 -117.695 229.283 -119.312 230.899C-120.928 232.515 -124.969 237.767 -130.221 243.827C-135.473 249.888 -127.797 249.08 -133.453 251.504C-139.109 253.928 -137.089 252.717 -137.493 252.717C-137.897 252.717 -138.301 252.716 -140.321 253.12C-142.341 253.524 -141.534 253.121 -141.938 253.525C-142.342 253.929 -143.554 255.545 -143.554 256.757C-143.554 257.969 -145.977 261.201 -146.382 261.606C-146.786 262.01 -147.998 264.434 -147.998 264.838C-147.998 265.242 -147.998 268.071 -152.847 274.535C-157.695 281 -156.483 283.828 -145.17 287.464C-136.119 290.373 -137.359 291.101 -139.109 291.101C-142.476 292.178 -151.15 293.929 -158.907 292.313C-160.927 291.505 -158.908 288.677 -162.544 286.656C-166.18 284.636 -164.16 283.02 -165.776 276.959C-167.392 270.899 -165.372 271.707 -165.776 267.666C-166.18 263.626 -162.544 260.798 -162.544 257.161V236.555C-161.871 234.265 -160.2 228.231 -158.907 222.413C-157.291 215.141 -154.867 208.676 -158.907 203.827C-162.948 198.979 -160.928 202.211 -164.16 200.191C-167.392 198.171 -166.585 198.171 -168.604 196.555C-170.625 194.939 -170.625 194.938 -171.837 192.918C-173.049 190.898 -173.049 189.282 -174.261 186.858C-175.473 184.433 -176.685 179.181 -177.493 176.353C-178.301 173.524 -178.705 172.312 -179.109 169.079C-179.513 165.847 -174.261 159.382 -174.261 158.17C-174.26 156.958 -172.645 156.15 -171.837 154.534C-171.029 152.918 -170.625 152.11 -170.625 151.302C-170.625 150.494 -170.221 148.069 -170.625 147.261C-171.029 146.453 -170.221 145.645 -171.433 142.009C-172.51 141.74 -175.069 141.2 -176.686 141.2C-178.302 141.2 -183.554 137.43 -185.979 135.544C-187.729 134.063 -191.312 130.938 -191.635 130.291C-192.039 129.483 -194.059 127.867 -198.1 124.635L-198.261 124.521C-200.019 123.345 -204.716 122.135 -209.413 119.786C-211.837 118.305 -217.009 115.18 -218.302 114.533C-219.918 113.725 -223.554 111.706 -224.767 110.898C-225.979 110.089 -227.999 108.473 -231.231 106.049C-234.464 103.625 -234.06 100.796 -235.271 99.5841C-236.241 98.6144 -237.83 93.2534 -238.504 90.6945C-239.177 89.7515 -241.09 87.2196 -243.353 84.6339C-245.615 82.0477 -252.646 71.4354 -255.878 66.4523C-256.417 65.7789 -257.736 64.0283 -258.706 62.4122C-259.918 60.392 -259.515 59.1793 -259.515 58.3712C-259.515 57.5621 -258.706 50.2911 -258.706 48.2706C-258.706 46.2505 -257.899 44.6343 -259.515 42.2101C-261.131 39.7859 -261.535 40.5934 -263.555 38.5734C-265.575 36.5531 -266.788 34.1287 -269.212 32.1085C-271.636 30.0883 -272.04 26.8555 -273.252 25.2394C-274.464 23.6233 -274.464 21.6032 -275.272 19.5831C-275.919 17.967 -279.851 15.4077 -281.736 14.3302C-282.814 13.7915 -285.777 12.4718 -289.01 11.5021C-292.242 10.5324 -298.437 8.94304 -301.131 8.26965L-315.677 10.2902H-324.565C-327.528 9.61675 -333.939 8.26965 -335.879 8.26965C-337.818 8.2695 -339.38 6.38426 -339.919 5.44153C-341.535 3.82536 -344.849 0.02742 -345.172 -2.23523C-345.495 -4.4977 -347.192 -4.52506 -348 -4.25574L-329.414 -16.3768C-326.99 -16.9156 -321.898 -17.993 -320.929 -17.993C-319.716 -17.9927 -313.656 -16.3769 -309.212 -15.1649C-304.768 -13.953 -299.516 -13.952 -298.707 -13.952C-298.061 -13.952 -297.091 -13.6834 -296.687 -13.5487L-288.201 -11.1239L-279.717 -13.5487L-273.252 -16.3768L-263.555 -17.5887C-253.319 -15.7032 -232.767 -11.9325 -232.443 -11.9325C-232.12 -11.9324 -231.501 -11.1247 -231.231 -10.7206C-230.693 -11.5288 -229.615 -13.2255 -229.615 -13.5487C-229.615 -13.8716 -228.807 -13.952 -228.403 -13.952L-224.767 -13.5487H-217.897C-216.281 -13.5485 -212.645 -12.3366 -211.029 -11.9325C-209.413 -11.5285 -206.584 -14.3568 -205.776 -15.1649C-204.969 -15.9729 -205.373 -16.7808 -204.969 -17.5887C-204.646 -18.2352 -199.985 -18.9356 -197.695 -19.205C-195.944 -18.8009 -192.443 -17.912 -192.443 -17.5887C-192.443 -17.1845 -188.806 -15.1649 -188.402 -15.1649C-188.077 -15.1665 -184.496 -17.8585 -182.746 -19.205L-181.938 -17.993ZM249.581 186.453C250.793 186.049 252.814 192.919 256.046 201.403C259.278 209.888 268.571 217.161 269.783 221.201C270.995 225.242 270.187 233.726 269.783 234.939C269.379 236.151 265.339 249.483 262.915 251.908C260.976 253.848 259.143 253.794 258.47 253.525C256.988 252.986 252.652 251.585 247.157 250.292C240.289 248.676 241.904 241.808 240.692 239.787C239.48 237.767 237.459 242.616 235.035 241.808C232.611 240.999 233.823 237.363 226.955 235.747C220.086 234.131 221.298 243.02 214.833 241.808C208.369 240.596 206.753 243.828 203.521 244.636C200.288 245.444 200.692 243.424 197.863 241.808C195.601 240.515 197.728 239.922 199.075 239.787C197.863 233.592 195.197 220.393 194.228 217.16C193.016 213.12 203.925 209.484 206.753 209.08C209.581 208.676 211.197 204.231 211.601 202.211C212.005 200.191 214.834 197.766 217.662 195.746C220.49 193.726 221.702 195.746 224.53 195.746C226.793 195.746 227.898 191.168 228.167 188.878C230.591 187.666 237.056 188.878 239.076 190.09C241.096 191.302 237.056 194.13 235.844 195.746C234.632 197.362 244.733 202.211 247.157 202.211C249.581 202.21 248.369 186.858 249.581 186.453ZM264.127 -35.7704C264.154 -35.7433 265.753 -34.1478 266.955 -33.3466C268.167 -32.5385 278.592 -34.9628 279.885 -34.9628C281.501 -34.9622 285.541 -30.9233 286.753 -30.9227C287.965 -30.9227 289.177 -32.1347 294.43 -30.9227C298.632 -29.953 300.76 -29.9795 301.299 -30.1141C302.107 -30.7875 304.046 -32.3768 305.339 -33.3466C306.955 -34.5586 318.672 -30.923 321.097 -30.9227C323.521 -30.9227 324.329 -20.4169 321.097 -20.4169C318.511 -20.4168 318.404 -19.609 318.673 -19.205C320.154 -17.1847 322.471 -13.3056 319.885 -13.952C316.652 -14.7601 309.379 -10.7203 300.49 -8.70007C291.602 -6.68 292.814 -7.89191 290.39 -5.87195C287.965 -3.85176 289.986 -3.44752 290.794 -1.02332C291.602 1.401 290.39 2.61369 289.178 4.63391C287.966 6.65389 287.561 5.44151 283.521 9.88586C279.48 14.3303 281.904 13.5227 278.672 16.755C275.44 19.9862 275.844 5.84592 275.44 2.6134C275.036 -0.618893 284.329 -4.65931 288.369 -6.67957C292.409 -8.6997 292.814 -15.1641 292.006 -14.7606C291.198 -14.3566 287.965 -11.9327 286.753 -10.7206C285.541 -9.50848 285.137 -9.91211 284.329 -11.5282C283.521 -13.1444 281.501 -11.9323 279.48 -11.5282C277.46 -11.1242 274.228 -7.89191 274.632 -5.46765C275.036 -3.04343 270.592 -3.04312 265.743 -3.44714C260.895 -3.85117 252.814 -2.63902 250.39 -1.83093C247.965 -1.02285 242.713 5.0378 239.48 9.07825C236.248 13.1186 238.672 11.9064 240.288 11.9064C241.904 11.9064 243.116 11.9061 244.732 11.5021C246.349 11.098 247.561 15.9465 246.753 19.1788C245.945 22.4112 246.753 26.048 246.753 27.6642C246.752 29.2809 238.267 41.4016 235.035 44.6339C231.803 47.8658 233.823 43.4216 228.975 45.8458C224.126 48.27 227.763 47.0583 226.955 49.4825C226.147 51.9068 226.147 51.099 223.723 53.1193C221.299 55.1393 220.895 54.3311 220.895 55.1388C220.895 55.9468 224.53 59.9873 225.742 61.6036C226.954 63.2197 225.743 63.6239 224.935 67.2599C224.288 70.1688 220.895 69.0112 219.278 68.0685L218.065 59.9874L211.601 56.3507L210.793 53.1193L203.521 61.6036H208.369L211.601 64.0284L206.753 68.0685V72.1085L210.793 77.7657V85.4425L205.54 96.3517L202.712 98.7755L200.691 103.624L193.015 106.452L188.57 109.685L187.763 107.261L182.51 109.685L180.489 115.342L182.51 118.574L187.763 123.826V132.716C185.473 134.602 180.812 138.372 180.489 138.372C180.165 138.373 178.739 138.911 178.065 139.18L176.854 135.544L174.025 129.887H169.177L168.368 137.564L171.196 144.028L176.045 151.302L176.854 154.938H174.833L171.196 151.302L168.368 144.028L164.328 139.18L166.348 130.695L163.52 120.594L157.459 121.807V112.513L152.61 107.261L144.529 109.685L134.833 120.594L130.388 123.826L131.601 128.675L129.176 131.503L129.984 138.372L124.731 140.796L119.075 124.231L117.055 108.877L114.227 111.705L104.125 99.9884H97.2568C96.9336 99.9884 91.4651 99.1796 88.7715 98.7755L85.1348 95.9474H81.0947L77.0547 93.5236L74.2256 89.0782L70.1855 89.8868L67.7617 92.715L73.0137 96.3517L75.8418 98.7755L77.0547 103.22L80.6904 102.008L85.1348 98.7755L86.751 102.817L91.5996 107.261L87.9639 116.15L68.5693 126.654L61.2969 129.079L56.4482 115.342L52.0039 106.452L43.9229 92.715L39.8818 91.9073L50.3877 117.361L58.8721 128.675L60.4883 135.14L75.4385 131.503L76.6504 135.14L66.9531 151.705L58.0645 160.595L51.5996 173.928L55.2363 185.646L54.4277 196.555L43.9229 205.039L46.751 215.948C45.1348 217.565 41.6602 220.878 40.6904 221.201C39.7208 221.525 40.2864 225.376 40.6904 227.262L32.2051 237.767L27.7607 241.808L22.9121 242.615L12.4072 241.808L11.5996 236.151L5.53906 222.818L3.92285 210.696L-0.925781 199.787L1.90234 177.565L0.286133 175.948V171.907L-4.1582 167.463C-4.1582 167.463 -6.18686 165.778 -6.17871 162.211C-6.17044 158.644 -3.53033 158.693 -2.94629 157.766C-2.36264 156.837 -2.94629 151.705 -4.1582 150.493C-5.37033 149.281 -9.41113 149.686 -9.41113 149.686L-13.0479 148.069C-13.0479 148.069 -13.0474 145.645 -16.2793 145.645C-19.5117 145.645 -29.6133 149.686 -29.6133 149.686H-37.6943L-43.3506 145.645C-43.3506 145.645 -46.9214 144.525 -48.6035 141.605C-50.2856 138.684 -47.8069 137.441 -48.6035 135.14C-49.3971 132.847 -51.4159 134.721 -51.4316 134.735L-54.6641 131.907C-54.6704 131.889 -55.7764 128.662 -55.7764 124.158C-55.7764 119.658 -54.6723 116.577 -54.6641 116.554C-54.6641 116.554 -57.5479 112.646 -57.5479 109.989C-57.5474 107.342 -53.48 102.446 -53.4521 102.412L-46.9873 89.4825L-35.2695 74.5333C-35.2514 74.5178 -32.4342 72.1087 -29.2109 72.1085H-24.7646C-18.1653 70.7617 -4.80469 67.9874 -4.1582 67.6642C-0.522156 66.7841 -1.32983 75.7458 -0.925781 78.17C-0.520111 80.5943 11.5994 83.8267 14.0234 85.8468C16.4475 87.8667 15.2359 84.634 16.0439 81.8058C16.8524 78.9779 25.3369 83.4223 25.3369 83.8263C25.339 84.2304 36.6505 85.0379 42.3066 84.6339C47.9632 84.2298 46.7512 72.1087 47.1553 70.8966C47.5579 69.6849 32.2054 72.1093 29.7812 73.3214C27.3572 74.5331 27.7607 65.6449 27.7607 62.4122C27.7607 59.1799 21.7007 56.7554 24.125 63.6241C26.5491 70.4923 27.7608 68.0686 25.3369 70.4923C22.9128 72.9165 21.7005 66.8567 19.2764 66.4523C16.8523 66.0482 14.8316 62.8163 15.2354 60.796C15.5586 59.1798 14.5622 57.4284 14.0234 56.755C11.1951 53.9266 5.1347 48.0274 3.51855 47.0577C1.49838 45.8457 1.90186 47.4625 1.09375 48.2706C0.447845 48.917 1.09406 49.6175 1.49805 49.8868C5.1344 53.1192 12.488 59.9873 12.8115 61.6036C13.2155 63.6236 6.75241 69.6831 5.53906 69.6847C4.32693 69.6847 1.09375 67.2601 1.09375 66.048C1.09442 64.8366 5.53836 67.664 7.55859 65.6447C9.17474 64.0285 8.23199 62.2771 7.55859 61.6036C3.78745 57.6978 -3.9971 49.6436 -4.9668 48.674C-6.17871 47.4625 -6.9866 49.4827 -8.60254 51.0988C-10.2187 52.7149 -11.4315 52.7149 -14.2598 51.0988C-16.5223 49.8059 -16.5487 50.56 -16.2793 51.0988C-16.1447 52.0415 -16.0374 54.169 -16.6836 55.1388C-17.4917 56.3509 -20.3203 57.1591 -21.9365 58.3712C-23.5527 59.5834 -22.3404 62.008 -23.1484 63.6241C-23.9566 65.2403 -26.3809 68.0679 -30.4209 68.8761C-34.4613 69.6842 -34.4619 67.6641 -36.0781 66.048C-37.6942 64.4322 -39.3106 66.4527 -40.9268 65.6447C-42.5428 64.8365 -40.9268 57.9677 -40.9268 53.1193C-40.9268 49.2404 -39.3101 49.3481 -38.502 49.8868C-34.8655 50.0215 -27.2695 50.2101 -25.9766 49.8868C-24.3606 49.4824 -24.7646 44.2295 -24.7646 42.6134C-24.7656 40.9972 -32.4411 38.1693 -32.4414 36.9572C-32.4414 35.745 -27.997 36.1492 -27.5928 35.7452C-27.1888 35.3412 -26.7851 33.7254 -25.5732 34.129C-24.3613 34.533 -20.3214 34.1289 -20.3203 32.9171C-20.3203 31.705 -19.1081 31.3006 -15.876 30.8966C-12.6438 30.4926 -14.6635 28.4724 -14.2598 26.4523C-13.8557 24.4321 -7.79489 24.8353 -6.17871 23.6232C-4.56302 22.4109 -7.39081 17.9672 -7.79492 16.755C-8.19894 15.543 -4.159 14.7346 -2.13867 14.7345C-0.118439 14.7345 -3.35013 19.5834 -4.1582 21.6036C-4.96603 23.6238 1.09433 24.0275 3.51855 25.6437C5.94284 27.2598 11.5997 25.2401 14.832 24.8361C18.0639 24.432 17.66 23.2194 18.8721 19.5831C20.0841 15.947 20.8921 17.967 22.9121 18.3712C24.9323 18.7753 22.5088 16.3507 22.5088 14.7345C22.5094 13.1186 31.8011 13.9264 32.6094 11.9064C33.4174 9.88618 21.2966 11.0981 18.8721 13.1183C16.4478 15.1385 18.8723 7.46179 17.6602 5.44153C16.4481 3.42139 23.316 -0.618549 26.1445 -3.04285C28.4072 -4.98226 23.047 -4.39017 20.084 -3.85144C17.5251 -1.69653 12.003 3.4211 10.3867 6.65344C8.36655 10.6938 13.2151 11.0982 12.4072 13.1183C11.5992 15.1385 7.55853 20.7951 4.32617 22.4113C1.09396 24.0272 2.30585 18.775 1.09375 17.9669C-0.118225 17.1584 -0.926056 13.1183 -1.33008 10.2902C-1.73413 7.46188 -3.35043 11.0981 -6.17871 13.1183C-9.00696 15.1385 -8.19885 11.906 -11.835 11.0978C-15.4713 10.2897 -11.835 5.0377 -11.835 2.6134C-11.835 0.18914 -9.41107 1.80477 -6.17871 0.188599C-2.94638 -1.42765 2.30603 -5.87187 5.94238 -10.3163C9.57877 -14.7608 12.8116 -12.3361 17.6602 -14.3563C22.5084 -16.3763 28.1644 -15.569 30.5889 -15.1649C33.0132 -14.7609 54.4277 -7.08383 54.832 -3.85144C55.2361 -0.619087 52.4076 -2.23523 46.751 -2.23523C41.0945 -2.2352 44.7313 1.40106 47.5596 3.82532C50.388 6.24936 57.256 4.22955 54.4277 2.6134C52.1653 1.3205 53.485 0.457962 54.4277 0.188599C56.9866 0.996674 61.8621 1.72443 60.8926 -1.83093C59.923 -5.38612 61.2964 -6.00645 62.1045 -5.87195L67.7617 -2.23523C75.8427 -3.3127 93.0548 -5.54872 97.2568 -5.87195C102.509 -6.27593 99.6813 -5.46732 103.722 -3.44714C107.761 -1.42747 109.377 -2.63909 110.186 -3.44714C110.994 -4.25523 107.762 -4.65956 106.146 -5.46765C104.53 -6.27572 106.145 -8.69947 105.741 -9.50769C105.337 -10.3158 109.782 -13.1447 114.631 -13.5487C119.479 -13.9527 115.843 -13.1442 116.247 -9.91199C116.651 -6.67968 117.459 -3.85093 117.459 -3.04285C117.459 -2.23463 116.651 -0.61834 114.631 1.40149C112.611 3.42165 115.842 1.80559 118.267 1.40149C120.691 0.997444 120.287 -3.04335 120.691 -3.85144C121.095 -4.65997 119.479 -8.69995 118.267 -9.91199C117.297 -10.8817 122.173 -12.471 124.731 -13.1444C127.29 -13.0097 132.731 -12.4168 134.024 -11.1239C135.641 -9.50781 136.853 -10.3158 138.065 -11.1239C139.277 -11.932 135.236 -13.5485 132.408 -14.7606C129.58 -15.9726 137.256 -16.3771 139.681 -16.7811C141.62 -17.1044 144.799 -19.609 146.146 -20.8212C148.974 -21.6292 155.115 -23.2448 157.055 -23.245C159.479 -23.245 168.369 -26.0739 172.409 -28.9022C175.641 -31.1642 177.257 -31.7301 177.661 -31.7303C182.509 -31.5957 192.691 -31.1648 194.631 -30.5184C197.055 -29.7104 194.631 -28.4981 193.823 -26.0741C193.015 -23.6498 204.328 -26.4779 210.793 -27.286C217.258 -28.0941 214.429 -29.3063 215.237 -30.5184C216.045 -31.7304 221.702 -31.3264 224.126 -30.5184C226.55 -29.7104 220.491 -28.4984 224.126 -27.6903C227.762 -26.8822 228.975 -25.6701 230.188 -27.6903C231.157 -29.306 232.477 -29.4412 233.016 -29.3065C236.248 -29.9799 243.116 -31.4071 244.732 -31.7303C246.753 -32.1344 245.541 -33.7504 247.157 -34.5585C248.451 -35.2049 259.009 -35.6357 264.127 -35.7704ZM71.3975 189.281C73.4177 186.857 73.4184 194.939 72.6104 196.555C71.8023 198.171 72.6095 198.979 71.3975 206.655C70.1853 214.332 69.3774 216.757 68.5693 218.373C67.761 219.989 64.5289 221.201 62.5088 220.797C60.4888 220.393 60.085 213.93 60.085 212.313C60.085 210.696 61.2964 211.1 62.1045 209.888C62.9126 208.676 62.5085 202.615 62.1045 200.191C61.7008 197.767 64.5295 199.383 67.7617 196.555C70.3476 194.292 71.2628 190.763 71.3975 189.281ZM234.228 162.211L234.632 163.423L235.439 165.039L236.248 165.847C236.922 165.712 238.43 165.281 239.076 164.635C239.723 163.988 240.153 163.288 240.288 163.019L245.137 164.635L247.561 167.463C248.773 167.598 251.925 168.191 254.834 169.484C257.742 170.776 256.316 171.1 255.238 171.1C256.047 171.504 257.743 172.312 258.066 172.312C258.39 172.312 258.739 173.389 258.874 173.928L259.278 175.948L262.915 180.797C263.723 181.201 265.581 182.251 266.551 183.221C267.763 184.433 267.359 185.241 262.915 185.241H261.702C260.49 184.568 257.823 182.979 256.854 182.009C255.642 180.797 256.854 180.797 256.046 179.181C255.238 177.565 254.833 179.989 254.025 180.797C253.379 181.444 252.679 182.682 252.409 183.221H248.369C245.945 183.221 246.349 182.008 246.349 181.2C246.348 180.393 244.732 180.797 242.713 180.797H239.076C239.75 180.528 241.258 179.827 241.904 179.181C242.712 178.373 241.904 176.353 241.904 175.948C241.904 175.625 241.366 175.275 241.097 175.14C240.693 174.601 239.723 173.524 239.076 173.524C238.319 173.524 237.916 172.459 237.203 172.325L236.908 172.298C236.183 172.165 235.591 171.1 231.804 171.1C230.996 171.504 231.804 169.888 231.804 167.867V166.655C230.861 165.982 228.895 164.15 228.571 162.211L229.783 161.402H231.804L234.228 162.211ZM207.561 179.988H210.793C211.332 179.988 212.49 179.908 212.813 179.585C213.217 179.181 215.237 179.585 216.449 179.585H219.278C220.086 179.585 220.491 179.989 220.895 180.393C221.217 180.715 221.029 180.797 220.895 180.797C220.221 181.47 218.793 182.817 218.47 182.817C218.066 182.817 215.237 184.029 213.621 184.433C212.329 184.756 212.005 184.299 212.005 184.029C212.813 183.221 214.509 181.444 214.833 180.797C215.156 180.151 214.968 180.258 214.833 180.393C213.755 180.393 211.521 180.474 211.197 180.797C210.793 181.201 208.773 181.201 207.965 181.605C207.157 182.009 206.752 181.605 205.944 181.605C205.298 181.605 206.483 179.989 207.156 179.181L207.561 179.988ZM204.328 179.585C205.298 179.262 205.271 180.258 205.137 180.797L204.328 181.2C203.655 181.47 202.147 182.009 201.5 182.009C200.854 182.009 199.614 181.201 199.075 180.797L199.884 179.585C200.557 179.72 202.389 179.908 204.328 179.585ZM182.105 174.736L184.126 175.544L186.551 176.353L189.379 177.16C190.457 177.295 192.935 177.565 194.228 177.565C195.52 177.565 196.112 178.642 196.247 179.181L197.056 180.797V181.2H194.228C193.554 181.066 192.045 180.797 191.398 180.797C190.59 180.797 187.763 179.988 187.358 179.988C186.954 179.988 184.53 179.585 183.722 179.181C182.914 178.777 182.105 178.372 180.489 177.16C178.873 175.948 179.681 175.948 179.277 175.544C178.955 175.221 180.22 174.602 180.894 174.332H181.298L182.105 174.736ZM217.258 156.554C217.662 156.554 218.469 157.767 215.642 158.979C212.813 160.191 214.429 159.382 213.621 159.786C212.813 160.19 212.005 159.383 209.581 160.191C207.157 160.999 208.368 162.211 208.772 163.019C209.177 163.827 209.985 162.615 211.197 161.807C212.409 160.999 212.409 161.807 212.813 161.807C213.137 161.807 213.486 162.615 213.621 163.019C213.486 163.153 213.056 163.423 212.409 163.423C211.601 163.423 212.005 163.827 210.793 164.635L209.984 165.443C209.582 165.847 210.793 166.252 211.197 167.06C211.601 167.868 212.005 168.675 212.409 169.079C212.813 169.483 213.217 171.1 213.217 173.524C213.217 175.947 209.986 170.697 209.581 169.888C209.177 169.08 209.58 169.08 208.772 166.655C207.964 164.231 208.369 167.867 208.369 169.079V174.332C208.369 175.544 205.541 173.928 205.54 173.12C205.54 172.312 205.944 171.908 205.944 170.695C205.944 169.483 205.137 167.867 205.137 167.463C205.136 167.139 204.597 165.982 204.328 165.443C205.136 164.366 206.833 162.131 207.156 161.807C207.479 161.484 207.561 158.978 207.561 157.766H210.793L212.005 158.17C212.409 158.035 213.379 157.766 214.025 157.766C214.834 157.766 216.854 156.554 217.258 156.554ZM160.691 146.857C160.369 144.918 161.904 146.318 162.712 147.261C163.385 147.934 165.136 149.766 166.752 151.705C168.772 154.129 168.369 153.322 169.177 153.726C169.985 154.13 170.388 155.342 171.196 155.746C171.843 156.069 172.274 156.958 172.409 157.362C172.813 157.901 173.702 159.14 174.025 159.786C174.429 160.594 175.641 161.806 176.045 162.614C176.449 163.422 177.661 164.635 178.065 165.039C178.389 165.363 179.278 166.79 179.682 167.463C179.951 168.002 180.489 169.16 180.489 169.484V171.504L179.682 172.716L178.065 173.928H176.854L170.389 163.019L163.924 154.534C162.981 152.245 161.015 147.503 160.691 146.857ZM200.691 143.221C201.5 141.605 203.52 144.029 204.328 145.241C204.974 146.211 204.597 147.531 204.328 148.069C203.924 148.339 202.954 149.282 202.308 150.898C201.661 152.514 202.578 154.264 203.116 154.938V158.17C203.116 159.382 201.904 160.191 200.691 163.423C199.479 166.655 200.288 166.251 199.884 167.463C199.48 168.675 199.479 169.079 197.863 170.291C196.247 171.503 195.843 169.887 193.823 169.079C191.803 168.271 191.399 168.675 187.763 166.655C184.126 164.635 186.954 163.827 185.742 161.402C184.53 158.978 185.338 160.19 190.187 155.342L193.823 151.705L200.691 143.221ZM222.106 161.807C222.106 162.13 221.567 162.749 221.298 163.019L223.723 165.443C224.531 166.252 224.934 167.463 224.53 167.463C224.207 167.463 222.78 167.733 222.106 167.867L221.298 167.06L220.49 165.443L219.682 161.807L221.298 159.786H222.106V161.807ZM207.156 114.533C207.022 114.129 207.157 113.564 208.772 114.533C210.793 115.745 208.772 115.746 208.772 116.958C208.772 118.17 208.773 119.382 209.177 120.594C209.581 121.806 210.793 122.615 210.793 123.019C210.793 123.423 212.006 124.635 212.813 126.251C213.621 127.867 213.217 127.463 213.217 128.271V132.312C213.217 133.524 215.237 133.524 216.449 133.928C217.419 134.251 217.392 134.87 217.258 135.14C217.931 136.487 219.358 139.584 219.682 141.2C220.086 143.221 219.682 143.625 219.682 144.433C219.682 145.241 219.278 145.241 216.449 144.433C213.621 143.625 216.853 143.625 215.237 143.221C213.621 143.625 211.197 143.221 210.793 142.009C210.47 141.039 211.466 141.066 212.005 141.2C212.14 140.258 212.328 138.291 212.005 137.968C211.601 137.564 211.197 137.159 209.177 134.735C207.157 132.311 209.581 131.907 209.177 128.271C208.773 124.635 208.772 125.846 207.156 123.826C205.864 122.21 206.618 116.957 207.156 114.533ZM76.0332 50.7394C75.223 49.8785 73.9015 49.6575 72.9111 49.8146C71.722 49.9545 69.9696 50.3137 68.6494 50.9718C67.9996 51.2958 67.3362 51.75 66.9541 52.3927C66.5246 53.1159 66.5257 53.9514 66.9932 54.7697L67.1172 54.9982C67.7056 56.1376 67.7961 57.2097 67.9414 58.5656C68.0964 60.0121 68.3138 61.6725 69.4121 63.6495L69.5605 63.9337C69.8628 64.5577 69.8719 64.9104 69.8418 65.1017C69.8028 65.3482 69.6883 65.5009 69.4492 65.8595C69.2346 66.1814 68.8495 66.783 69.1182 67.59C69.3366 68.2453 69.9442 68.8663 70.8545 69.5743L72.3262 70.7208C73.9084 71.9459 75.7614 73.3319 77.335 74.1974C77.8659 74.4894 78.3913 74.7369 78.8838 74.9005C79.3627 75.0595 79.889 75.1659 80.3896 75.0929C80.9424 75.0121 81.4369 74.713 81.7275 74.1603C81.9549 73.7275 82.019 73.2107 81.9932 72.6671L81.9775 72.4318C81.7763 70.2178 81.6694 69.5235 81.4365 68.7667C81.2476 68.1528 81.0061 67.581 80.5479 65.8439L80.3379 65.0245C80.0652 63.9337 80.1976 63.4152 80.3242 63.1681C80.4572 62.9092 80.6652 62.7672 81.0039 62.5587C81.131 62.4806 81.4038 62.3213 81.5986 62.1007C81.713 61.9711 81.8307 61.7906 81.8867 61.5558C81.9436 61.3168 81.9216 61.0861 81.8584 60.8839C81.7456 60.5235 81.4883 60.2089 81.2246 59.9376C80.9409 59.6458 80.5471 59.3037 80.0322 58.8917C78.9725 58.044 78.0183 57.4611 77.2246 57.0216C76.3768 56.5522 75.8661 56.3213 75.4648 56.0616C75.2985 55.954 75.2273 55.8847 75.1982 55.8507C75.1998 55.8411 75.201 55.8275 75.2051 55.8116C75.2169 55.7664 75.2402 55.7005 75.2822 55.6105C75.3689 55.4253 75.5172 55.1776 75.7549 54.8448L75.9541 54.5509C76.3924 53.8692 76.6427 53.2125 76.6826 52.5861C76.7299 51.8412 76.4752 51.2092 76.0332 50.7394ZM38.8262 46.7169C38.2771 46.5189 37.6403 46.4663 36.9092 46.588L36.8398 46.5997L36.7744 46.6212C35.4884 47.0499 33.6264 47.9308 32.2324 49.214C30.8329 50.5025 29.7443 52.3745 30.5654 54.6329L30.8564 55.4249C31.5358 57.2344 32.2464 58.7581 33.7041 59.6759C35.3522 60.7133 37.761 60.8663 41.5918 60.463C45.4432 60.0576 46.2806 60.1862 46.8916 60.3771C47.1601 60.461 47.6902 60.68 48.3301 60.84C49.0283 61.0144 49.9931 61.1713 51.541 61.2745L52.1055 61.3048C53.3777 61.3577 54.349 61.28 55.0781 61.0812C55.9247 60.8502 56.5631 60.4187 56.8584 59.7296C57.1334 59.0874 57.012 58.4328 56.8818 57.9845C56.8132 57.7484 56.7287 57.5242 56.6562 57.339L56.4805 56.8781C56.3146 56.3812 55.8702 55.7842 55.334 55.2218C54.7683 54.6286 54.0074 53.978 53.0908 53.3849C51.3765 52.2756 49.0596 51.3313 46.4102 51.3995L45.875 51.4269C43.4036 51.6169 42.3848 51.0343 41.9229 50.5724C41.6768 50.3262 41.5285 50.0564 41.4131 49.7941C41.3366 49.6202 41.3223 49.5716 41.2451 49.3898C41.2101 49.3072 41.1281 49.1053 40.9805 48.9288L40.9365 48.881C40.9335 48.8765 40.92 48.8574 40.8955 48.8156C40.848 48.7342 40.8056 48.6522 40.7275 48.5109C40.5877 48.2578 40.3833 47.9067 40.0859 47.5763C39.7823 47.2389 39.375 46.915 38.8262 46.7169ZM-71.6338 -64.4579C-70.4216 -64.4579 -68.8052 -64.0534 -69.6133 -60.8212C-72.1988 -59.8516 -71.4995 -59.3397 -70.8262 -59.205L-68.8057 -57.5887L-65.5732 -58.3973C-63.2837 -58.9361 -58.543 -60.0946 -57.8965 -60.4178C-57.0885 -60.8218 -57.0882 -60.0134 -49.0078 -58.3973C-42.5434 -57.1045 -47.6603 -55.1654 -51.0273 -54.3573H-55.0684C-56.1458 -52.8759 -58.4618 -49.5087 -59.1084 -47.8925C-59.9165 -45.8722 -61.937 -43.8517 -62.7451 -42.6395C-63.5533 -41.4274 -65.1694 -39.8114 -70.0176 -36.9833L-68.8057 -30.5184L-67.9971 -28.4979L-70.0176 -25.6698C-72.1725 -24.5924 -77.3712 -22.033 -80.9268 -20.4169C-85.3712 -18.3967 -83.3512 -17.1845 -85.7754 -17.1844H-88.1992C-90.3541 -16.2417 -95.0683 -14.3564 -96.6846 -14.3563C-98.3007 -14.3563 -100.051 -7.35321 -100.725 -3.85144V2.6134H-111.23L-116.887 0.188599L-121.735 -6.27527L-123.756 -14.3563L-119.715 -17.1844V-20.4169L-125.775 -25.6698L-129.008 -32.1346C-130.893 -33.6161 -134.988 -36.66 -136.281 -36.9833C-137.898 -37.387 -146.787 -35.7713 -156.483 -39.8114C-164.24 -43.0437 -153.251 -47.8918 -146.786 -49.912H-142.342L-138.705 -51.5282C-137.224 -51.7976 -133.937 -52.4179 -132.645 -52.7411C-131.028 -53.1451 -129.008 -53.549 -125.775 -53.953C-122.543 -54.3568 -118.099 -52.7409 -119.715 -53.5487C-121.331 -54.3568 -120.927 -55.1652 -120.119 -55.5692C-119.473 -55.8923 -117.157 -55.7039 -116.079 -55.5692C-112.712 -55.4345 -106.705 -55.6494 -109.614 -57.5887C-113.251 -60.013 -110.826 -58.3974 -104.361 -60.0135C-97.8967 -61.6297 -96.6847 -62.4381 -93.8564 -63.6503C-91.5938 -64.6199 -87.5263 -64.0543 -85.7754 -63.6503L-80.1191 -64.4579H-71.6338ZM-156.887 -54.7606C-154.597 -54.4913 -149.777 -53.9531 -148.807 -53.953C-147.837 -53.953 -147.056 -53.1453 -146.786 -52.7411L-155.271 -48.7001L-164.16 -45.4677L-166.584 -44.2557L-167.797 -43.4481L-171.837 -41.4276C-172.376 -40.8889 -173.695 -39.8115 -174.665 -39.8114C-175.634 -39.8114 -175.877 -39.0037 -175.877 -38.5995H-177.09C-177.898 -38.0607 -179.514 -36.5788 -179.514 -34.9628C-179.514 -33.3469 -180.321 -32.4042 -180.726 -32.1346C-179.513 -31.5959 -176.604 -30.3563 -174.665 -29.7098C-172.241 -28.9017 -167.797 -27.2859 -165.776 -25.6698C-164.161 -24.3772 -163.218 -23.7842 -162.948 -23.6493L-156.887 -22.0331C-155.54 -21.629 -152.523 -20.8212 -151.23 -20.8212C-149.938 -20.8211 -149.884 -19.7437 -150.019 -19.205L-147.594 -17.993L-146.786 -16.3768H-143.554C-142.611 -15.5688 -140.726 -13.5486 -140.726 -11.9325C-142.018 -10.9629 -143.957 -10.451 -144.766 -10.3163C-145.439 -10.3163 -146.947 -10.4777 -147.594 -11.1239C-148.24 -11.7704 -148.672 -11.9325 -148.807 -11.9325L-150.019 -10.3163L-146.786 -4.25574V-2.23523L-148.807 -1.02332L-154.059 0.592896L-156.887 -2.23523L-162.948 -4.25574L-167.797 -7.48816C-167.123 -8.56561 -165.453 -11.3663 -164.16 -13.952C-162.544 -17.1844 -164.16 -16.3769 -165.776 -17.993C-168.066 -18.3971 -174.019 -19.7705 -179.514 -22.0331C-185.008 -24.2955 -186.651 -25.4003 -186.786 -25.6698C-187.729 -25.6698 -189.857 -25.9931 -190.827 -27.286C-191.797 -28.5786 -193.386 -26.7472 -194.06 -25.6698C-197.292 -24.3229 -204.646 -21.4676 -208.201 -20.8212C-211.756 -20.1748 -210.76 -19.4744 -209.817 -19.205H-216.281C-217.493 -19.205 -228.807 -16.7809 -229.615 -16.3768C-230.262 -16.0537 -233.655 -17.3196 -235.271 -17.993H-243.757C-246.02 -17.9931 -250.625 -18.8009 -252.646 -19.205C-255.204 -20.417 -260.403 -23.0026 -260.727 -23.6493C-261.05 -24.2958 -253.049 -29.5757 -249.009 -32.1346L-223.555 -34.9628L-212.646 -38.5995C-211.676 -38.9227 -206.315 -41.9666 -203.756 -43.4481L-201.332 -47.0839L-197.292 -49.912H-189.614L-177.09 -51.5282L-165.776 -53.5487L-156.887 -54.7606Z" fill="#2D5113"/>
<path d="M-180.167 -21.5352C-179.762 -21.2656 -178.793 -20.4842 -178.147 -19.5146C-177.5 -18.5449 -177.878 -17.7635 -178.147 -17.4941C-178.012 -17.0894 -177.581 -15.2309 -176.935 -11.0303C-176.289 -6.82838 -177.204 -7.66275 -177.743 -8.60547L-181.379 -7.79785C-183.804 -8.60597 -189.056 -10.0605 -190.672 -9.41406C-192.693 -8.60595 -196.328 -6.58516 -197.541 -5.37305C-198.753 -4.16092 -198.753 -4.56537 -199.965 -2.94922C-201.177 -1.33308 -201.178 -0.120804 -201.582 3.11133C-201.986 6.34368 -199.561 6.7483 -199.157 7.15234C-198.752 7.55697 -195.52 9.57684 -194.712 10.3848C-194.065 11.0311 -190.133 11.462 -188.248 11.5967C-187.709 11.7314 -186.47 12.0812 -185.824 12.4043C-185.016 12.8083 -183.399 13.2131 -182.591 13.6172C-181.783 14.0212 -179.359 14.8294 -178.955 15.2334C-178.631 15.5565 -178.012 15.9064 -177.743 16.041C-177.608 16.9838 -177.338 19.0313 -177.338 19.6777C-177.338 20.486 -176.531 22.9089 -176.126 23.3135C-175.803 23.6367 -175.722 23.9874 -175.722 24.1221L-172.49 22.5059C-172.894 21.6978 -173.783 19.8388 -174.106 18.8691C-174.51 17.6572 -172.894 17.2536 -172.49 16.8496C-172.167 16.5264 -170.739 14.5601 -170.066 13.6172C-169.393 12.9438 -168.045 11.4346 -168.045 10.7881C-168.045 9.98055 -166.43 10.3835 -170.47 3.91992C-173.703 -1.25183 -171.008 -3.89202 -169.257 -4.56543C-167.237 -4.43073 -163.036 -4.08004 -162.389 -3.75684C-161.743 -3.4336 -159.426 -2.81429 -158.348 -2.54492C-158.079 -1.73669 -156.409 0.687843 -151.884 3.91992C-146.228 7.96036 -147.439 -0.524887 -145.823 0.283203C-144.207 1.09129 -143.803 2.30357 -142.995 3.51562C-142.187 4.72775 -140.167 6.34427 -138.955 7.15234C-137.742 7.96043 -137.338 9.57668 -136.53 10.3848C-135.721 11.1933 -132.893 14.0208 -132.085 14.4248C-131.439 14.748 -131.278 15.0987 -131.278 15.2334C-130.604 15.9068 -129.096 17.5763 -128.45 18.8691C-127.642 20.4853 -124.813 20.4851 -128.45 21.6973C-132.086 22.9093 -132.49 24.1219 -134.914 24.1221H-137.743C-138.149 24.1223 -141.784 24.5261 -143.803 25.334C-145.823 26.1418 -145.015 25.7383 -145.823 26.5459C-146.631 27.354 -148.248 30.9907 -148.248 31.7988C-148.248 32.6068 -148.247 35.0304 -149.055 35.8389C-149.863 36.6469 -142.186 37.8592 -136.53 39.0713C-130.874 40.2833 -136.53 40.6873 -137.743 41.8994C-138.712 42.8691 -141.11 42.3035 -142.187 41.8994C-143.803 41.8995 -148.006 42.3038 -151.884 43.9199C-156.732 45.94 -152.288 45.1321 -153.096 45.5361C-153.904 45.9404 -155.925 48.7687 -161.177 54.8291C-166.43 60.8896 -166.026 60.0819 -166.026 61.2939C-166.026 62.2635 -168.18 64.6607 -169.257 65.7383C-170.2 68.1624 -172.49 73.0912 -174.106 73.415C-176.126 73.8191 -176.127 74.6275 -176.935 75.4355C-177.743 76.2439 -177.338 78.6682 -177.338 80.2842C-177.338 81.9003 -175.723 83.9203 -174.915 85.9404C-174.106 87.9606 -173.298 89.1731 -173.298 89.5771C-173.298 89.9006 -172.759 91.5972 -172.49 92.4053C-172.894 92.8093 -173.864 93.6171 -174.51 93.6172C-175.318 93.6172 -176.531 93.2136 -176.935 92.8096C-177.339 92.4052 -177.743 90.7887 -178.147 90.3848C-178.551 89.9807 -178.955 89.173 -179.359 88.3652C-179.763 87.5574 -180.974 85.9419 -180.975 85.5371C-180.975 85.1331 -182.994 83.9209 -183.399 83.5166C-183.803 83.1125 -185.824 82.7085 -187.844 81.9004C-188.278 81.7267 -188.567 81.6072 -188.749 81.5283L-189.864 81.9004C-191.076 82.3044 -193.582 83.1123 -193.905 83.1123H-195.521C-195.521 82.4389 -196.894 81.6583 -202.389 83.9209C-209.258 86.7492 -206.833 89.9815 -206.833 93.2139C-206.834 96.4457 -207.642 97.2539 -207.642 98.4658C-207.642 99.6778 -208.046 101.698 -208.046 102.91C-208.046 104.122 -206.834 106.143 -206.026 106.547C-205.218 106.951 -202.793 113.012 -202.389 113.012H-201.985C-200.773 112.473 -198.187 111.233 -197.541 110.587L-197.137 110.184C-196.464 109.645 -195.036 108.405 -194.712 107.759C-194.309 106.951 -194.308 107.355 -193.096 105.739C-191.884 104.123 -191.48 104.526 -191.076 104.526H-187.844C-186.875 104.526 -186.901 104.796 -187.036 104.931C-187.036 105.335 -187.117 106.224 -187.44 106.547C-187.844 106.951 -187.844 108.971 -187.844 109.779C-187.844 110.587 -188.248 111.396 -188.652 111.8C-189.056 112.204 -189.46 113.416 -189.864 114.224C-190.268 115.032 -191.076 116.244 -191.48 116.648C-191.884 117.052 -191.076 118.264 -190.672 118.668C-190.349 118.991 -188.921 118.534 -188.248 118.265H-183.399C-182.591 118.265 -182.994 118.668 -180.167 121.496C-177.904 123.759 -179.763 128.904 -180.975 131.193L-177.743 134.83L-175.722 134.426H-170.874C-170.066 134.426 -170.47 134.426 -168.45 136.446C-166.834 138.062 -164.813 132.54 -164.005 129.577C-162.928 128.904 -160.045 127.395 -157.136 126.749C-154.227 126.103 -153.501 127.557 -153.5 128.365L-152.692 129.577H-145.419C-143.669 130.924 -139.843 134.184 -138.55 136.446C-137.904 137.739 -137.203 138.332 -136.934 138.467L-130.874 140.891C-129.796 141.16 -127.399 141.779 -126.429 142.103C-125.217 142.507 -123.601 143.719 -122.792 144.527C-121.984 145.336 -120.368 146.952 -119.964 152.204C-119.56 157.456 -119.561 153.821 -119.157 154.628C-118.833 155.274 -114.173 156.783 -111.883 157.456C-110.94 157.321 -108.732 157.133 -107.439 157.456C-106.146 157.779 -105.823 158.4 -105.823 158.669C-104.341 159.342 -100.571 161.497 -97.3384 164.729C-95.7223 166.75 -95.3177 165.537 -92.4897 165.537C-89.6626 165.537 -89.2576 166.345 -89.2573 166.749V175.234C-89.2573 175.881 -90.3348 177.928 -90.8735 178.871L-92.4897 183.315C-93.702 185.336 -96.692 190.104 -98.9546 193.013C-101.217 195.922 -98.8198 200.15 -97.3384 201.901L-98.9546 206.346C-100.302 207.289 -103.884 209.578 -107.439 211.194C-111.883 213.215 -109.056 212.002 -111.076 213.618C-113.096 215.234 -111.076 217.255 -111.076 218.871C-111.076 220.487 -111.884 221.296 -112.692 222.508C-113.5 223.72 -115.924 225.74 -117.541 227.356C-119.157 228.973 -123.198 234.225 -128.45 240.285C-133.702 246.346 -126.026 245.538 -131.682 247.962C-137.338 250.386 -135.318 249.175 -135.722 249.175C-136.126 249.175 -136.53 249.174 -138.55 249.578C-140.57 249.982 -139.763 249.579 -140.167 249.982C-140.571 250.386 -141.783 252.003 -141.783 253.215C-141.783 254.427 -144.207 257.659 -144.611 258.063C-145.015 258.468 -146.227 260.892 -146.227 261.296C-146.227 261.7 -146.227 264.529 -151.076 270.993C-155.924 277.458 -154.712 280.286 -143.399 283.922C-134.348 286.831 -135.588 287.559 -137.338 287.559C-140.705 288.636 -149.379 290.387 -157.136 288.771C-159.156 287.962 -157.137 285.134 -160.773 283.114C-164.409 281.094 -162.389 279.478 -164.005 273.417C-165.621 267.357 -163.601 268.164 -164.005 264.124C-164.409 260.084 -160.773 257.255 -160.773 253.619V233.013C-160.1 230.723 -158.429 224.689 -157.136 218.871C-155.52 211.598 -153.096 205.134 -157.136 200.285C-161.177 195.437 -159.157 198.669 -162.389 196.648C-165.621 194.628 -164.814 194.629 -166.833 193.013C-168.854 191.397 -168.854 191.396 -170.066 189.376C-171.278 187.356 -171.278 185.74 -172.49 183.315C-173.702 180.891 -174.914 175.639 -175.722 172.811C-176.53 169.982 -176.934 168.769 -177.338 165.537C-177.742 162.305 -172.49 155.84 -172.49 154.628C-172.49 153.416 -170.874 152.608 -170.066 150.992C-169.258 149.376 -168.854 148.568 -168.854 147.76C-168.854 146.952 -168.45 144.527 -168.854 143.719C-169.258 142.911 -168.45 142.102 -169.662 138.467C-170.739 138.197 -173.298 137.658 -174.915 137.658C-176.531 137.658 -181.783 133.887 -184.208 132.002C-185.958 130.52 -189.541 127.395 -189.864 126.749C-190.268 125.941 -192.288 124.325 -196.329 121.093L-196.49 120.979C-198.248 119.803 -202.945 118.593 -207.642 116.244C-210.066 114.763 -215.238 111.638 -216.531 110.991C-218.147 110.183 -221.783 108.164 -222.996 107.355C-224.208 106.547 -226.228 104.931 -229.46 102.507C-232.693 100.083 -232.289 97.2543 -233.5 96.042C-234.47 95.0723 -236.06 89.7113 -236.733 87.1523C-237.406 86.2094 -239.319 83.6775 -241.582 81.0918C-243.844 78.5056 -250.875 67.8933 -254.107 62.9102C-254.646 62.2368 -255.965 60.4862 -256.935 58.8701C-258.147 56.8499 -257.744 55.6372 -257.744 54.8291C-257.744 54.0201 -256.935 46.749 -256.935 44.7285C-256.935 42.7083 -256.128 41.0921 -257.744 38.668C-259.36 36.2438 -259.764 37.0513 -261.784 35.0312C-263.804 33.0111 -265.016 30.5866 -267.44 28.5664C-269.864 26.5462 -270.269 23.3134 -271.481 21.6973C-272.693 20.0811 -272.693 18.0611 -273.501 16.041C-274.148 14.4249 -278.08 11.8656 -279.965 10.7881C-281.043 10.2494 -284.006 8.92966 -287.239 7.95996C-290.471 6.99024 -296.666 5.40092 -299.36 4.72754L-313.906 6.74805H-322.794C-325.757 6.07464 -332.168 4.72754 -334.108 4.72754C-336.047 4.72739 -337.609 2.84215 -338.148 1.89941C-339.764 0.283241 -343.078 -3.51469 -343.401 -5.77734C-343.724 -8.03985 -345.421 -8.06718 -346.229 -7.79785L-327.643 -19.9189C-325.219 -20.4577 -320.127 -21.5352 -319.158 -21.5352C-317.945 -21.5349 -311.885 -19.919 -307.441 -18.707C-302.997 -17.4951 -297.745 -17.4941 -296.936 -17.4941C-296.29 -17.4941 -295.32 -17.2255 -294.916 -17.0908L-286.43 -14.666L-277.946 -17.0908L-271.481 -19.9189L-261.784 -21.1309C-251.548 -19.2453 -230.996 -15.4746 -230.672 -15.4746C-230.349 -15.4745 -229.73 -14.6668 -229.46 -14.2627C-228.922 -15.0709 -227.844 -16.7676 -227.844 -17.0908C-227.844 -17.4137 -227.036 -17.4941 -226.632 -17.4941L-222.996 -17.0908H-216.126C-214.51 -17.0906 -210.874 -15.8787 -209.258 -15.4746C-207.642 -15.0706 -204.813 -17.8989 -204.005 -18.707C-203.198 -19.515 -203.602 -20.3229 -203.198 -21.1309C-202.875 -21.7773 -198.214 -22.4777 -195.924 -22.7471C-194.173 -22.343 -190.672 -21.4541 -190.672 -21.1309C-190.672 -20.7265 -187.035 -18.707 -186.631 -18.707C-186.306 -18.7086 -182.725 -21.4006 -180.975 -22.7471L-180.167 -21.5352ZM251.352 182.911C252.564 182.507 254.585 189.376 257.817 197.861C261.049 206.346 270.342 213.619 271.554 217.659C272.766 221.7 271.958 230.184 271.554 231.396C271.15 232.609 267.11 245.941 264.686 248.366C262.747 250.306 260.914 250.252 260.241 249.982C258.759 249.444 254.423 248.043 248.928 246.75C242.06 245.134 243.675 238.266 242.463 236.245C241.251 234.225 239.23 239.074 236.806 238.266C234.382 237.457 235.594 233.821 228.726 232.205C221.857 230.589 223.069 239.478 216.604 238.266C210.14 237.054 208.524 240.286 205.292 241.094C202.059 241.902 202.463 239.882 199.634 238.266C197.372 236.973 199.499 236.38 200.846 236.245C199.634 230.05 196.968 216.85 195.999 213.618C194.787 209.578 205.696 205.942 208.524 205.538C211.352 205.134 212.968 200.689 213.372 198.669C213.776 196.649 216.605 194.224 219.433 192.204C222.261 190.184 223.473 192.204 226.301 192.204C228.564 192.204 229.669 187.626 229.938 185.336C232.362 184.124 238.827 185.336 240.847 186.548C242.867 187.76 238.827 190.588 237.615 192.204C236.403 193.82 246.504 198.669 248.928 198.669C251.352 198.667 250.14 183.316 251.352 182.911ZM265.898 -39.3125C265.925 -39.2852 267.524 -37.6899 268.726 -36.8887C269.938 -36.0806 280.363 -38.5049 281.656 -38.5049C283.272 -38.5043 287.312 -34.4654 288.524 -34.4648C289.736 -34.4648 290.948 -35.6768 296.201 -34.4648C300.403 -33.4951 302.531 -33.5216 303.07 -33.6562C303.878 -34.3296 305.817 -35.9189 307.11 -36.8887C308.726 -38.1008 320.443 -34.4651 322.868 -34.4648C325.292 -34.4648 326.1 -23.959 322.868 -23.959C320.282 -23.9589 320.174 -23.1511 320.444 -22.7471C321.925 -20.7268 324.242 -16.8477 321.656 -17.4941C318.423 -18.3022 311.15 -14.2624 302.261 -12.2422C293.373 -10.2221 294.585 -11.434 292.161 -9.41406C289.736 -7.39387 291.757 -6.98965 292.565 -4.56543C293.373 -2.14111 292.161 -0.928421 290.949 1.0918C289.737 3.11176 289.332 1.89941 285.292 6.34375C281.251 10.7882 283.675 9.98055 280.443 13.2129C277.211 16.444 277.615 2.30384 277.211 -0.928711C276.807 -4.161 286.1 -8.20142 290.14 -10.2217C294.18 -12.2418 294.585 -18.7063 293.777 -18.3027C292.969 -17.8987 289.736 -15.4748 288.524 -14.2627C287.312 -13.0506 286.908 -13.4542 286.1 -15.0703C285.292 -16.6865 283.272 -15.4744 281.251 -15.0703C279.231 -14.6663 275.999 -11.434 276.403 -9.00977C276.807 -6.58554 272.363 -6.58523 267.514 -6.98926C262.666 -7.39328 254.585 -6.18113 252.161 -5.37305C249.736 -4.56496 244.484 1.49569 241.251 5.53613C238.019 9.57652 240.443 8.3643 242.059 8.36426C243.675 8.36426 244.887 8.36396 246.503 7.95996C248.12 7.55592 249.332 12.4044 248.524 15.6367C247.716 18.8691 248.524 22.5059 248.524 24.1221C248.523 25.7389 240.038 37.8596 236.806 41.0918C233.574 44.3237 235.594 39.8795 230.746 42.3037C225.897 44.7279 229.534 43.5162 228.726 45.9404C227.918 48.3647 227.918 47.5569 225.494 49.5771C223.07 51.5972 222.666 50.789 222.666 51.5967C222.666 52.4047 226.301 56.4452 227.513 58.0615C228.725 59.6776 227.514 60.0818 226.706 63.7178C226.059 66.6267 222.666 65.4691 221.049 64.5264L219.836 56.4453L213.372 52.8086L212.564 49.5771L205.292 58.0615H210.14L213.372 60.4863L208.524 64.5264V68.5664L212.564 74.2236V81.9004L207.311 92.8096L204.483 95.2334L202.462 100.082L194.786 102.91L190.341 106.143L189.534 103.719L184.281 106.143L182.26 111.8L184.281 115.032L189.534 120.284V129.174C187.244 131.059 182.583 134.83 182.26 134.83C181.936 134.831 180.51 135.368 179.836 135.638L178.625 132.002L175.796 126.345H170.948L170.139 134.021L172.967 140.486L177.816 147.76L178.625 151.396H176.604L172.967 147.76L170.139 140.486L166.099 135.638L168.119 127.153L165.291 117.052L159.23 118.265V108.971L154.381 103.719L146.3 106.143L136.604 117.052L132.159 120.284L133.372 125.133L130.947 127.961L131.755 134.83L126.502 137.254L120.846 120.688L118.826 105.335L115.998 108.163L105.896 96.4453H99.0278C98.7046 96.4453 93.2361 95.6374 90.5425 95.2334L86.9058 92.4053H82.8657L78.8257 89.9814L75.9966 85.5361L71.9565 86.3447L69.5327 89.1729L74.7847 92.8096L77.6128 95.2334L78.8257 99.6777L82.4614 98.4658L86.9058 95.2334L88.522 99.2744L93.3706 103.719L89.7349 112.607L70.3403 123.112L63.0679 125.537L58.2192 111.8L53.7749 102.91L45.6938 89.1729L41.6528 88.3652L52.1587 113.819L60.6431 125.133L62.2593 131.598L77.2095 127.961L78.4214 131.598L68.7241 148.163L59.8354 157.053L53.3706 170.386L57.0073 182.104L56.1987 193.013L45.6938 201.497L48.522 212.406C46.9058 214.022 43.4312 217.336 42.4614 217.659C41.4918 217.982 42.0574 221.834 42.4614 223.72L33.9761 234.225L29.5317 238.266L24.6831 239.073L14.1782 238.266L13.3706 232.608L7.31006 219.275L5.69385 207.154L0.845215 196.245L3.67334 174.022L2.05713 172.406V168.365L-2.38721 163.921C-2.38721 163.921 -4.41583 162.236 -4.40771 158.669C-4.39944 155.102 -1.75934 155.151 -1.17529 154.224C-0.591614 153.295 -1.17529 148.163 -2.38721 146.951C-3.59933 145.739 -7.64014 146.144 -7.64014 146.144L-11.2769 144.527C-11.2769 144.527 -11.2764 142.103 -14.5083 142.103C-17.7407 142.103 -27.8423 146.144 -27.8423 146.144H-35.9233L-41.5796 142.103C-41.5796 142.103 -45.1504 140.983 -46.8325 138.062C-48.5146 135.142 -46.0359 133.899 -46.8325 131.598C-47.6263 129.305 -49.6462 131.18 -49.6606 131.193L-52.8931 128.365C-52.8988 128.349 -54.0054 125.121 -54.0054 120.616C-54.0054 116.118 -52.9019 113.036 -52.8931 113.012C-52.8931 113.012 -55.7769 109.104 -55.7769 106.447C-55.7764 103.8 -51.7103 98.9052 -51.6812 98.8701L-45.2163 85.9404L-33.4985 70.9912C-33.482 70.9771 -30.6641 68.5666 -27.4399 68.5664H-22.9937C-16.3943 67.2196 -3.03369 64.4453 -2.38721 64.1221C1.24863 63.242 0.441345 72.2021 0.845215 74.627C1.24924 77.0512 13.3702 80.2845 15.7944 82.3047C18.2185 84.3246 17.0069 81.0919 17.8149 78.2637C18.6234 75.4358 27.1079 79.8802 27.1079 80.2842C27.1104 80.6883 38.4216 81.4958 44.0776 81.0918C49.7342 80.6877 48.5222 68.5666 48.9263 67.3545C49.3291 66.1427 33.9764 68.5672 31.5522 69.7793C29.1282 70.991 29.5317 62.1028 29.5317 58.8701C29.5317 55.6378 23.4717 53.2133 25.896 60.082C28.3201 66.9501 29.5318 64.5264 27.1079 66.9502C24.6837 69.3744 23.4715 63.3146 21.0474 62.9102C18.6233 62.5061 16.6027 59.2742 17.0063 57.2539C17.3296 55.6377 16.3332 53.8863 15.7944 53.2129C12.9661 50.3845 6.9057 44.4853 5.28955 43.5156C3.26938 42.3036 3.67285 43.9204 2.86475 44.7285C2.21887 45.3749 2.86505 46.0754 3.26904 46.3447C6.90543 49.5771 14.2591 56.4452 14.5825 58.0615C14.9865 60.0815 8.52341 66.141 7.31006 66.1426C6.09793 66.1426 2.86475 63.718 2.86475 62.5059C2.86536 61.2944 7.30933 64.1219 9.32959 62.1025C10.9457 60.4864 10.003 58.7349 9.32959 58.0615C5.55844 54.1557 -2.2261 46.1015 -3.1958 45.1318C-4.40771 43.9204 -5.21558 45.9406 -6.83154 47.5566C-8.44772 49.1728 -9.66046 49.1728 -12.4888 47.5566C-14.7513 46.2638 -14.7777 47.0179 -14.5083 47.5566C-14.3737 48.4994 -14.2664 50.6269 -14.9126 51.5967C-15.7207 52.8088 -18.5493 53.617 -20.1655 54.8291C-21.7817 56.0412 -20.5694 58.4659 -21.3774 60.082C-22.1856 61.6982 -24.6099 64.5258 -28.6499 65.334C-32.6903 66.1421 -32.6909 64.122 -34.3071 62.5059C-35.9232 60.8901 -37.5396 62.9106 -39.1558 62.1025C-40.7718 61.2944 -39.1559 54.4256 -39.1558 49.5771C-39.1558 45.6983 -37.5391 45.806 -36.731 46.3447C-33.0945 46.4794 -25.4985 46.668 -24.2056 46.3447C-22.5896 45.9403 -22.9937 40.6874 -22.9937 39.0713C-22.9945 37.4551 -30.67 34.6272 -30.6704 33.415C-30.6704 32.2029 -26.2261 32.6071 -25.8218 32.2031C-25.4178 31.7991 -25.0141 30.1833 -23.8022 30.5869C-22.5901 30.991 -18.5493 30.5862 -18.5493 29.374C-18.549 28.1623 -17.3367 27.7585 -14.105 27.3545C-10.8728 26.9505 -12.8925 24.9303 -12.4888 22.9102C-12.0847 20.8899 -6.0239 21.2932 -4.40771 20.0811C-2.79202 18.8688 -5.61978 14.4251 -6.02393 13.2129C-6.42795 12.0008 -2.388 11.1925 -0.367676 11.1924C1.65256 11.1924 -1.57913 16.0413 -2.38721 18.0615C-3.19498 20.0816 2.86536 20.4854 5.28955 22.1016C7.71384 23.7177 13.3707 21.698 16.603 21.2939C19.835 20.8898 19.431 19.6773 20.6431 16.041C21.8551 12.4049 22.6631 14.4249 24.6831 14.8291C26.7033 15.2331 24.2798 12.8086 24.2798 11.1924C24.2803 9.57642 33.5721 10.3843 34.3804 8.36426C35.1884 6.34407 23.0676 7.55599 20.6431 9.57617C18.2188 11.5964 20.6432 3.91969 19.4312 1.89941C18.2191 -0.12072 25.087 -4.16066 27.9155 -6.58496C30.1782 -8.52437 24.818 -7.93228 21.855 -7.39355C19.2961 -5.23864 13.7739 -0.121002 12.1577 3.11133C10.1375 7.15169 14.9861 7.55605 14.1782 9.57617C13.3701 11.5964 9.32953 17.253 6.09717 18.8691C2.86499 20.4851 4.07684 15.2329 2.86475 14.4248C1.65277 13.6163 0.84494 9.57614 0.440918 6.74805C0.0368652 3.91975 -1.57944 7.55594 -4.40771 9.57617C-7.23596 11.5963 -6.42786 8.36385 -10.064 7.55566C-13.7003 6.74758 -10.0641 1.49559 -10.064 -0.928711C-10.064 -3.35297 -7.64008 -1.73734 -4.40771 -3.35352C-1.17538 -4.96975 4.07703 -9.41399 7.71338 -13.8584C11.3498 -18.3029 14.5826 -15.8782 19.4312 -17.8984C24.2793 -19.9184 29.9354 -19.1111 32.3599 -18.707C34.7841 -18.303 56.1988 -10.6259 56.603 -7.39355C57.0071 -4.1612 54.1786 -5.77734 48.522 -5.77734C42.8655 -5.77731 46.5023 -2.14105 49.3306 0.283203C52.159 2.70724 59.027 0.687439 56.1987 -0.928711C53.9362 -2.2216 55.256 -3.08414 56.1987 -3.35352C58.7576 -2.54544 63.633 -1.8177 62.6636 -5.37305C61.694 -8.92823 63.0674 -9.54856 63.8755 -9.41406L69.5327 -5.77734C77.6137 -6.85481 94.8258 -9.09083 99.0278 -9.41406C104.28 -9.81805 101.452 -9.00943 105.493 -6.98926C109.532 -4.9696 111.148 -6.1812 111.957 -6.98926C112.765 -7.79735 109.533 -8.20168 107.917 -9.00977C106.301 -9.81783 107.916 -12.2416 107.512 -13.0498C107.108 -13.8579 111.553 -16.6868 116.402 -17.0908C121.25 -17.4948 117.614 -16.6864 118.018 -13.4541C118.422 -10.2218 119.23 -7.39304 119.23 -6.58496C119.23 -5.77673 118.422 -4.16044 116.402 -2.14062C114.382 -0.120476 117.613 -1.73652 120.038 -2.14062C122.462 -2.54467 122.058 -6.58547 122.462 -7.39355C122.866 -8.20204 121.25 -12.2421 120.038 -13.4541C119.068 -14.4238 123.944 -16.0131 126.502 -16.6865C129.061 -16.5518 134.502 -15.959 135.795 -14.666C137.412 -13.0499 138.624 -13.8579 139.836 -14.666C141.048 -15.4741 137.007 -17.0907 134.179 -18.3027C131.352 -19.5147 139.027 -19.9192 141.452 -20.3232C143.391 -20.6465 146.57 -23.1511 147.917 -24.3633C150.745 -25.1713 156.886 -26.7879 158.826 -26.7881C161.25 -26.7881 170.14 -29.616 174.18 -32.4443C177.412 -34.7063 179.028 -35.2722 179.432 -35.2725C184.28 -35.1378 194.462 -34.707 196.402 -34.0605C198.826 -33.2525 196.402 -32.0403 195.594 -29.6162C194.786 -27.1919 206.099 -30.02 212.564 -30.8281C219.029 -31.6362 216.2 -32.8484 217.008 -34.0605C217.816 -35.2726 223.472 -34.8685 225.897 -34.0605C228.321 -33.2525 222.262 -32.0405 225.897 -31.2324C229.533 -30.4243 230.746 -29.2122 231.958 -31.2324C232.928 -32.8482 234.248 -32.9833 234.787 -32.8486C238.019 -33.522 244.887 -34.9492 246.503 -35.2725C248.524 -35.6765 247.312 -37.2925 248.928 -38.1006C250.222 -38.747 260.78 -39.1778 265.898 -39.3125ZM73.1685 185.739C75.1887 183.315 75.1894 191.397 74.3813 193.013C73.5733 194.629 74.3805 195.437 73.1685 203.113C71.9563 210.79 71.1484 213.215 70.3403 214.831C69.532 216.447 66.2999 217.659 64.2798 217.255C62.2598 216.851 61.856 210.387 61.856 208.771C61.856 207.154 63.0674 207.558 63.8755 206.346C64.6836 205.134 64.2795 199.073 63.8755 196.648C63.4718 194.225 66.3005 195.841 69.5327 193.013C72.1186 190.75 73.0338 187.221 73.1685 185.739ZM235.999 158.669L236.403 159.881L237.21 161.497L238.019 162.305C238.693 162.17 240.201 161.739 240.847 161.093C241.494 160.446 241.924 159.746 242.059 159.477L246.908 161.093L249.332 163.921C250.544 164.056 253.696 164.648 256.605 165.941C259.513 167.234 258.087 167.558 257.009 167.558C257.818 167.962 259.514 168.77 259.837 168.77C260.161 168.77 260.51 169.847 260.645 170.386L261.049 172.406L264.686 177.255C265.494 177.659 267.352 178.709 268.322 179.679C269.534 180.891 269.13 181.699 264.686 181.699H263.473C262.261 181.026 259.594 179.436 258.625 178.467C257.413 177.255 258.625 177.255 257.817 175.639C257.009 174.023 256.604 176.447 255.796 177.255C255.15 177.901 254.45 179.14 254.18 179.679H250.14C247.716 179.679 248.12 178.466 248.12 177.658C248.119 176.851 246.503 177.255 244.484 177.255H240.847C241.521 176.986 243.029 176.285 243.675 175.639C244.483 174.831 243.676 172.811 243.675 172.406C243.675 172.083 243.137 171.732 242.868 171.598C242.464 171.059 241.494 169.982 240.847 169.981C240.09 169.981 239.687 168.917 238.974 168.783L238.679 168.756C237.954 168.623 237.362 167.558 233.575 167.558C232.767 167.962 233.575 166.345 233.575 164.325V163.113C232.632 162.44 230.666 160.608 230.342 158.669L231.554 157.86H233.575L235.999 158.669ZM209.332 176.446H212.564C213.103 176.446 214.261 176.365 214.584 176.042C214.989 175.639 217.008 176.042 218.22 176.042H221.049C221.857 176.042 222.262 176.447 222.666 176.851C222.988 177.173 222.8 177.255 222.666 177.255C221.992 177.928 220.564 179.274 220.241 179.274C219.837 179.274 217.008 180.487 215.392 180.891C214.1 181.214 213.776 180.757 213.776 180.487C214.584 179.679 216.28 177.902 216.604 177.255C216.927 176.608 216.739 176.716 216.604 176.851C215.526 176.851 213.292 176.932 212.968 177.255C212.564 177.659 210.544 177.659 209.736 178.062C208.928 178.467 208.523 178.062 207.715 178.062C207.069 178.062 208.254 176.447 208.927 175.639L209.332 176.446ZM206.099 176.042C207.069 175.719 207.042 176.716 206.908 177.255L206.099 177.658C205.426 177.928 203.918 178.467 203.271 178.467C202.625 178.467 201.385 177.659 200.846 177.255L201.655 176.042C202.328 176.177 204.16 176.365 206.099 176.042ZM183.876 171.194L185.897 172.002L188.322 172.811L191.15 173.618C192.228 173.753 194.706 174.022 195.999 174.022C197.291 174.023 197.883 175.1 198.018 175.639L198.827 177.255V177.658H195.999C195.325 177.524 193.816 177.255 193.169 177.255C192.361 177.255 189.534 176.446 189.129 176.446C188.725 176.446 186.301 176.043 185.493 175.639C184.685 175.235 183.876 174.83 182.26 173.618C180.644 172.406 181.452 172.406 181.048 172.002C180.726 171.679 181.991 171.059 182.665 170.79H183.069L183.876 171.194ZM219.029 153.012C219.433 153.012 220.241 154.225 217.413 155.437C214.584 156.649 216.2 155.84 215.392 156.244C214.584 156.648 213.776 155.841 211.352 156.648C208.928 157.456 210.139 158.668 210.543 159.477C210.948 160.285 211.756 159.073 212.968 158.265C214.18 157.457 214.18 158.265 214.584 158.265C214.908 158.265 215.257 159.073 215.392 159.477C215.257 159.611 214.827 159.881 214.18 159.881C213.372 159.881 213.776 160.285 212.564 161.093L211.755 161.901C211.353 162.305 212.564 162.71 212.968 163.518C213.372 164.325 213.776 165.133 214.18 165.537C214.584 165.941 214.988 167.557 214.988 169.981C214.988 172.405 211.757 167.155 211.352 166.346C210.948 165.538 211.351 165.537 210.543 163.113C209.735 160.689 210.14 164.325 210.14 165.537V170.79C210.14 172.002 207.312 170.386 207.311 169.578C207.311 168.77 207.715 168.365 207.715 167.153C207.715 165.941 206.908 164.325 206.908 163.921C206.907 163.597 206.368 162.44 206.099 161.901C206.907 160.824 208.603 158.589 208.927 158.265C209.25 157.941 209.332 155.436 209.332 154.224H212.564L213.776 154.628C214.18 154.493 215.15 154.224 215.796 154.224C216.605 154.224 218.625 153.012 219.029 153.012ZM162.462 143.314C162.14 141.376 163.675 142.776 164.483 143.719C165.156 144.392 166.907 146.224 168.523 148.163C170.543 150.587 170.14 149.78 170.948 150.184C171.756 150.588 172.159 151.8 172.967 152.204C173.614 152.527 174.045 153.416 174.18 153.82C174.584 154.359 175.473 155.598 175.796 156.244C176.2 157.052 177.412 158.264 177.816 159.072C178.22 159.88 179.432 161.093 179.836 161.497C180.16 161.82 181.049 163.247 181.453 163.921C181.722 164.46 182.26 165.618 182.26 165.941V167.962L181.453 169.174L179.836 170.386H178.625L172.16 159.477L165.695 150.992C164.752 148.703 162.786 143.961 162.462 143.314ZM202.462 139.679C203.271 138.063 205.291 140.487 206.099 141.699C206.745 142.669 206.368 143.989 206.099 144.527C205.695 144.797 204.725 145.74 204.079 147.355C203.432 148.971 204.349 150.722 204.887 151.396V154.628C204.887 155.84 203.675 156.649 202.462 159.881C201.25 163.113 202.059 162.709 201.655 163.921C201.251 165.133 201.25 165.537 199.634 166.749C198.018 167.961 197.614 166.345 195.594 165.537C193.574 164.729 193.17 165.133 189.534 163.113C185.897 161.093 188.725 160.285 187.513 157.86C186.301 155.436 187.109 156.648 191.958 151.8L195.594 148.163L202.462 139.679ZM223.877 158.265C223.877 158.588 223.338 159.207 223.069 159.477L225.494 161.901C226.302 162.709 226.705 163.921 226.301 163.921C225.978 163.921 224.551 164.191 223.877 164.325L223.069 163.518L222.261 161.901L221.453 158.265L223.069 156.244H223.877V158.265ZM208.927 110.991C208.793 110.587 208.928 110.022 210.543 110.991C212.564 112.203 210.543 112.204 210.543 113.416C210.543 114.628 210.544 115.84 210.948 117.052C211.352 118.264 212.564 119.073 212.564 119.477C212.564 119.881 213.777 121.093 214.584 122.709C215.392 124.324 214.988 123.921 214.988 124.729V128.77C214.988 129.981 217.008 129.982 218.22 130.386C219.19 130.709 219.163 131.328 219.029 131.598C219.702 132.944 221.129 136.042 221.453 137.658C221.857 139.678 221.453 140.083 221.453 140.891C221.453 141.699 221.049 141.699 218.22 140.891C215.392 140.083 218.624 140.083 217.008 139.679C215.392 140.083 212.968 139.679 212.564 138.467C212.241 137.497 213.237 137.524 213.776 137.658C213.911 136.715 214.099 134.749 213.776 134.426C213.372 134.022 212.968 133.617 210.948 131.193C208.928 128.769 211.352 128.365 210.948 124.729C210.544 121.093 210.543 122.304 208.927 120.284C207.635 118.668 208.389 113.415 208.927 110.991ZM77.8042 47.1982C76.994 46.3372 75.6725 46.1163 74.6821 46.2734C73.493 46.4133 71.7406 46.7725 70.4204 47.4307C69.7704 47.7547 69.1071 48.2086 68.7251 48.8516C68.2956 49.5748 68.2966 50.4103 68.7642 51.2285L68.8882 51.457C69.4765 52.5965 69.5671 53.6685 69.7124 55.0244C69.8674 56.4709 70.0848 58.1315 71.1831 60.1084L71.3315 60.3926C71.6339 61.017 71.643 61.3694 71.6128 61.5605C71.5737 61.807 71.4595 61.9595 71.2202 62.3184C71.0056 62.6403 70.6203 63.2417 70.8892 64.0488C71.1077 64.704 71.7153 65.3253 72.6255 66.0332L74.0972 67.1797C75.6793 68.4047 77.5324 69.7908 79.106 70.6562C79.6368 70.9482 80.1624 71.1958 80.6548 71.3594C81.1337 71.5184 81.6601 71.6248 82.1606 71.5518C82.7135 71.471 83.2079 71.1718 83.4985 70.6191C83.726 70.1864 83.7899 69.6696 83.7642 69.126L83.7485 68.8906C83.5473 66.6767 83.4403 65.9823 83.2075 65.2256C83.0186 64.6116 82.7771 64.0399 82.3188 62.3027L82.1089 61.4834C81.8362 60.3924 81.9686 59.8741 82.0952 59.627C82.2282 59.3677 82.4359 59.2262 82.7749 59.0176C82.9018 58.9395 83.1747 58.7804 83.3696 58.5596C83.484 58.43 83.6016 58.2497 83.6577 58.0146C83.7147 57.7756 83.6925 57.5451 83.6294 57.3428C83.5167 56.9823 83.2592 56.6678 82.9956 56.3965C82.712 56.1047 82.318 55.7624 81.8032 55.3506C80.7437 54.5029 79.7893 53.92 78.9956 53.4805C78.148 53.0112 77.6371 52.7801 77.2358 52.5205C77.07 52.4132 76.9985 52.3436 76.9692 52.3096C76.9709 52.2999 76.9719 52.2865 76.9761 52.2705C76.9879 52.2253 77.011 52.1596 77.0532 52.0693C77.1398 51.8841 77.288 51.6368 77.5259 51.3037L77.7251 51.0098C78.1635 50.3279 78.4136 49.6714 78.4536 49.0449C78.5011 48.3 78.2461 47.6681 77.8042 47.1982ZM40.5972 43.1758C40.048 42.9777 39.4114 42.9251 38.6802 43.0469L38.6108 43.0586L38.5454 43.0801C37.2592 43.5088 35.3975 44.3895 34.0034 45.6729C32.6038 46.9614 31.5151 48.8332 32.3364 51.0918L32.6274 51.8838C33.3068 53.6931 34.0175 55.217 35.4751 56.1348C37.1232 57.172 39.5322 57.3251 43.3628 56.9219C47.2143 56.5165 48.0516 56.645 48.6626 56.8359C48.9312 56.9199 49.4613 57.1389 50.1011 57.2988C50.7992 57.4733 51.7642 57.6302 53.312 57.7334L53.8765 57.7637C55.1487 57.8166 56.12 57.7389 56.8491 57.54C57.6958 57.3091 58.334 56.8776 58.6294 56.1885C58.9046 55.5463 58.783 54.8918 58.6528 54.4434C58.5843 54.2073 58.4997 53.9831 58.4272 53.7979L58.2515 53.3369C58.0858 52.8401 57.6412 52.2431 57.105 51.6807C56.5394 51.0875 55.7783 50.4368 54.8618 49.8438C53.1474 48.7345 50.8307 47.7902 48.1812 47.8584L47.646 47.8857C45.1752 48.0757 44.1559 47.4932 43.6938 47.0312C43.4479 46.7852 43.2995 46.5152 43.1841 46.2529C43.1075 46.079 43.0932 46.0302 43.0161 45.8486C42.9811 45.7662 42.899 45.5643 42.7515 45.3877L42.7075 45.3398C42.7047 45.3356 42.6911 45.3164 42.6665 45.2744C42.619 45.1931 42.5765 45.1109 42.4985 44.9697C42.3587 44.7168 42.1542 44.3655 41.8569 44.0352C41.5533 43.6978 41.1459 43.3739 40.5972 43.1758ZM-69.8628 -68C-68.6506 -68 -67.0342 -67.5955 -67.8423 -64.3633C-70.4278 -63.3937 -69.7285 -62.8818 -69.0552 -62.7471L-67.0347 -61.1309L-63.8022 -61.9395C-61.5127 -62.4782 -56.772 -63.6367 -56.1255 -63.96C-55.3175 -64.364 -55.3172 -63.5556 -47.2368 -61.9395C-40.7724 -60.6466 -45.8893 -58.7076 -49.2563 -57.8994H-53.2974C-54.3748 -56.418 -56.6908 -53.0509 -57.3374 -51.4346C-58.1455 -49.4144 -60.166 -47.3938 -60.9741 -46.1816C-61.7823 -44.9695 -63.3984 -43.3535 -68.2466 -40.5254L-67.0347 -34.0605L-66.2261 -32.04L-68.2466 -29.2119C-70.4015 -28.1345 -75.6002 -25.5752 -79.1558 -23.959C-83.6002 -21.9388 -81.5802 -20.7266 -84.0044 -20.7266H-86.4282C-88.5831 -19.7838 -93.2973 -17.8985 -94.9136 -17.8984C-96.5297 -17.8984 -98.2802 -10.8953 -98.9536 -7.39355V-0.928711H-109.459L-115.116 -3.35352L-119.964 -9.81738L-121.985 -17.8984L-117.944 -20.7266V-23.959L-124.004 -29.2119L-127.237 -35.6768C-129.122 -37.1583 -133.217 -40.2022 -134.51 -40.5254C-136.127 -40.9291 -145.016 -39.3134 -154.712 -43.3535C-162.469 -46.5858 -151.48 -51.4339 -145.015 -53.4541H-140.571L-136.934 -55.0703C-135.453 -55.3397 -132.166 -55.96 -130.874 -56.2832C-129.257 -56.6872 -127.237 -57.0911 -124.004 -57.4951C-120.772 -57.899 -116.328 -56.283 -117.944 -57.0908C-119.56 -57.8989 -119.156 -58.7073 -118.348 -59.1113C-117.702 -59.4345 -115.386 -59.246 -114.308 -59.1113C-110.941 -58.9766 -104.934 -59.1915 -107.843 -61.1309C-111.48 -63.5551 -109.055 -61.9395 -102.59 -63.5557C-96.1257 -65.1718 -94.9137 -65.9803 -92.0854 -67.1924C-89.8228 -68.1621 -85.7553 -67.5964 -84.0044 -67.1924L-78.3481 -68H-69.8628ZM-155.116 -58.3027C-152.826 -58.0334 -148.006 -57.4953 -147.036 -57.4951C-146.066 -57.4951 -145.285 -56.6874 -145.015 -56.2832L-153.5 -52.2422L-162.389 -49.0098L-164.813 -47.7979L-166.026 -46.9902L-170.066 -44.9697C-170.605 -44.431 -171.924 -43.3536 -172.894 -43.3535C-173.863 -43.3535 -174.106 -42.5458 -174.106 -42.1416H-175.319C-176.127 -41.6028 -177.743 -40.1209 -177.743 -38.5049C-177.743 -36.889 -178.55 -35.9463 -178.955 -35.6768C-177.742 -35.138 -174.833 -33.8984 -172.894 -33.252C-170.47 -32.4439 -166.026 -30.828 -164.005 -29.2119C-162.39 -27.9193 -161.447 -27.3263 -161.177 -27.1914L-155.116 -25.5752C-153.769 -25.1711 -150.752 -24.3633 -149.459 -24.3633C-148.167 -24.3632 -148.113 -23.2858 -148.248 -22.7471L-145.823 -21.5352L-145.015 -19.9189H-141.783C-140.84 -19.1109 -138.955 -17.0907 -138.955 -15.4746C-140.247 -14.505 -142.186 -13.9931 -142.995 -13.8584C-143.668 -13.8584 -145.176 -14.0198 -145.823 -14.666C-146.469 -15.3125 -146.901 -15.4746 -147.036 -15.4746L-148.248 -13.8584L-145.015 -7.79785V-5.77734L-147.036 -4.56543L-152.288 -2.94922L-155.116 -5.77734L-161.177 -7.79785L-166.026 -11.0303C-165.352 -12.1077 -163.682 -14.9084 -162.389 -17.4941C-160.773 -20.7265 -162.389 -19.919 -164.005 -21.5352C-166.295 -21.9393 -172.248 -23.3126 -177.743 -25.5752C-183.237 -27.8376 -184.88 -28.9424 -185.015 -29.2119C-185.958 -29.2119 -188.086 -29.5352 -189.056 -30.8281C-190.026 -32.1207 -191.615 -30.2893 -192.289 -29.2119C-195.521 -27.865 -202.875 -25.0097 -206.43 -24.3633C-209.985 -23.7169 -208.989 -23.0165 -208.046 -22.7471H-214.51C-215.722 -22.7471 -227.036 -20.323 -227.844 -19.9189C-228.491 -19.5958 -231.884 -20.8618 -233.5 -21.5352H-241.986C-244.249 -21.5352 -248.854 -22.343 -250.875 -22.7471C-253.433 -23.9591 -258.632 -26.5447 -258.956 -27.1914C-259.279 -27.8379 -251.278 -33.1178 -247.238 -35.6768L-221.784 -38.5049L-210.875 -42.1416C-209.905 -42.4648 -204.544 -45.5087 -201.985 -46.9902L-199.561 -50.626L-195.521 -53.4541H-187.843L-175.319 -55.0703L-164.005 -57.0908L-155.116 -58.3027Z" fill="#57CA4B"/>
<path d="M-1.20729 88.8677L19.4141 86.6659L26.0424 90.3355L32.6707 95.4729L37.0895 99.8764V104.28L44.4543 118.958L49.6096 127.765L55.5014 133.637L58.4474 141.71L55.5014 149.783L46.6637 158.59V176.204L44.4543 182.075L40.7719 193.818V204.826L28.9883 215.835L21.6235 221.706L16.4681 218.037L13.5222 209.23L6.89395 191.616L13.5222 176.204L6.89395 152.718L2.4751 141.71C0.265671 138.529 -4.4478 132.022 -5.62616 131.435C-6.80452 130.848 -13.9729 128.744 -17.4098 127.765L-34.3488 133.637L-45.3959 127.765L-48.3418 118.958L-45.3959 102.078L-37.2946 88.8677L-28.4569 80.7946L-17.4098 78.5928L-9.30855 82.9963L-1.20729 88.8677Z" fill="#60DD53"/>
<path d="M49.0691 85.2259L51.8191 78.5928L55.5014 74.9233H58.4474L62.1297 78.5928V80.7946V88.8677L68.0215 92.5373L74.6498 97.6747V107.216L72.4404 110.151H68.0215L62.1297 107.216L58.4474 95.4729L55.5014 92.5373L49.0691 85.2259Z" fill="#60DD53"/>
<path d="M116.629 -4.33963L119.575 -7.2753H127.676H132.095L158.609 -5.80747L189.541 -4.33963L193.223 3.73344V8.13693C193.223 8.87085 195.432 14.0083 195.432 15.4761C195.432 16.6504 200.342 22.326 202.797 25.017V27.2187L200.588 35.2918L196.905 38.9614L189.541 44.8327C188.068 46.0559 185.269 49.0894 185.858 51.438L189.541 66.1163L191.75 70.5198L193.223 80.7946L178.493 97.6747H173.338H167.446L163.027 92.5373C161.554 91.8033 157.43 90.3355 152.716 90.3355C148.003 90.3355 148.789 89.3569 149.77 88.8677C148.789 88.8677 145.793 89.1612 141.669 90.3355C137.545 91.5098 136.023 92.2926 135.777 92.5373C135.532 93.5158 134.746 95.9133 133.568 97.6747C132.39 99.4361 130.131 96.9407 129.149 95.4729L127.676 92.5373C125.958 90.5801 121.932 86.2256 119.575 84.4642C117.218 82.7028 111.719 79.816 109.264 78.5928H103.372C101.899 78.5928 100.427 76.3911 96.0077 74.9233C91.5888 73.4554 95.2711 67.8512 93.7982 66.3833C92.3252 64.9155 93.0617 62.7138 90.1158 60.512C87.1699 58.3103 88.6429 52.4389 88.6429 49.5033C88.6429 47.1547 85.697 48.5023 82.7511 44.8327C79.8051 39.0933 82.7511 35.4386 82.7511 33.0901V21.3474V15.4761C86.679 12.2958 94.8293 5.93519 96.0077 5.93519L116.629 -4.33963Z" fill="#60DD53"/>
<path d="M12.7858 27.2187C12.7858 25.4573 21.8839 25.0888 21.8839 25.0888L31.0823 24.2831L37.7106 15.4761L41.655 14.3795L44.4543 12.5404H48.1367H51.8191C53.5375 11.5619 57.269 9.3112 58.4474 8.13693C59.6257 6.96267 63.8482 4.71199 65.8121 3.73344L70.231 2.26561C71.7039 2.26561 75.0917 2.55917 76.8593 3.73344C78.6268 4.9077 78.5777 5.69055 78.3322 5.93519L76.8593 12.5404L68.0215 21.3474L62.1297 27.2187C60.6568 28.6866 59.9203 30.1544 56.9744 31.6222C54.6176 32.7965 52.5555 35.0472 51.8191 36.0257H46.6637L37.0895 33.0901C35.6166 33.5793 31.6396 35.145 27.5153 37.4936C23.3911 39.8421 24.8149 41.4078 26.0424 41.8971L23.0964 47.0345L14.9952 48.5023L12.7858 44.8327L9.83987 41.8971H0.265671C-5.62614 43.8542 -17.4098 47.9152 -17.4098 48.5023C-17.4098 49.2362 -21.0921 47.7684 -21.0921 44.8327C-21.0921 42.4842 -13.2364 38.9614 -9.30855 37.4936L-5.62616 39.6953L2.4751 37.4936C5.91199 34.8025 12.7858 28.9801 12.7858 27.2187Z" fill="#60DD53"/>
<path d="M31.8188 -2.8718V-8.00921H36.2376H37.7106L39.1836 -4.33963V-2.8718V-0.670053L37.7106 1.53169C37.2196 1.53169 35.7958 1.82526 34.0282 2.99952C32.2607 4.17379 31.3278 3.97808 31.0823 3.73344L29.6094 2.99952L31.8188 -2.8718Z" fill="#60DD53"/>
<path d="M66.5486 30.8883L72.4404 27.2187H75.3863L76.8593 29.4205V33.0901L75.3863 35.2918L72.4404 36.0257H68.758H66.5486V30.8883Z" fill="#60DD53"/>
<path d="M53.292 62.7138L55.5014 60.512H58.4474L60.6568 62.7138L66.5486 65.6494V73.7225L62.8662 72.2547L58.4474 71.5208C56.7289 70.5422 53.292 68.2915 53.292 67.1173V62.7138Z" fill="#60DD53"/>
<path d="M78.3322 77.8589L81.2781 76.3911L82.7511 77.8589L87.9064 80.7946L90.1158 82.9964V84.4642V86.6659H85.697L79.8051 82.9964L78.3322 80.7946V77.8589Z" fill="#60DD53"/>
<path d="M-168.388 161.525L-160.286 143.911L-149.976 140.242H-148.503C-146.539 141.465 -142.464 145.086 -141.874 149.783C-141.285 154.48 -140.156 157.611 -139.665 158.59C-135.737 161.036 -127.881 166.369 -127.881 168.131C-127.881 169.892 -121.888 174.247 -116.241 176.204L-108.877 182.075L-105.931 191.616V196.019C-106.667 197.487 -108.729 201.304 -111.086 204.826C-113.443 208.349 -117.96 211.187 -119.924 212.166L-124.343 227.578L-141.874 241.933L-153.658 236.796V224.319L-148.503 204.826L-149.976 191.616C-154.64 186.478 -164.411 176.204 -166.178 176.204C-167.946 176.204 -168.388 166.418 -168.388 161.525Z" fill="#60DD53"/>
<path d="M-160.286 36.0257L-168.388 30.3012L-180.908 33.7848L-183.117 27.6885L-190.481 20.7701L-196.373 16.3666H-205.211V13.7538C-208.648 12.5306 -205.394 11.0721 -206.897 6.78653C-209.512 -0.670053 -218.468 4.46735 -219.941 4.46735C-221.119 4.46735 -230.251 5.44591 -234.67 5.93519H-239.826L-243.508 12.5404C-242.772 14.2529 -241.004 18.1182 -239.826 19.8796C-238.647 21.641 -234.916 28.4419 -233.197 31.6222V40.4292C-234.916 43.1203 -238.5 48.9426 -239.089 50.704C-239.826 52.9058 -243.508 57.3093 -243.508 58.7771V64.6485V73.4554C-243.508 75.2168 -242.035 81.0392 -241.299 83.7303L-236.88 88.1338C-236.143 88.8677 -222.15 95.2478 -221.414 97.4496C-220.825 99.211 -219.204 101.608 -218.468 102.587H-216.258C-215.08 102.587 -213.846 98.8 -212.127 95.6197L-216.258 88.1338C-216.258 85.1687 -216.995 80.3542 -214.049 78.5928C-210.367 76.3911 -209.63 76.3911 -207.42 76.3911H-199.319H-194.901L-189.009 70.5198C-189.009 72.2812 -185.081 72.2322 -183.117 71.9876L-180.908 70.5198C-175.752 66.6056 -170.155 55.5773 -168.388 53.8159C-166.62 52.0545 -161.704 45.9483 -162.441 44.2358L-160.286 36.0257Z" fill="#60DD53"/>
<path d="M-88.8479 -8.74313V-16.8162L-86.6384 -18.284H-82.956L-78.5372 -20.4858H-76.3278L-66.7535 -21.9536H-65.2806C-62.0892 -20.9751 -55.4118 -18.8712 -54.2334 -18.284C-53.0551 -17.6969 -53.7425 -17.0608 -54.2334 -16.8162C-53.988 -15.3484 -53.6443 -12.1191 -54.2334 -10.9449C-54.9699 -9.47704 -55.7064 -8.74313 -57.9158 -7.2753C-60.1253 -5.80747 -61.5982 -5.07355 -63.0712 -5.07355C-64.5441 -5.07355 -68.2265 -3.60572 -71.1724 -2.8718C-73.5291 -2.28467 -77.0642 -0.180777 -78.5372 0.797777L-88.8479 -0.670053V-8.74313Z" fill="#60DD53"/>
</g>
<defs>
<linearGradient id="paint0_linear_13_1304" x1="41.5" y1="39.6912" x2="195" y2="230" gradientUnits="userSpaceOnUse">
<stop stop-color="#0074BD"/>
<stop offset="1" stop-color="#003557"/>
</linearGradient>
<linearGradient id="paint1_linear_13_1304" x1="42" y1="39.6912" x2="191" y2="242.691" gradientUnits="userSpaceOnUse">
<stop stop-color="#0074BD"/>
<stop offset="0.793269" stop-color="#051355"/>
</linearGradient>
</defs>
</svg>
