<svg width="101" height="31" viewBox="0 0 101 31" fill="none" xmlns="http://www.w3.org/2000/svg">
<path d="M97.3125 0C99.3491 -5.64969e-08 101 1.65095 101 3.6875V27.3125C101 29.349 99.3491 31 97.3125 31H3.6875C1.65095 31 -3.45621e-08 29.3491 0 27.3125V3.6875C1.03941e-06 1.65095 1.65095 5.64969e-08 3.6875 0H97.3125ZM7.90137 5C7.02876 5.00013 6.32144 5.70748 6.32129 6.58008V22.9424C6.32129 23.8151 7.02867 24.5223 7.90137 24.5225H16.6836C17.5564 24.5225 18.2646 23.8152 18.2646 22.9424V6.58008C18.2645 5.7074 17.5563 5 16.6836 5H7.90137ZM23.2949 5C22.4223 5.00013 21.715 5.70748 21.7148 6.58008V22.9424C21.7148 23.8151 22.4222 24.5223 23.2949 24.5225H32.0771C32.95 24.5225 33.6582 23.8152 33.6582 22.9424V6.58008C33.6581 5.7074 32.9499 5 32.0771 5H23.2949ZM38.6885 5C37.8158 5 37.1085 5.7074 37.1084 6.58008V22.9424C37.1084 23.8152 37.8157 24.5225 38.6885 24.5225H47.4707C48.3435 24.5225 49.0508 23.8152 49.0508 22.9424V6.58008C49.0506 5.7074 48.3434 5 47.4707 5H38.6885ZM54.082 5C53.2093 5 52.5021 5.7074 52.502 6.58008V22.9424C52.502 23.8152 53.2092 24.5225 54.082 24.5225H62.8643C63.7371 24.5225 64.4443 23.8152 64.4443 22.9424V6.58008C64.4442 5.7074 63.737 5 62.8643 5H54.082ZM69.4756 5C68.6029 5 67.8947 5.7074 67.8945 6.58008V22.9424C67.8945 23.8152 68.6028 24.5225 69.4756 24.5225H78.2578C79.1306 24.5224 79.8379 23.8152 79.8379 22.9424V6.58008C79.8377 5.70741 79.1305 5.00002 78.2578 5H69.4756ZM84.8682 5C83.9957 5.00026 83.2882 5.70756 83.2881 6.58008V22.9424C83.2881 23.815 83.9956 24.5222 84.8682 24.5225H93.6514C94.524 24.5223 95.2314 23.8151 95.2314 22.9424V6.58008C95.2313 5.70749 94.524 5.00015 93.6514 5H84.8682Z" fill="#06052F"/>
<rect x="0.265" y="-0.265" width="100.47" height="30.47" rx="3.4225" transform="matrix(1 -2.77415e-08 1.69709e-08 -1 4.49729e-09 30.47)" stroke="#F0D5A7" stroke-width="0.53"/>
</svg>
