<svg width="443" height="875" viewBox="0 0 443 875" fill="none" xmlns="http://www.w3.org/2000/svg">
<g clip-path="url(#clip0_165_30)">
<rect width="443" height="875" fill="#06052F"/>
<path d="M-15.7616 165.263C-8.07396 163.257 3.4721 161.873 13.1115 164.262C17.9345 165.457 22.2983 167.601 25.4562 171.103C28.617 174.607 30.5498 179.45 30.5509 185.999L30.5832 186.982C30.9975 197.312 34.1294 213.034 42.258 227.834C50.6462 243.107 64.349 257.387 85.8722 263.765L88.3898 264.519C114.263 272.342 135.64 281.343 149.974 294.948C164.788 309.01 172.057 327.967 169.05 355.532V355.534C167.962 364.737 163.721 377.846 154.518 387.255C145.441 396.534 131.56 402.189 111.21 397.001L110.236 396.746C84.2301 389.745 70.3858 386.755 60.548 386.63C50.7358 386.506 44.9076 389.231 34.9044 393.733C24.8801 398.243 13.1013 401.377 2.19546 402.192C-8.70096 403.006 -18.7749 401.508 -25.3465 396.706C-28.6384 394.3 -31.881 390.138 -34.1053 385.257C-36.3304 380.374 -37.5487 374.746 -36.7586 369.405C-35.9671 364.056 -33.1622 359.006 -27.3729 355.302C-21.5916 351.603 -12.8504 349.255 -0.199074 349.255C12.431 349.255 22.3734 349.63 30.4455 349.989C38.5209 350.349 44.7136 350.692 49.8605 350.63C55.0036 350.568 59.0855 350.1 62.9347 348.845C66.7828 347.59 70.4146 345.544 74.6496 342.306C78.8962 339.058 82.9769 335.694 86.298 332.116C89.6194 328.538 92.1705 324.758 93.3742 320.684C95.7709 312.571 92.8544 303.164 79.6378 291.693C73.0401 285.967 64.3473 281.229 54.6876 276.692C49.8592 274.424 44.7938 272.208 39.632 269.945C34.4712 267.683 29.2136 265.373 24.007 262.918C3.51373 253.256 -16.2564 241.326 -26.4461 221.083L-26.9237 220.113C-34.9464 203.466 -34.795 190.852 -31.3065 181.84C-27.8208 172.836 -21.0172 167.464 -15.7958 165.275L-15.7616 165.263ZM29.4259 362.868C25.1744 362.451 20.7321 363.513 17.7052 364.775C14.7567 366.003 10.4265 366.38 5.49526 366.255C0.572304 366.13 -4.9165 365.506 -10.1629 364.757C-12.8058 364.379 -15.2662 364.359 -17.3397 364.748C-19.4112 365.137 -21.1192 365.94 -22.2254 367.23C-23.3378 368.526 -23.8141 370.282 -23.4823 372.509C-23.1515 374.729 -22.0183 377.426 -19.9081 380.642C-15.6476 387.134 -8.26348 389.734 -0.820168 390.366C6.6193 390.998 14.1697 389.67 18.8605 388.248C23.2914 387.161 29.6719 384.952 34.4005 381.852C36.7637 380.302 38.7375 378.515 39.838 376.515C40.9459 374.501 41.164 372.275 40.0265 369.897C37.7787 365.197 33.6867 363.287 29.4259 362.868ZM139.052 298.346C134.13 295.477 127.977 293.687 121.397 294.656L120.759 294.759C116.753 295.456 109.249 301.548 110.052 318.017L110.083 318.777C110.627 334.663 103.689 344.749 100.138 347.816L100.107 347.849C98.0771 350.386 96.0445 354.749 96.5529 359.606C97.0632 364.479 100.126 369.794 108.181 374.224C116.267 378.671 124.434 377.738 131.337 374.784C138.234 371.833 143.889 366.856 146.992 363.166C146.997 363.161 147.002 363.154 147.006 363.149L147.29 362.738C153.312 353.892 161.783 331.449 149.527 308.9H149.528C147.919 305.427 144.127 301.305 139.052 298.346ZM73.4621 356.058C71.975 355.273 69.8205 355.361 67.6144 356.54L67.173 356.79C66.5349 357.173 66.0251 357.556 65.5597 357.927C65.0905 358.301 64.6794 358.651 64.216 358.99C63.3045 359.659 62.2086 360.271 60.2404 360.763C58.2792 361.253 56.4466 361.13 54.8019 361.13C53.1814 361.13 51.7045 361.248 50.6242 362.328C50.0398 362.913 49.9386 363.75 50.1896 364.604C50.4404 365.456 51.0472 366.357 51.9357 367.143C53.7172 368.718 56.6688 369.863 60.3429 369.251L61.173 369.109C65.2547 368.389 68.2789 367.541 70.4826 366.35C72.8468 365.072 74.2668 363.398 75.0382 361.084C75.4265 359.919 75.4416 358.876 75.1486 358.012C74.8548 357.146 74.2579 356.478 73.4621 356.058ZM93.3009 274.825C92.1855 274.539 91.2673 274.511 90.5499 274.778C89.909 275.018 89.4578 275.482 89.1749 276.135L89.0646 276.426L89.0617 276.433C88.5162 278.251 89.3195 282.785 96.1662 287.215C99.5902 289.43 102.336 290.323 104.389 290.528C106.434 290.733 107.812 290.254 108.464 289.694C108.478 289.683 108.49 289.67 108.501 289.655C109.06 288.91 109.386 287.54 108.709 285.814C108.075 284.197 106.567 282.27 103.559 280.209L102.938 279.795C98.687 277.045 95.5314 275.399 93.3009 274.825ZM23.4054 229.965C21.9656 229.305 20.482 229.021 18.9884 229.645L18.6896 229.781L18.6828 229.785C17.5238 230.409 16.3571 231.824 16.59 234.019C16.8209 236.192 18.4211 239.079 22.6388 242.694C24.7511 244.505 26.4676 245.514 27.8595 245.931C29.2597 246.35 30.3466 246.173 31.1583 245.596C31.9587 245.027 32.4493 244.097 32.7306 243.093C33.0128 242.085 33.0934 240.972 33.0509 239.994L33.0333 239.912L32.8917 239.571C32.5269 238.724 31.9278 237.531 31.1613 236.344C30.3424 235.076 29.3193 233.796 28.171 232.958L27.9396 232.797C26.4578 231.809 24.9292 230.663 23.4054 229.965ZM2.13296 188.206C-3.005 186.432 -8.63533 186.489 -13.369 189.034L-13.8241 189.288C-15.6221 190.233 -17.9141 192.329 -18.9979 195.563C-20.0866 198.812 -19.9445 203.176 -16.9168 208.626L-16.5584 209.258C-12.7992 215.744 -7.43729 220.793 -2.06431 223.602C3.46981 226.494 9.08553 227.04 12.9494 224.206C16.7617 221.41 18.6717 217.59 18.9259 213.207C19.1636 209.106 17.9526 204.523 15.5226 199.825L15.0207 198.884C12.2383 193.825 7.43631 190.037 2.13296 188.206Z" fill="url(#paint0_linear_165_30)"/>
<path d="M409.769 417.327C418.728 419.444 429.267 425.459 431.552 436.664C433.836 447.863 427.841 464.101 404.108 486.583L402.332 488.31C383.711 506.52 357.121 536.032 335.658 567.582C324.581 583.865 314.874 600.685 308.334 616.77C301.792 632.857 298.426 648.188 300.007 661.501L300.19 663.068C303.934 695.96 302.388 727.482 287.201 761.899C271.775 796.855 242.286 834.775 190.023 880.147L190.022 880.148C172.541 895.214 145.796 914.725 122.386 924.271C110.687 929.042 99.7761 931.344 91.2588 929.312C86.9924 928.294 83.3269 926.188 80.4719 922.766C77.7974 919.561 75.8447 915.214 74.7654 909.552L74.561 908.402C72.037 893.089 69.7686 881.628 67.3291 873.064C64.8887 864.496 62.2836 858.853 59.102 855.156C55.9307 851.47 52.171 849.699 47.3716 848.912C43.1584 848.221 38.1569 848.289 32.058 848.487L29.376 848.578L28.3693 848.613C13.2494 849.133 -0.596515 846.001 -9.61937 839.466C-14.1343 836.196 -17.4464 832.069 -19.0962 827.119C-20.6945 822.324 -20.7258 816.777 -18.8053 810.519L-18.6127 809.912C-16.5015 803.41 -11.1696 793.918 -3.83029 783.917C3.51219 773.913 12.8773 763.381 23.0702 754.804C33.2595 746.23 44.2955 739.592 54.9786 737.403C65.6787 735.212 76.0208 737.486 84.7685 746.721C93.4597 755.896 99.6159 763.768 104.513 770.251C109.415 776.743 113.039 781.819 116.683 785.438C120.314 789.045 123.947 791.184 128.859 791.807C133.787 792.431 140.025 791.532 148.87 789.002C166.569 783.939 184.724 777.566 201.418 765.102C218.109 752.641 233.357 734.079 245.216 704.618C251.142 689.898 253.81 675.382 255.446 660.532C256.264 653.106 256.825 645.598 257.405 637.939C257.984 630.281 258.584 622.472 259.483 614.449C263.025 582.847 271.204 547.931 301.048 505.668L302.486 503.65C327.291 469.127 350.313 447.546 369.021 434.595C387.721 421.65 402.131 417.315 409.711 417.321L409.769 417.327ZM80.3188 791.79C78.1144 787.907 73.0498 786.522 68.6806 786.505C64.4425 786.488 60.8129 784.023 57.6676 780.249C54.5231 776.476 51.8921 771.428 49.6531 766.327C48.5143 763.732 46.8359 761.874 44.6559 761.024C42.4746 760.174 39.8378 760.353 36.8225 761.734C30.806 764.489 23.1894 772.071 14.3932 786.192C5.57499 800.348 5.83249 810.215 9.84712 816.793C13.8426 823.339 21.5069 826.534 27.3363 827.483C32.386 828.825 40.8053 829.633 49.6923 827.711C58.3096 825.848 67.3773 821.414 74.2314 812.403L74.8875 811.516C81.7791 801.954 82.5326 795.69 80.3188 791.79ZM273.74 747.917C272.869 744.585 270.952 741.938 267.675 740.439L267.354 740.298C266.31 739.856 264.52 739.872 262.011 740.551C259.487 741.235 256.192 742.601 252.108 744.918C243.939 749.554 232.586 758.011 217.888 772.486L216.515 773.829C187.782 801.798 164.482 814.274 156.358 817.026L156.33 817.038C150.367 819.92 141.12 825.918 132.729 834.557C124.337 843.196 116.786 854.492 114.247 867.969L114.135 868.596C113.05 875.001 114.235 879.331 116.978 882.06C119.799 884.866 124.207 885.916 129.265 885.869C139.386 885.774 152.327 881.282 161.148 877.178L161.043 876.952L161.149 877.178L161.159 877.173C180.824 866.821 228.405 834.017 261.514 785.561L261.513 785.56C266.674 778.483 271.569 768.668 273.474 759.888C274.427 755.498 274.637 751.345 273.74 747.917ZM123.049 812.036C123.266 810.747 122.904 809.672 121.891 809.036C120.967 808.457 119.548 808.276 117.66 808.555L117.277 808.617C116.148 808.814 115.108 809.102 114.118 809.403C113.122 809.706 112.187 810.018 111.243 810.27C109.484 810.74 107.733 810.993 105.683 810.551L105.269 810.453C103.07 809.888 102.069 808.39 100.922 807.179C100.355 806.581 99.7436 806.049 98.9308 805.813C98.1134 805.575 97.1325 805.645 95.8439 806.159C94.5319 806.683 93.0912 807.906 91.7871 809.467C90.4788 811.033 89.2865 812.963 88.478 814.932C87.6712 816.897 87.2371 818.925 87.4728 820.676C87.7108 822.443 88.6333 823.926 90.5068 824.754L91.3405 825.111C95.4785 826.837 99.1191 827.567 102.805 827.108C106.734 826.619 110.685 824.782 115.324 821.425C117.649 819.742 119.471 818.029 120.764 816.424C122.055 814.823 122.834 813.312 123.049 812.036ZM284.274 684.439C283.947 684.056 283.52 683.85 283.01 683.82C282.512 683.791 281.944 683.93 281.319 684.208C280.847 684.417 280.333 684.71 279.777 685.08L279.208 685.477L279.205 685.479C275.778 688.028 268.134 696.246 264.765 708.847L264.472 709.993C263.119 715.566 263.393 718.811 264.391 720.585C264.93 721.542 265.678 722.067 266.474 722.286C267.263 722.502 268.084 722.415 268.777 722.183L268.81 722.169C271.952 720.579 278.902 714.395 282.332 702.181L282.493 701.595C283.542 697.672 284.273 694.433 284.681 691.852C285.088 689.277 285.179 687.332 284.932 686.007C284.808 685.344 284.595 684.814 284.274 684.439ZM318.299 554.843C317.816 554.1 316.964 553.757 315.708 553.865L315.699 553.866C313.81 554.098 310.586 555.634 306.923 559.409C303.254 563.192 299.127 569.239 295.436 578.535L295.105 579.386C294.363 581.329 293.844 582.952 293.522 584.295C293.154 585.826 293.035 587.009 293.134 587.886C293.234 588.767 293.56 589.379 294.113 589.701C294.655 590.017 295.352 590.014 296.109 589.822C297.621 589.439 299.561 588.25 301.534 586.759C303.514 585.262 305.558 583.435 307.283 581.743L307.306 581.718L307.825 581.034C309.105 579.325 310.856 576.848 312.481 574.262C314.217 571.497 315.826 568.584 316.552 566.342L316.685 565.902C317.471 563.109 318.505 560.037 318.731 557.731C318.844 556.58 318.764 555.556 318.299 554.843ZM380.308 470.097C380.155 466.579 379.016 463.774 376.822 462.02C374.767 460.376 371.829 459.691 368.022 460.155L367.249 460.262C364.312 460.587 358.988 462.524 352.461 467.242C345.918 471.97 338.151 479.501 330.345 491.035L329.443 492.382C320.238 506.255 314.73 518.825 313.304 527.558C312.569 532.055 312.906 535.596 314.45 537.761C316.019 539.961 318.766 540.658 322.617 539.628C330.268 537.583 338.436 532.433 346.492 525.147C354.3 518.085 362.018 509.004 369.077 498.759L369.757 497.763C377.002 487.106 380.614 477.12 380.308 470.097Z" fill="url(#paint1_linear_165_30)"/>
<path d="M298.195 -68.7173C290.488 -66.6126 279.819 -61.9409 272.889 -54.7535C269.421 -51.1566 266.878 -46.9183 266.126 -42.0474C265.373 -37.1741 266.416 -31.6966 270.064 -25.6322L270.584 -24.7043C275.994 -14.9091 282.082 1.28551 283.372 19.2006C284.704 37.6898 280.925 57.9934 266.043 74.9986L264.306 76.9952C246.5 97.5878 233.204 116.955 228.51 136.956C223.661 157.623 228.005 178.932 245.949 202.925L245.95 202.927C252.017 210.899 260.899 218.264 273.004 220.937C284.921 223.568 299.925 221.644 318.385 211.336L319.267 210.839C330.427 204.484 342.386 205.361 354.48 210.253C366.581 215.148 378.79 224.052 390.415 233.704C396.226 238.528 401.885 243.535 407.31 248.317C412.734 253.098 417.923 257.654 422.787 261.572C427.65 265.49 432.197 268.776 436.336 271.012C440.341 273.176 443.993 274.373 447.196 274.181L447.505 274.158C458.669 273.166 467.137 266.81 471.575 259.016C476.011 251.227 476.438 241.965 471.458 235.189L470.926 234.474C459.736 219.567 445.936 210.991 431.478 200.87C416.788 190.585 401.382 178.682 387.218 156.884L386.574 155.902C379.932 145.903 373.813 140.132 368.028 137.09C362.047 133.947 356.447 133.732 351.042 134.747C345.657 135.759 340.435 138 335.253 139.762C330.054 141.529 324.872 142.826 319.479 142.013C308.564 140.369 297.989 137.947 291.363 131.618C284.87 125.415 282.113 115.395 286.727 98.4428L286.952 97.63C289.412 88.9199 294.217 80.0459 299.962 70.8608C302.835 66.2694 305.939 61.6036 309.1 56.8446C312.26 52.0866 315.476 47.2346 318.569 42.2747C330.741 22.7496 341.023 1.49956 338.465 -22.5111L338.333 -23.656C335.923 -43.2173 328.761 -54.8229 320.755 -61.3702C312.754 -67.9134 303.931 -69.3863 298.232 -68.7237L298.195 -68.7173ZM361.207 181.459C362.399 179.403 364.151 177.752 366.427 176.807C368.702 175.863 371.487 175.633 374.733 176.391C377.995 177.153 382.006 179.696 386.371 183.12C390.745 186.55 395.51 190.894 400.285 195.294C405.063 199.698 409.851 204.158 414.281 207.834C418.717 211.515 422.769 214.387 426.073 215.634C432.786 218.168 440.805 222.723 445.437 228.472C447.755 231.349 449.239 234.544 449.265 237.944C449.291 241.349 447.854 244.921 444.411 248.549L444.075 248.885C440.569 252.244 435.572 252.017 430.012 249.799C424.266 247.505 417.823 243.051 411.576 238.018C405.325 232.982 399.252 227.351 394.247 222.693C391.743 220.363 389.509 218.276 387.65 216.627C385.786 214.973 384.317 213.775 383.342 213.205C379.362 210.88 374.611 208.446 370.462 205.713C366.442 203.066 362.927 200.104 361.171 196.62L361.007 196.281C358.676 191.285 358.828 185.565 361.207 181.459ZM345.464 153.739C346.948 152.335 349.09 150.908 351.753 151.046C354.422 151.184 357.533 152.888 360.96 157.551C362.706 159.926 363.047 162.293 362.449 164.539C361.855 166.772 360.34 168.863 358.417 170.723C354.572 174.443 349.018 177.314 345.579 178.621L344.789 178.917C340.889 180.355 337.823 181.127 335.269 181.159C332.528 181.194 330.382 180.374 328.437 178.633C327.442 177.742 327.092 176.815 327.268 175.869C327.438 174.951 328.096 174.071 328.973 173.232C329.855 172.388 330.994 171.553 332.179 170.731C333.074 170.111 333.992 169.499 334.862 168.889L335.713 168.28C338.684 166.096 340.375 163.193 341.692 160.466C342.344 159.117 342.921 157.773 343.501 156.628C344.085 155.474 344.7 154.463 345.464 153.739ZM239.763 134.475C242.38 129.277 246.656 124.442 252.841 121.946L253.445 121.712C257.275 120.289 267.091 122.072 275.578 137.734C284.008 153.289 295.88 159.234 300.712 160.262L300.756 160.276C303.907 161.58 308.074 164.573 310.341 169.325C312.615 174.092 312.96 180.59 308.528 188.852L308.102 189.616C303.607 197.355 296.316 200.522 288.987 201.317C281.43 202.137 273.808 200.439 269.093 198.619C269.087 198.617 269.081 198.614 269.075 198.611C259.297 193.876 239.408 177.795 236.784 150.924L236.672 149.636C236.119 145.595 237.067 139.829 239.763 134.475ZM265.847 89.0815C266.644 88.2392 267.419 87.7367 268.188 87.6144C268.874 87.5055 269.516 87.7045 270.116 88.1594L270.372 88.3694L270.377 88.3742C271.839 89.7606 273.689 94.3585 270.292 101.999C268.593 105.819 266.737 108.065 265.089 109.316C263.447 110.562 261.996 110.829 261.124 110.647C261.107 110.644 261.089 110.638 261.073 110.63C259.336 109.849 257.112 106.508 260.059 99.3624L260.361 98.6589C262.468 93.9185 264.254 90.7649 265.847 89.0815ZM300.715 11.4622C301.581 10.1069 302.697 9.07306 304.331 8.88051L304.665 8.85313L304.672 8.85295C306.017 8.83399 307.793 9.54488 308.808 11.6802C309.816 13.8017 310.059 17.2951 308.461 22.8224C307.661 25.5884 306.752 27.4089 305.791 28.5148C304.821 29.6293 303.786 30.0283 302.766 29.9117C301.766 29.797 300.831 29.1909 300.034 28.4089C299.234 27.6234 298.546 26.6358 298.039 25.7105L298.012 25.6377L297.944 25.2492C297.784 24.2773 297.632 22.8636 297.627 21.3699C297.622 19.7747 297.784 18.0619 298.3 16.6944L298.408 16.4253C299.127 14.7459 299.798 12.8958 300.715 11.4622ZM295.65 -38.217C299.066 -42.5136 303.927 -45.3656 309.407 -45.4469L309.938 -45.4464C312.008 -45.4974 315.137 -44.7359 317.862 -42.3033C320.597 -39.8612 322.907 -35.7529 323.352 -29.1468L323.397 -28.3763C323.793 -20.4309 322.016 -12.9876 318.978 -7.61305C315.849 -2.07712 311.335 1.33081 306.438 0.695682C297.067 -0.520175 291.77 -8.97691 290.658 -20.5486L290.563 -21.678C290.126 -27.7949 292.125 -33.7824 295.65 -38.217Z" fill="url(#paint2_linear_165_30)"/>
<g opacity="0.7">
<g filter="url(#filter0_f_165_30)">
<path d="M70.9811 673.424C74.7932 673.424 76.1698 671.209 76.1698 665.469C76.1698 671.209 77.5464 673.424 81.3585 673.424C77.5464 673.424 76.1698 675.64 76.1698 681.38C76.1698 675.64 74.7932 673.424 70.9811 673.424Z" fill="#F0D5A7"/>
<path d="M113.874 631.915C117.686 631.915 119.063 629.699 119.063 623.959C119.063 629.699 120.439 631.915 124.252 631.915C120.439 631.915 119.063 634.131 119.063 639.871C119.063 634.131 117.686 631.915 113.874 631.915Z" fill="#F0D5A7"/>
<path d="M135 735.956C138.812 735.956 140.189 733.74 140.189 728C140.189 733.74 141.565 735.956 145.377 735.956C141.565 735.956 140.189 738.172 140.189 743.912C140.189 738.172 138.812 735.956 135 735.956Z" fill="#F0D5A7"/>
<path d="M59.2202 631.915C60.9991 631.915 61.6415 630.855 61.6415 628.11C61.6415 630.855 62.2839 631.915 64.0629 631.915C62.2839 631.915 61.6415 632.975 61.6415 635.72C61.6415 632.975 60.9991 631.915 59.2202 631.915Z" fill="#F0D5A7"/>
<circle cx="88.9686" cy="648.173" r="0.691824" fill="#F0D5A7"/>
<circle cx="44.6918" cy="675.846" r="0.691824" fill="#F0D5A7"/>
<circle cx="88.9686" cy="711.821" r="0.691824" fill="#F0D5A7"/>
<circle cx="133.937" cy="677.921" r="0.691824" fill="#F0D5A7"/>
<circle cx="58.5283" cy="710.437" r="0.691824" fill="#F0D5A7"/>
<circle cx="101.421" cy="677.229" r="0.691824" fill="#F0D5A7"/>
<circle cx="105.572" cy="671.003" r="0.691824" fill="#F0D5A7"/>
<circle cx="85.5095" cy="688.99" r="0.691824" fill="#F0D5A7"/>
</g>
<g filter="url(#filter1_d_165_30)">
<path d="M70.9811 673.424C74.7932 673.424 76.1698 671.209 76.1698 665.469C76.1698 671.209 77.5464 673.424 81.3585 673.424C77.5464 673.424 76.1698 675.64 76.1698 681.38C76.1698 675.64 74.7932 673.424 70.9811 673.424Z" fill="#F0D5A7"/>
<path d="M113.874 631.915C117.686 631.915 119.063 629.699 119.063 623.959C119.063 629.699 120.439 631.915 124.252 631.915C120.439 631.915 119.063 634.131 119.063 639.871C119.063 634.131 117.686 631.915 113.874 631.915Z" fill="#F0D5A7"/>
<path d="M135 735.956C138.812 735.956 140.189 733.74 140.189 728C140.189 733.74 141.565 735.956 145.377 735.956C141.565 735.956 140.189 738.172 140.189 743.912C140.189 738.172 138.812 735.956 135 735.956Z" fill="#F0D5A7"/>
<path d="M59.2202 631.915C60.9991 631.915 61.6415 630.855 61.6415 628.11C61.6415 630.855 62.2839 631.915 64.0629 631.915C62.2839 631.915 61.6415 632.975 61.6415 635.72C61.6415 632.975 60.9991 631.915 59.2202 631.915Z" fill="#F0D5A7"/>
<circle cx="88.9686" cy="648.173" r="0.691824" fill="#F0D5A7"/>
<circle cx="44.6918" cy="675.846" r="0.691824" fill="#F0D5A7"/>
<circle cx="88.9686" cy="711.821" r="0.691824" fill="#F0D5A7"/>
<circle cx="133.937" cy="677.921" r="0.691824" fill="#F0D5A7"/>
<circle cx="58.5283" cy="710.437" r="0.691824" fill="#F0D5A7"/>
<circle cx="101.421" cy="677.229" r="0.691824" fill="#F0D5A7"/>
<circle cx="105.572" cy="671.003" r="0.691824" fill="#F0D5A7"/>
<circle cx="85.5095" cy="688.99" r="0.691824" fill="#F0D5A7"/>
</g>
<g filter="url(#filter2_f_165_30)">
<path d="M293.981 768.465C297.793 768.465 299.17 766.25 299.17 760.51C299.17 766.25 300.546 768.465 304.358 768.465C300.546 768.465 299.17 770.681 299.17 776.421C299.17 770.681 297.793 768.465 293.981 768.465Z" fill="#F0D5A7"/>
<path d="M336.874 726.956C340.686 726.956 342.063 724.74 342.063 719C342.063 724.74 343.44 726.956 347.252 726.956C343.44 726.956 342.063 729.172 342.063 734.912C342.063 729.172 340.686 726.956 336.874 726.956Z" fill="#F0D5A7"/>
<path d="M366.623 814.126C370.435 814.126 371.811 811.91 371.811 806.17C371.811 811.91 373.188 814.126 377 814.126C373.188 814.126 371.811 816.341 371.811 822.082C371.811 816.341 370.435 814.126 366.623 814.126Z" fill="#F0D5A7"/>
<path d="M282.22 726.956C283.999 726.956 284.641 725.896 284.641 723.151C284.641 725.896 285.284 726.956 287.063 726.956C285.284 726.956 284.641 728.016 284.641 730.761C284.641 728.016 283.999 726.956 282.22 726.956Z" fill="#F0D5A7"/>
<circle cx="311.969" cy="743.214" r="0.691824" fill="#F0D5A7"/>
<circle cx="267.692" cy="770.887" r="0.691824" fill="#F0D5A7"/>
<circle cx="311.969" cy="806.862" r="0.691824" fill="#F0D5A7"/>
<circle cx="356.937" cy="772.962" r="0.691824" fill="#F0D5A7"/>
<circle cx="281.528" cy="805.478" r="0.691824" fill="#F0D5A7"/>
<circle cx="324.421" cy="772.27" r="0.691824" fill="#F0D5A7"/>
<circle cx="328.572" cy="766.044" r="0.691824" fill="#F0D5A7"/>
<circle cx="308.509" cy="784.031" r="0.691824" fill="#F0D5A7"/>
</g>
<g filter="url(#filter3_d_165_30)">
<path d="M293.981 768.465C297.793 768.465 299.17 766.25 299.17 760.51C299.17 766.25 300.546 768.465 304.358 768.465C300.546 768.465 299.17 770.681 299.17 776.421C299.17 770.681 297.793 768.465 293.981 768.465Z" fill="#F0D5A7"/>
<path d="M336.874 726.956C340.686 726.956 342.063 724.74 342.063 719C342.063 724.74 343.44 726.956 347.252 726.956C343.44 726.956 342.063 729.172 342.063 734.912C342.063 729.172 340.686 726.956 336.874 726.956Z" fill="#F0D5A7"/>
<path d="M366.623 814.126C370.435 814.126 371.811 811.91 371.811 806.17C371.811 811.91 373.188 814.126 377 814.126C373.188 814.126 371.811 816.341 371.811 822.082C371.811 816.341 370.435 814.126 366.623 814.126Z" fill="#F0D5A7"/>
<path d="M282.22 726.956C283.999 726.956 284.641 725.896 284.641 723.151C284.641 725.896 285.284 726.956 287.063 726.956C285.284 726.956 284.641 728.016 284.641 730.761C284.641 728.016 283.999 726.956 282.22 726.956Z" fill="#F0D5A7"/>
<circle cx="311.969" cy="743.214" r="0.691824" fill="#F0D5A7"/>
<circle cx="267.692" cy="770.887" r="0.691824" fill="#F0D5A7"/>
<circle cx="311.969" cy="806.862" r="0.691824" fill="#F0D5A7"/>
<circle cx="356.937" cy="772.962" r="0.691824" fill="#F0D5A7"/>
<circle cx="281.528" cy="805.478" r="0.691824" fill="#F0D5A7"/>
<circle cx="324.421" cy="772.27" r="0.691824" fill="#F0D5A7"/>
<circle cx="328.572" cy="766.044" r="0.691824" fill="#F0D5A7"/>
<circle cx="308.509" cy="784.031" r="0.691824" fill="#F0D5A7"/>
</g>
<g filter="url(#filter4_f_165_30)">
<path d="M1.98114 821.465C5.79323 821.465 7.16982 819.25 7.16982 813.51C7.16982 819.25 8.54641 821.465 12.3585 821.465C8.54641 821.465 7.16982 823.681 7.16982 829.421C7.16982 823.681 5.79323 821.465 1.98114 821.465Z" fill="#F0D5A7"/>
<path d="M44.8742 779.956C48.6863 779.956 50.0629 777.74 50.0629 772C50.0629 777.74 51.4395 779.956 55.2516 779.956C51.4395 779.956 50.0629 782.172 50.0629 787.912C50.0629 782.172 48.6863 779.956 44.8742 779.956Z" fill="#F0D5A7"/>
<path d="M74.6226 867.126C78.4347 867.126 79.8113 864.91 79.8113 859.17C79.8113 864.91 81.1879 867.126 85 867.126C81.1879 867.126 79.8113 869.341 79.8113 875.082C79.8113 869.341 78.4347 867.126 74.6226 867.126Z" fill="#F0D5A7"/>
<circle cx="19.9686" cy="796.214" r="0.691824" fill="#F0D5A7"/>
<circle cx="19.9686" cy="859.862" r="0.691824" fill="#F0D5A7"/>
<circle cx="64.9371" cy="825.962" r="0.691824" fill="#F0D5A7"/>
<circle cx="32.4214" cy="825.27" r="0.691824" fill="#F0D5A7"/>
<circle cx="36.5723" cy="819.044" r="0.691824" fill="#F0D5A7"/>
<circle cx="16.5095" cy="837.031" r="0.691824" fill="#F0D5A7"/>
</g>
<g filter="url(#filter5_d_165_30)">
<path d="M1.98114 821.465C5.79323 821.465 7.16982 819.25 7.16982 813.51C7.16982 819.25 8.54641 821.465 12.3585 821.465C8.54641 821.465 7.16982 823.681 7.16982 829.421C7.16982 823.681 5.79323 821.465 1.98114 821.465Z" fill="#F0D5A7"/>
<path d="M44.8742 779.956C48.6863 779.956 50.0629 777.74 50.0629 772C50.0629 777.74 51.4395 779.956 55.2516 779.956C51.4395 779.956 50.0629 782.172 50.0629 787.912C50.0629 782.172 48.6863 779.956 44.8742 779.956Z" fill="#F0D5A7"/>
<path d="M74.6226 867.126C78.4347 867.126 79.8113 864.91 79.8113 859.17C79.8113 864.91 81.1879 867.126 85 867.126C81.1879 867.126 79.8113 869.341 79.8113 875.082C79.8113 869.341 78.4347 867.126 74.6226 867.126Z" fill="#F0D5A7"/>
<circle cx="19.9686" cy="796.214" r="0.691824" fill="#F0D5A7"/>
<circle cx="19.9686" cy="859.862" r="0.691824" fill="#F0D5A7"/>
<circle cx="64.9371" cy="825.962" r="0.691824" fill="#F0D5A7"/>
<circle cx="32.4214" cy="825.27" r="0.691824" fill="#F0D5A7"/>
<circle cx="36.5723" cy="819.044" r="0.691824" fill="#F0D5A7"/>
<circle cx="16.5095" cy="837.031" r="0.691824" fill="#F0D5A7"/>
</g>
<g filter="url(#filter6_f_165_30)">
<path d="M265.981 144.465C269.793 144.465 271.17 142.25 271.17 136.51C271.17 142.25 272.546 144.465 276.358 144.465C272.546 144.465 271.17 146.681 271.17 152.421C271.17 146.681 269.793 144.465 265.981 144.465Z" fill="#F0D5A7"/>
<path d="M308.874 102.956C312.686 102.956 314.063 100.74 314.063 95C314.063 100.74 315.44 102.956 319.252 102.956C315.44 102.956 314.063 105.172 314.063 110.912C314.063 105.172 312.686 102.956 308.874 102.956Z" fill="#F0D5A7"/>
<path d="M338.623 190.126C342.435 190.126 343.811 187.91 343.811 182.17C343.811 187.91 345.188 190.126 349 190.126C345.188 190.126 343.811 192.341 343.811 198.082C343.811 192.341 342.435 190.126 338.623 190.126Z" fill="#F0D5A7"/>
<path d="M254.22 102.956C255.999 102.956 256.641 101.896 256.641 99.1509C256.641 101.896 257.284 102.956 259.063 102.956C257.284 102.956 256.641 104.016 256.641 106.761C256.641 104.016 255.999 102.956 254.22 102.956Z" fill="#F0D5A7"/>
<circle cx="283.969" cy="119.214" r="0.691824" fill="#F0D5A7"/>
<circle cx="239.692" cy="146.887" r="0.691824" fill="#F0D5A7"/>
<circle cx="283.969" cy="182.862" r="0.691824" fill="#F0D5A7"/>
<circle cx="328.937" cy="148.962" r="0.691824" fill="#F0D5A7"/>
<circle cx="253.528" cy="181.478" r="0.691824" fill="#F0D5A7"/>
<circle cx="296.421" cy="148.27" r="0.691824" fill="#F0D5A7"/>
<circle cx="300.572" cy="142.044" r="0.691824" fill="#F0D5A7"/>
<circle cx="280.509" cy="160.031" r="0.691824" fill="#F0D5A7"/>
</g>
<g filter="url(#filter7_d_165_30)">
<path d="M265.981 144.465C269.793 144.465 271.17 142.25 271.17 136.51C271.17 142.25 272.546 144.465 276.358 144.465C272.546 144.465 271.17 146.681 271.17 152.421C271.17 146.681 269.793 144.465 265.981 144.465Z" fill="#F0D5A7"/>
<path d="M308.874 102.956C312.686 102.956 314.063 100.74 314.063 95C314.063 100.74 315.44 102.956 319.252 102.956C315.44 102.956 314.063 105.172 314.063 110.912C314.063 105.172 312.686 102.956 308.874 102.956Z" fill="#F0D5A7"/>
<path d="M338.623 190.126C342.435 190.126 343.811 187.91 343.811 182.17C343.811 187.91 345.188 190.126 349 190.126C345.188 190.126 343.811 192.341 343.811 198.082C343.811 192.341 342.435 190.126 338.623 190.126Z" fill="#F0D5A7"/>
<path d="M254.22 102.956C255.999 102.956 256.641 101.896 256.641 99.1509C256.641 101.896 257.284 102.956 259.063 102.956C257.284 102.956 256.641 104.016 256.641 106.761C256.641 104.016 255.999 102.956 254.22 102.956Z" fill="#F0D5A7"/>
<circle cx="283.969" cy="119.214" r="0.691824" fill="#F0D5A7"/>
<circle cx="239.692" cy="146.887" r="0.691824" fill="#F0D5A7"/>
<circle cx="283.969" cy="182.862" r="0.691824" fill="#F0D5A7"/>
<circle cx="328.937" cy="148.962" r="0.691824" fill="#F0D5A7"/>
<circle cx="253.528" cy="181.478" r="0.691824" fill="#F0D5A7"/>
<circle cx="296.421" cy="148.27" r="0.691824" fill="#F0D5A7"/>
<circle cx="300.572" cy="142.044" r="0.691824" fill="#F0D5A7"/>
<circle cx="280.509" cy="160.031" r="0.691824" fill="#F0D5A7"/>
</g>
<g filter="url(#filter8_f_165_30)">
<path d="M77.9811 361.465C81.7932 361.465 83.1698 359.25 83.1698 353.51C83.1698 359.25 84.5464 361.465 88.3585 361.465C84.5464 361.465 83.1698 363.681 83.1698 369.421C83.1698 363.681 81.7932 361.465 77.9811 361.465Z" fill="#F0D5A7"/>
<path d="M120.874 319.956C124.686 319.956 126.063 317.74 126.063 312C126.063 317.74 127.439 319.956 131.252 319.956C127.439 319.956 126.063 322.172 126.063 327.912C126.063 322.172 124.686 319.956 120.874 319.956Z" fill="#F0D5A7"/>
<path d="M150.623 407.126C154.435 407.126 155.811 404.91 155.811 399.17C155.811 404.91 157.188 407.126 161 407.126C157.188 407.126 155.811 409.341 155.811 415.082C155.811 409.341 154.435 407.126 150.623 407.126Z" fill="#F0D5A7"/>
<path d="M34 480.956C37.8121 480.956 39.1887 478.74 39.1887 473C39.1887 478.74 40.5653 480.956 44.3774 480.956C40.5653 480.956 39.1887 483.172 39.1887 488.912C39.1887 483.172 37.8121 480.956 34 480.956Z" fill="#F0D5A7"/>
<path d="M95 540.956C98.8121 540.956 100.189 538.74 100.189 533C100.189 538.74 101.565 540.956 105.377 540.956C101.565 540.956 100.189 543.172 100.189 548.912C100.189 543.172 98.8121 540.956 95 540.956Z" fill="#F0D5A7"/>
<path d="M17 205.956C20.8121 205.956 22.1887 203.74 22.1887 198C22.1887 203.74 23.5653 205.956 27.3774 205.956C23.5653 205.956 22.1887 208.172 22.1887 213.912C22.1887 208.172 20.8121 205.956 17 205.956Z" fill="#F0D5A7"/>
<path d="M66.2201 319.956C67.9991 319.956 68.6415 318.896 68.6415 316.151C68.6415 318.896 69.2839 319.956 71.0629 319.956C69.2839 319.956 68.6415 321.016 68.6415 323.761C68.6415 321.016 67.9991 319.956 66.2201 319.956Z" fill="#F0D5A7"/>
<circle cx="95.9686" cy="336.214" r="0.691824" fill="#F0D5A7"/>
<circle cx="51.6918" cy="363.887" r="0.691824" fill="#F0D5A7"/>
<circle cx="95.9686" cy="399.862" r="0.691824" fill="#F0D5A7"/>
<circle cx="140.937" cy="365.962" r="0.691824" fill="#F0D5A7"/>
<circle cx="65.5283" cy="398.478" r="0.691824" fill="#F0D5A7"/>
<circle cx="108.421" cy="365.27" r="0.691824" fill="#F0D5A7"/>
<circle cx="112.572" cy="359.044" r="0.691824" fill="#F0D5A7"/>
<circle cx="92.5095" cy="377.031" r="0.691824" fill="#F0D5A7"/>
</g>
<g filter="url(#filter9_d_165_30)">
<path d="M77.9811 361.465C81.7932 361.465 83.1698 359.25 83.1698 353.51C83.1698 359.25 84.5464 361.465 88.3585 361.465C84.5464 361.465 83.1698 363.681 83.1698 369.421C83.1698 363.681 81.7932 361.465 77.9811 361.465Z" fill="#F0D5A7"/>
<path d="M120.874 319.956C124.686 319.956 126.063 317.74 126.063 312C126.063 317.74 127.439 319.956 131.252 319.956C127.439 319.956 126.063 322.172 126.063 327.912C126.063 322.172 124.686 319.956 120.874 319.956Z" fill="#F0D5A7"/>
<path d="M150.623 407.126C154.435 407.126 155.811 404.91 155.811 399.17C155.811 404.91 157.188 407.126 161 407.126C157.188 407.126 155.811 409.341 155.811 415.082C155.811 409.341 154.435 407.126 150.623 407.126Z" fill="#F0D5A7"/>
<path d="M34 480.956C37.8121 480.956 39.1887 478.74 39.1887 473C39.1887 478.74 40.5653 480.956 44.3774 480.956C40.5653 480.956 39.1887 483.172 39.1887 488.912C39.1887 483.172 37.8121 480.956 34 480.956Z" fill="#F0D5A7"/>
<path d="M95 540.956C98.8121 540.956 100.189 538.74 100.189 533C100.189 538.74 101.565 540.956 105.377 540.956C101.565 540.956 100.189 543.172 100.189 548.912C100.189 543.172 98.8121 540.956 95 540.956Z" fill="#F0D5A7"/>
<path d="M17 205.956C20.8121 205.956 22.1887 203.74 22.1887 198C22.1887 203.74 23.5653 205.956 27.3774 205.956C23.5653 205.956 22.1887 208.172 22.1887 213.912C22.1887 208.172 20.8121 205.956 17 205.956Z" fill="#F0D5A7"/>
<path d="M66.2201 319.956C67.9991 319.956 68.6415 318.896 68.6415 316.151C68.6415 318.896 69.2839 319.956 71.0629 319.956C69.2839 319.956 68.6415 321.016 68.6415 323.761C68.6415 321.016 67.9991 319.956 66.2201 319.956Z" fill="#F0D5A7"/>
<circle cx="95.9686" cy="336.214" r="0.691824" fill="#F0D5A7"/>
<circle cx="51.6918" cy="363.887" r="0.691824" fill="#F0D5A7"/>
<circle cx="95.9686" cy="399.862" r="0.691824" fill="#F0D5A7"/>
<circle cx="140.937" cy="365.962" r="0.691824" fill="#F0D5A7"/>
<circle cx="65.5283" cy="398.478" r="0.691824" fill="#F0D5A7"/>
<circle cx="108.421" cy="365.27" r="0.691824" fill="#F0D5A7"/>
<circle cx="112.572" cy="359.044" r="0.691824" fill="#F0D5A7"/>
<circle cx="92.5095" cy="377.031" r="0.691824" fill="#F0D5A7"/>
</g>
<g filter="url(#filter10_f_165_30)">
<path d="M9.98114 41.4655C13.7932 41.4655 15.1698 39.2499 15.1698 33.5095C15.1698 39.2499 16.5464 41.4655 20.3585 41.4655C16.5464 41.4655 15.1698 43.6811 15.1698 49.4215C15.1698 43.6811 13.7932 41.4655 9.98114 41.4655Z" fill="#F0D5A7"/>
<path d="M52.8742 -0.0440249C56.6863 -0.0440249 58.0629 -2.25961 58.0629 -8C58.0629 -2.25961 59.4395 -0.0440249 63.2516 -0.0440249C59.4395 -0.0440249 58.0629 2.17156 58.0629 7.91195C58.0629 2.17156 56.6863 -0.0440249 52.8742 -0.0440249Z" fill="#F0D5A7"/>
<path d="M17 112.956C20.8121 112.956 22.1887 110.74 22.1887 105C22.1887 110.74 23.5653 112.956 27.3774 112.956C23.5653 112.956 22.1887 115.172 22.1887 120.912C22.1887 115.172 20.8121 112.956 17 112.956Z" fill="#F0D5A7"/>
<path d="M109 37.956C112.812 37.956 114.189 35.7404 114.189 30C114.189 35.7404 115.565 37.956 119.377 37.956C115.565 37.956 114.189 40.1716 114.189 45.912C114.189 40.1716 112.812 37.956 109 37.956Z" fill="#F0D5A7"/>
<path d="M-1.77985 -0.0440896C-0.000870466 -0.0440896 0.641537 -1.10372 0.641537 -3.84912C0.641537 -1.10372 1.28395 -0.0440896 3.06292 -0.0440896C1.28395 -0.0440896 0.641537 1.01554 0.641537 3.76094C0.641537 1.01554 -0.000870466 -0.0440896 -1.77985 -0.0440896Z" fill="#F0D5A7"/>
<circle cx="27.9686" cy="16.2138" r="0.691824" fill="#F0D5A7"/>
<circle cx="27.9686" cy="79.8617" r="0.691824" fill="#F0D5A7"/>
<circle cx="72.9371" cy="45.9623" r="0.691824" fill="#F0D5A7"/>
<circle cx="132.208" cy="14.61" r="0.691824" fill="#F0D5A7"/>
<circle cx="40.4214" cy="45.2704" r="0.691824" fill="#F0D5A7"/>
<circle cx="99.6918" cy="13.9181" r="0.691824" fill="#F0D5A7"/>
<circle cx="44.5723" cy="39.0441" r="0.691824" fill="#F0D5A7"/>
<circle cx="103.843" cy="7.69182" r="0.691824" fill="#F0D5A7"/>
<circle cx="24.5095" cy="57.0314" r="0.691824" fill="#F0D5A7"/>
</g>
<g filter="url(#filter11_d_165_30)">
<path d="M9.98114 41.4655C13.7932 41.4655 15.1698 39.2499 15.1698 33.5095C15.1698 39.2499 16.5464 41.4655 20.3585 41.4655C16.5464 41.4655 15.1698 43.6811 15.1698 49.4215C15.1698 43.6811 13.7932 41.4655 9.98114 41.4655Z" fill="#F0D5A7"/>
<path d="M52.8742 -0.0440249C56.6863 -0.0440249 58.0629 -2.25961 58.0629 -8C58.0629 -2.25961 59.4395 -0.0440249 63.2516 -0.0440249C59.4395 -0.0440249 58.0629 2.17156 58.0629 7.91195C58.0629 2.17156 56.6863 -0.0440249 52.8742 -0.0440249Z" fill="#F0D5A7"/>
<path d="M17 112.956C20.8121 112.956 22.1887 110.74 22.1887 105C22.1887 110.74 23.5653 112.956 27.3774 112.956C23.5653 112.956 22.1887 115.172 22.1887 120.912C22.1887 115.172 20.8121 112.956 17 112.956Z" fill="#F0D5A7"/>
<path d="M109 37.956C112.812 37.956 114.189 35.7404 114.189 30C114.189 35.7404 115.565 37.956 119.377 37.956C115.565 37.956 114.189 40.1716 114.189 45.912C114.189 40.1716 112.812 37.956 109 37.956Z" fill="#F0D5A7"/>
<path d="M-1.77985 -0.0440896C-0.000870466 -0.0440896 0.641537 -1.10372 0.641537 -3.84912C0.641537 -1.10372 1.28395 -0.0440896 3.06292 -0.0440896C1.28395 -0.0440896 0.641537 1.01554 0.641537 3.76094C0.641537 1.01554 -0.000870466 -0.0440896 -1.77985 -0.0440896Z" fill="#F0D5A7"/>
<circle cx="27.9686" cy="16.2138" r="0.691824" fill="#F0D5A7"/>
<circle cx="27.9686" cy="79.8617" r="0.691824" fill="#F0D5A7"/>
<circle cx="72.9371" cy="45.9623" r="0.691824" fill="#F0D5A7"/>
<circle cx="132.208" cy="14.61" r="0.691824" fill="#F0D5A7"/>
<circle cx="40.4214" cy="45.2704" r="0.691824" fill="#F0D5A7"/>
<circle cx="99.6918" cy="13.9181" r="0.691824" fill="#F0D5A7"/>
<circle cx="44.5723" cy="39.0441" r="0.691824" fill="#F0D5A7"/>
<circle cx="103.843" cy="7.69182" r="0.691824" fill="#F0D5A7"/>
<circle cx="24.5095" cy="57.0314" r="0.691824" fill="#F0D5A7"/>
</g>
<g filter="url(#filter12_f_165_30)">
<path d="M318.981 27.4655C322.793 27.4655 324.17 25.2499 324.17 19.5095C324.17 25.2499 325.546 27.4655 329.358 27.4655C325.546 27.4655 324.17 29.6811 324.17 35.4215C324.17 29.6811 322.793 27.4655 318.981 27.4655Z" fill="#F0D5A7"/>
<path d="M391.623 73.1259C395.435 73.1259 396.811 70.9103 396.811 65.1699C396.811 70.9103 398.188 73.1259 402 73.1259C398.188 73.1259 396.811 75.3415 396.811 81.0819C396.811 75.3415 395.435 73.1259 391.623 73.1259Z" fill="#F0D5A7"/>
<circle cx="336.969" cy="2.2138" r="0.691824" fill="#F0D5A7"/>
<circle cx="292.692" cy="29.8869" r="0.691824" fill="#F0D5A7"/>
<circle cx="336.969" cy="65.8617" r="0.691824" fill="#F0D5A7"/>
<circle cx="345.151" cy="265.509" r="0.691824" fill="#F0D5A7"/>
<circle cx="375.151" cy="108.509" r="0.691824" fill="#F0D5A7"/>
<circle cx="381.937" cy="31.9623" r="0.691824" fill="#F0D5A7"/>
<circle cx="306.528" cy="64.478" r="0.691824" fill="#F0D5A7"/>
<circle cx="349.421" cy="31.2704" r="0.691824" fill="#F0D5A7"/>
<circle cx="357.604" cy="230.918" r="0.691824" fill="#F0D5A7"/>
<circle cx="387.604" cy="73.9181" r="0.691824" fill="#F0D5A7"/>
<circle cx="353.572" cy="25.0441" r="0.691824" fill="#F0D5A7"/>
<circle cx="361.755" cy="224.692" r="0.691824" fill="#F0D5A7"/>
<circle cx="391.755" cy="67.6918" r="0.691824" fill="#F0D5A7"/>
<circle cx="333.509" cy="43.0314" r="0.691824" fill="#F0D5A7"/>
<circle cx="341.692" cy="242.679" r="0.691824" fill="#F0D5A7"/>
<circle cx="371.692" cy="85.6791" r="0.691824" fill="#F0D5A7"/>
</g>
<g filter="url(#filter13_d_165_30)">
<path d="M318.981 27.4655C322.793 27.4655 324.17 25.2499 324.17 19.5095C324.17 25.2499 325.546 27.4655 329.358 27.4655C325.546 27.4655 324.17 29.6811 324.17 35.4215C324.17 29.6811 322.793 27.4655 318.981 27.4655Z" fill="#F0D5A7"/>
<path d="M391.623 73.1259C395.435 73.1259 396.811 70.9103 396.811 65.1699C396.811 70.9103 398.188 73.1259 402 73.1259C398.188 73.1259 396.811 75.3415 396.811 81.0819C396.811 75.3415 395.435 73.1259 391.623 73.1259Z" fill="#F0D5A7"/>
<circle cx="336.969" cy="2.2138" r="0.691824" fill="#F0D5A7"/>
<circle cx="292.692" cy="29.8869" r="0.691824" fill="#F0D5A7"/>
<circle cx="336.969" cy="65.8617" r="0.691824" fill="#F0D5A7"/>
<circle cx="345.151" cy="265.509" r="0.691824" fill="#F0D5A7"/>
<circle cx="375.151" cy="108.509" r="0.691824" fill="#F0D5A7"/>
<circle cx="381.937" cy="31.9623" r="0.691824" fill="#F0D5A7"/>
<circle cx="306.528" cy="64.478" r="0.691824" fill="#F0D5A7"/>
<circle cx="349.421" cy="31.2704" r="0.691824" fill="#F0D5A7"/>
<circle cx="357.604" cy="230.918" r="0.691824" fill="#F0D5A7"/>
<circle cx="387.604" cy="73.9181" r="0.691824" fill="#F0D5A7"/>
<circle cx="353.572" cy="25.0441" r="0.691824" fill="#F0D5A7"/>
<circle cx="361.755" cy="224.692" r="0.691824" fill="#F0D5A7"/>
<circle cx="391.755" cy="67.6918" r="0.691824" fill="#F0D5A7"/>
<circle cx="333.509" cy="43.0314" r="0.691824" fill="#F0D5A7"/>
<circle cx="341.692" cy="242.679" r="0.691824" fill="#F0D5A7"/>
<circle cx="371.692" cy="85.6791" r="0.691824" fill="#F0D5A7"/>
</g>
<g filter="url(#filter14_f_165_30)">
<path d="M334.981 425.465C338.793 425.465 340.17 423.25 340.17 417.51C340.17 423.25 341.546 425.465 345.358 425.465C341.546 425.465 340.17 427.681 340.17 433.421C340.17 427.681 338.793 425.465 334.981 425.465Z" fill="#F0D5A7"/>
<path d="M377.874 383.956C381.686 383.956 383.063 381.74 383.063 376C383.063 381.74 384.44 383.956 388.252 383.956C384.44 383.956 383.063 386.172 383.063 391.912C383.063 386.172 381.686 383.956 377.874 383.956Z" fill="#F0D5A7"/>
<path d="M407.623 471.126C411.435 471.126 412.811 468.91 412.811 463.17C412.811 468.91 414.188 471.126 418 471.126C414.188 471.126 412.811 473.341 412.811 479.082C412.811 473.341 411.435 471.126 407.623 471.126Z" fill="#F0D5A7"/>
<path d="M323.22 383.956C324.999 383.956 325.641 382.896 325.641 380.151C325.641 382.896 326.284 383.956 328.063 383.956C326.284 383.956 325.641 385.016 325.641 387.761C325.641 385.016 324.999 383.956 323.22 383.956Z" fill="#F0D5A7"/>
<circle cx="352.969" cy="400.214" r="0.691824" fill="#F0D5A7"/>
<circle cx="308.692" cy="427.887" r="0.691824" fill="#F0D5A7"/>
<circle cx="352.969" cy="463.862" r="0.691824" fill="#F0D5A7"/>
<circle cx="361.151" cy="663.509" r="0.691824" fill="#F0D5A7"/>
<circle cx="391.151" cy="506.509" r="0.691824" fill="#F0D5A7"/>
<circle cx="397.937" cy="429.962" r="0.691824" fill="#F0D5A7"/>
<circle cx="322.528" cy="462.478" r="0.691824" fill="#F0D5A7"/>
<circle cx="365.421" cy="429.27" r="0.691824" fill="#F0D5A7"/>
<circle cx="373.604" cy="628.918" r="0.691824" fill="#F0D5A7"/>
<circle cx="403.604" cy="471.918" r="0.691824" fill="#F0D5A7"/>
<circle cx="369.572" cy="423.044" r="0.691824" fill="#F0D5A7"/>
<circle cx="377.755" cy="622.692" r="0.691824" fill="#F0D5A7"/>
<circle cx="407.755" cy="465.692" r="0.691824" fill="#F0D5A7"/>
<circle cx="349.509" cy="441.031" r="0.691824" fill="#F0D5A7"/>
<circle cx="357.692" cy="640.679" r="0.691824" fill="#F0D5A7"/>
<circle cx="387.692" cy="483.679" r="0.691824" fill="#F0D5A7"/>
</g>
<g filter="url(#filter15_d_165_30)">
<path d="M334.981 425.465C338.793 425.465 340.17 423.25 340.17 417.51C340.17 423.25 341.546 425.465 345.358 425.465C341.546 425.465 340.17 427.681 340.17 433.421C340.17 427.681 338.793 425.465 334.981 425.465Z" fill="#F0D5A7"/>
<path d="M377.874 383.956C381.686 383.956 383.063 381.74 383.063 376C383.063 381.74 384.44 383.956 388.252 383.956C384.44 383.956 383.063 386.172 383.063 391.912C383.063 386.172 381.686 383.956 377.874 383.956Z" fill="#F0D5A7"/>
<path d="M407.623 471.126C411.435 471.126 412.811 468.91 412.811 463.17C412.811 468.91 414.188 471.126 418 471.126C414.188 471.126 412.811 473.341 412.811 479.082C412.811 473.341 411.435 471.126 407.623 471.126Z" fill="#F0D5A7"/>
<path d="M323.22 383.956C324.999 383.956 325.641 382.896 325.641 380.151C325.641 382.896 326.284 383.956 328.063 383.956C326.284 383.956 325.641 385.016 325.641 387.761C325.641 385.016 324.999 383.956 323.22 383.956Z" fill="#F0D5A7"/>
<circle cx="352.969" cy="400.214" r="0.691824" fill="#F0D5A7"/>
<circle cx="308.692" cy="427.887" r="0.691824" fill="#F0D5A7"/>
<circle cx="352.969" cy="463.862" r="0.691824" fill="#F0D5A7"/>
<circle cx="361.151" cy="663.509" r="0.691824" fill="#F0D5A7"/>
<circle cx="391.151" cy="506.509" r="0.691824" fill="#F0D5A7"/>
<circle cx="397.937" cy="429.962" r="0.691824" fill="#F0D5A7"/>
<circle cx="322.528" cy="462.478" r="0.691824" fill="#F0D5A7"/>
<circle cx="365.421" cy="429.27" r="0.691824" fill="#F0D5A7"/>
<circle cx="373.604" cy="628.918" r="0.691824" fill="#F0D5A7"/>
<circle cx="403.604" cy="471.918" r="0.691824" fill="#F0D5A7"/>
<circle cx="369.572" cy="423.044" r="0.691824" fill="#F0D5A7"/>
<circle cx="377.755" cy="622.692" r="0.691824" fill="#F0D5A7"/>
<circle cx="407.755" cy="465.692" r="0.691824" fill="#F0D5A7"/>
<circle cx="349.509" cy="441.031" r="0.691824" fill="#F0D5A7"/>
<circle cx="357.692" cy="640.679" r="0.691824" fill="#F0D5A7"/>
<circle cx="387.692" cy="483.679" r="0.691824" fill="#F0D5A7"/>
</g>
</g>
</g>
<defs>
<filter id="filter0_f_165_30" x="40" y="619.959" width="109.377" height="127.953" filterUnits="userSpaceOnUse" color-interpolation-filters="sRGB">
<feFlood flood-opacity="0" result="BackgroundImageFix"/>
<feBlend mode="normal" in="SourceGraphic" in2="BackgroundImageFix" result="shape"/>
<feGaussianBlur stdDeviation="2" result="effect1_foregroundBlur_165_30"/>
</filter>
<filter id="filter1_d_165_30" x="40" y="623.959" width="109.377" height="127.953" filterUnits="userSpaceOnUse" color-interpolation-filters="sRGB">
<feFlood flood-opacity="0" result="BackgroundImageFix"/>
<feColorMatrix in="SourceAlpha" type="matrix" values="0 0 0 0 0 0 0 0 0 0 0 0 0 0 0 0 0 0 127 0" result="hardAlpha"/>
<feOffset dy="4"/>
<feGaussianBlur stdDeviation="2"/>
<feComposite in2="hardAlpha" operator="out"/>
<feColorMatrix type="matrix" values="0 0 0 0 0 0 0 0 0 0 0 0 0 0 0 0 0 0 0.25 0"/>
<feBlend mode="normal" in2="BackgroundImageFix" result="effect1_dropShadow_165_30"/>
<feBlend mode="normal" in="SourceGraphic" in2="effect1_dropShadow_165_30" result="shape"/>
</filter>
<filter id="filter2_f_165_30" x="263" y="715" width="118" height="111.082" filterUnits="userSpaceOnUse" color-interpolation-filters="sRGB">
<feFlood flood-opacity="0" result="BackgroundImageFix"/>
<feBlend mode="normal" in="SourceGraphic" in2="BackgroundImageFix" result="shape"/>
<feGaussianBlur stdDeviation="2" result="effect1_foregroundBlur_165_30"/>
</filter>
<filter id="filter3_d_165_30" x="263" y="719" width="118" height="111.082" filterUnits="userSpaceOnUse" color-interpolation-filters="sRGB">
<feFlood flood-opacity="0" result="BackgroundImageFix"/>
<feColorMatrix in="SourceAlpha" type="matrix" values="0 0 0 0 0 0 0 0 0 0 0 0 0 0 0 0 0 0 127 0" result="hardAlpha"/>
<feOffset dy="4"/>
<feGaussianBlur stdDeviation="2"/>
<feComposite in2="hardAlpha" operator="out"/>
<feColorMatrix type="matrix" values="0 0 0 0 0 0 0 0 0 0 0 0 0 0 0 0 0 0 0.25 0"/>
<feBlend mode="normal" in2="BackgroundImageFix" result="effect1_dropShadow_165_30"/>
<feBlend mode="normal" in="SourceGraphic" in2="effect1_dropShadow_165_30" result="shape"/>
</filter>
<filter id="filter4_f_165_30" x="-29" y="768" width="118" height="111.082" filterUnits="userSpaceOnUse" color-interpolation-filters="sRGB">
<feFlood flood-opacity="0" result="BackgroundImageFix"/>
<feBlend mode="normal" in="SourceGraphic" in2="BackgroundImageFix" result="shape"/>
<feGaussianBlur stdDeviation="2" result="effect1_foregroundBlur_165_30"/>
</filter>
<filter id="filter5_d_165_30" x="-29" y="772" width="118" height="111.082" filterUnits="userSpaceOnUse" color-interpolation-filters="sRGB">
<feFlood flood-opacity="0" result="BackgroundImageFix"/>
<feColorMatrix in="SourceAlpha" type="matrix" values="0 0 0 0 0 0 0 0 0 0 0 0 0 0 0 0 0 0 127 0" result="hardAlpha"/>
<feOffset dy="4"/>
<feGaussianBlur stdDeviation="2"/>
<feComposite in2="hardAlpha" operator="out"/>
<feColorMatrix type="matrix" values="0 0 0 0 0 0 0 0 0 0 0 0 0 0 0 0 0 0 0.25 0"/>
<feBlend mode="normal" in2="BackgroundImageFix" result="effect1_dropShadow_165_30"/>
<feBlend mode="normal" in="SourceGraphic" in2="effect1_dropShadow_165_30" result="shape"/>
</filter>
<filter id="filter6_f_165_30" x="235" y="91" width="118" height="111.082" filterUnits="userSpaceOnUse" color-interpolation-filters="sRGB">
<feFlood flood-opacity="0" result="BackgroundImageFix"/>
<feBlend mode="normal" in="SourceGraphic" in2="BackgroundImageFix" result="shape"/>
<feGaussianBlur stdDeviation="2" result="effect1_foregroundBlur_165_30"/>
</filter>
<filter id="filter7_d_165_30" x="235" y="95" width="118" height="111.082" filterUnits="userSpaceOnUse" color-interpolation-filters="sRGB">
<feFlood flood-opacity="0" result="BackgroundImageFix"/>
<feColorMatrix in="SourceAlpha" type="matrix" values="0 0 0 0 0 0 0 0 0 0 0 0 0 0 0 0 0 0 127 0" result="hardAlpha"/>
<feOffset dy="4"/>
<feGaussianBlur stdDeviation="2"/>
<feComposite in2="hardAlpha" operator="out"/>
<feColorMatrix type="matrix" values="0 0 0 0 0 0 0 0 0 0 0 0 0 0 0 0 0 0 0.25 0"/>
<feBlend mode="normal" in2="BackgroundImageFix" result="effect1_dropShadow_165_30"/>
<feBlend mode="normal" in="SourceGraphic" in2="effect1_dropShadow_165_30" result="shape"/>
</filter>
<filter id="filter8_f_165_30" x="13" y="194" width="152" height="358.912" filterUnits="userSpaceOnUse" color-interpolation-filters="sRGB">
<feFlood flood-opacity="0" result="BackgroundImageFix"/>
<feBlend mode="normal" in="SourceGraphic" in2="BackgroundImageFix" result="shape"/>
<feGaussianBlur stdDeviation="2" result="effect1_foregroundBlur_165_30"/>
</filter>
<filter id="filter9_d_165_30" x="13" y="198" width="152" height="358.912" filterUnits="userSpaceOnUse" color-interpolation-filters="sRGB">
<feFlood flood-opacity="0" result="BackgroundImageFix"/>
<feColorMatrix in="SourceAlpha" type="matrix" values="0 0 0 0 0 0 0 0 0 0 0 0 0 0 0 0 0 0 127 0" result="hardAlpha"/>
<feOffset dy="4"/>
<feGaussianBlur stdDeviation="2"/>
<feComposite in2="hardAlpha" operator="out"/>
<feColorMatrix type="matrix" values="0 0 0 0 0 0 0 0 0 0 0 0 0 0 0 0 0 0 0.25 0"/>
<feBlend mode="normal" in2="BackgroundImageFix" result="effect1_dropShadow_165_30"/>
<feBlend mode="normal" in="SourceGraphic" in2="effect1_dropShadow_165_30" result="shape"/>
</filter>
<filter id="filter10_f_165_30" x="-21" y="-12" width="157.899" height="136.912" filterUnits="userSpaceOnUse" color-interpolation-filters="sRGB">
<feFlood flood-opacity="0" result="BackgroundImageFix"/>
<feBlend mode="normal" in="SourceGraphic" in2="BackgroundImageFix" result="shape"/>
<feGaussianBlur stdDeviation="2" result="effect1_foregroundBlur_165_30"/>
</filter>
<filter id="filter11_d_165_30" x="-21" y="-8" width="157.899" height="136.912" filterUnits="userSpaceOnUse" color-interpolation-filters="sRGB">
<feFlood flood-opacity="0" result="BackgroundImageFix"/>
<feColorMatrix in="SourceAlpha" type="matrix" values="0 0 0 0 0 0 0 0 0 0 0 0 0 0 0 0 0 0 127 0" result="hardAlpha"/>
<feOffset dy="4"/>
<feGaussianBlur stdDeviation="2"/>
<feComposite in2="hardAlpha" operator="out"/>
<feColorMatrix type="matrix" values="0 0 0 0 0 0 0 0 0 0 0 0 0 0 0 0 0 0 0.25 0"/>
<feBlend mode="normal" in2="BackgroundImageFix" result="effect1_dropShadow_165_30"/>
<feBlend mode="normal" in="SourceGraphic" in2="effect1_dropShadow_165_30" result="shape"/>
</filter>
<filter id="filter12_f_165_30" x="288" y="-26" width="118" height="296.201" filterUnits="userSpaceOnUse" color-interpolation-filters="sRGB">
<feFlood flood-opacity="0" result="BackgroundImageFix"/>
<feBlend mode="normal" in="SourceGraphic" in2="BackgroundImageFix" result="shape"/>
<feGaussianBlur stdDeviation="2" result="effect1_foregroundBlur_165_30"/>
</filter>
<filter id="filter13_d_165_30" x="288" y="-22" width="118" height="296.201" filterUnits="userSpaceOnUse" color-interpolation-filters="sRGB">
<feFlood flood-opacity="0" result="BackgroundImageFix"/>
<feColorMatrix in="SourceAlpha" type="matrix" values="0 0 0 0 0 0 0 0 0 0 0 0 0 0 0 0 0 0 127 0" result="hardAlpha"/>
<feOffset dy="4"/>
<feGaussianBlur stdDeviation="2"/>
<feComposite in2="hardAlpha" operator="out"/>
<feColorMatrix type="matrix" values="0 0 0 0 0 0 0 0 0 0 0 0 0 0 0 0 0 0 0.25 0"/>
<feBlend mode="normal" in2="BackgroundImageFix" result="effect1_dropShadow_165_30"/>
<feBlend mode="normal" in="SourceGraphic" in2="effect1_dropShadow_165_30" result="shape"/>
</filter>
<filter id="filter14_f_165_30" x="304" y="372" width="118" height="296.201" filterUnits="userSpaceOnUse" color-interpolation-filters="sRGB">
<feFlood flood-opacity="0" result="BackgroundImageFix"/>
<feBlend mode="normal" in="SourceGraphic" in2="BackgroundImageFix" result="shape"/>
<feGaussianBlur stdDeviation="2" result="effect1_foregroundBlur_165_30"/>
</filter>
<filter id="filter15_d_165_30" x="304" y="376" width="118" height="296.201" filterUnits="userSpaceOnUse" color-interpolation-filters="sRGB">
<feFlood flood-opacity="0" result="BackgroundImageFix"/>
<feColorMatrix in="SourceAlpha" type="matrix" values="0 0 0 0 0 0 0 0 0 0 0 0 0 0 0 0 0 0 127 0" result="hardAlpha"/>
<feOffset dy="4"/>
<feGaussianBlur stdDeviation="2"/>
<feComposite in2="hardAlpha" operator="out"/>
<feColorMatrix type="matrix" values="0 0 0 0 0 0 0 0 0 0 0 0 0 0 0 0 0 0 0.25 0"/>
<feBlend mode="normal" in2="BackgroundImageFix" result="effect1_dropShadow_165_30"/>
<feBlend mode="normal" in="SourceGraphic" in2="effect1_dropShadow_165_30" result="shape"/>
</filter>
<linearGradient id="paint0_linear_165_30" x1="-0.999999" y1="154" x2="122" y2="456.5" gradientUnits="userSpaceOnUse">
<stop stop-color="#4B229C"/>
<stop offset="0.559675" stop-color="#4B229C" stop-opacity="0"/>
<stop offset="1" stop-color="#4B229C"/>
</linearGradient>
<linearGradient id="paint1_linear_165_30" x1="440.519" y1="408.634" x2="430.121" y2="1027.85" gradientUnits="userSpaceOnUse">
<stop stop-color="#4B229C"/>
<stop offset="0.245192" stop-color="#8A3EA1" stop-opacity="0.22"/>
<stop offset="0.559675" stop-color="#4B229C" stop-opacity="0"/>
<stop offset="1" stop-color="#4B229C"/>
</linearGradient>
<linearGradient id="paint2_linear_165_30" x1="274.565" y1="-73.8728" x2="258.395" y2="390.579" gradientUnits="userSpaceOnUse">
<stop stop-color="#4B229C"/>
<stop offset="0.559675" stop-color="#4B229C" stop-opacity="0"/>
<stop offset="1" stop-color="#4B229C"/>
</linearGradient>
<clipPath id="clip0_165_30">
<rect width="443" height="875" fill="white"/>
</clipPath>
</defs>
</svg>
